<svg width="32" height="32" viewBox="0 0 32 32" fill="none" xmlns="http://www.w3.org/2000/svg">
<path fill-rule="evenodd" clip-rule="evenodd" d="M16.3306 19.6098C16.6842 20.0341 16.6268 20.6646 16.2026 21.0182L13.5619 23.2187L16.2026 25.4193C16.6268 25.7728 16.6842 26.4034 16.3306 26.8277C15.977 27.2519 15.3465 27.3093 14.9222 26.9557L11.4173 24.035C10.9076 23.6102 10.9076 22.8273 11.4173 22.4025L14.9222 19.4818C15.3465 19.1282 15.977 19.1855 16.3306 19.6098Z" fill="#EA4335"/>
<path fill-rule="evenodd" clip-rule="evenodd" d="M21.0444 19.6098C20.6908 20.0341 20.7482 20.6646 21.1724 21.0182L23.8131 23.2187L21.1724 25.4193C20.7482 25.7728 20.6908 26.4034 21.0444 26.8277C21.398 27.2519 22.0285 27.3093 22.4528 26.9557L25.9577 24.035C26.4674 23.6102 26.4674 22.8273 25.9577 22.4025L22.4528 19.4818C22.0285 19.1282 21.398 19.1855 21.0444 19.6098Z" fill="#EA4335"/>
<path fill-rule="evenodd" clip-rule="evenodd" d="M19.75 6C22.3043 6 24.375 8.07068 24.375 10.625C24.375 13.1793 22.3043 15.25 19.75 15.25H13.25C12.6977 15.25 12.25 15.6977 12.25 16.25C12.25 16.8023 12.6977 17.25 13.25 17.25H19.75C23.4089 17.25 26.375 14.2839 26.375 10.625C26.375 6.96611 23.4089 4 19.75 4H13.25C12.6977 4 12.25 4.44772 12.25 5C12.25 5.55228 12.6977 6 13.25 6H19.75Z" fill="#34A853"/>
<path fill-rule="evenodd" clip-rule="evenodd" d="M7 20.625H8.625C9.17728 20.625 9.625 20.1773 9.625 19.625C9.625 19.0727 9.17728 18.625 8.625 18.625H6.625C5.72754 18.625 5 19.3525 5 20.25V26.25C5 27.1475 5.72754 27.875 6.625 27.875H8.625C9.17728 27.875 9.625 27.4273 9.625 26.875C9.625 26.3227 9.17728 25.875 8.625 25.875H7V20.625Z" fill="#FBBC04"/>
<path fill-rule="evenodd" clip-rule="evenodd" d="M11.625 6C9.07068 6 7 8.07068 7 10.625C7 13.1793 9.07068 15.25 11.625 15.25H19.3196C19.8105 15.25 20.2084 15.648 20.2084 16.1389C20.2084 16.7525 19.711 17.25 19.0973 17.25H11.625C7.96611 17.25 5 14.2839 5 10.625C5 6.96611 7.96611 4 11.625 4H18.125C18.6773 4 19.125 4.44772 19.125 5C19.125 5.55228 18.6773 6 18.125 6H11.625Z" fill="#4285F4"/>
<path d="M13 10.625C13 11.2463 12.4963 11.75 11.875 11.75C11.2537 11.75 10.75 11.2463 10.75 10.625C10.75 10.0037 11.2537 9.5 11.875 9.5C12.4963 9.5 13 10.0037 13 10.625Z" fill="#4285F4"/>
<path d="M20.75 10.625C20.75 11.2463 20.2463 11.75 19.625 11.75C19.0037 11.75 18.5 11.2463 18.5 10.625C18.5 10.0037 19.0037 9.5 19.625 9.5C20.2463 9.5 20.75 10.0037 20.75 10.625Z" fill="#4285F4"/>
</svg>
