<svg width="32" height="32" viewBox="0 0 32 32" fill="none" xmlns="http://www.w3.org/2000/svg">
<path d="M0 16C0 7.16344 7.16344 0 16 0V0C24.8366 0 32 7.16344 32 16V16C32 24.8366 24.8366 32 16 32V32C7.16344 32 0 24.8366 0 16V16Z" fill="#5282FF"/>
<path fill-rule="evenodd" clip-rule="evenodd" d="M24 9.5C24 10.3284 22.6569 11 21 11C19.3431 11 18 10.3284 18 9.5C18 8.67157 19.3431 8 21 8C22.6569 8 24 8.67157 24 9.5ZM13 19.6V22.3C13 23.2 14.3 23.9 16 23.9C17.7 23.9 19 23.2 19 22.3V19.6C18.2 20.3 17.1 20.6 16 20.6C14.9 20.6 13.8 20.3 13 19.6ZM18 11V10.6C18.8 11.3 19.9 11.6 21 11.6C22.1 11.6 23.2 11.3 24 10.6V13.4C24 14.2 22.8 14.9 21.2 15L18.7247 17.8714C18.9014 18.0626 19 18.2755 19 18.5C19 19.3284 17.6569 20 16 20C14.3431 20 13 19.3284 13 18.5C13 18.2947 13.0825 18.0991 13.2318 17.9209L10.8 15.1C9.3 15 8 14.3 8 13.5V10.6C8.8 11.3 9.9 11.6 11 11.6C12.1 11.6 13.2 11.3 14 10.6V11L18 11ZM17.7242 17.2723C17.2364 17.1007 16.6417 17 16 17C15.7351 17 15.4782 17.0172 15.2336 17.0494C14.8484 17.0976 14.4565 17.1812 14.1 17.3L12 14.9C13.1 14.7 14 14.1 14 13.4V12H18V13.4C18 14.1 18.7 14.7 19.8 14.9L17.7242 17.2723ZM14 9.5C14 10.3284 12.6569 11 11 11C9.34315 11 8 10.3284 8 9.5C8 8.67157 9.34315 8 11 8C12.6569 8 14 8.67157 14 9.5Z" fill="white"/>
</svg>
