<?xml version="1.0" encoding="UTF-8"?>
<svg id="_Слой_1" data-name="Слой 1" xmlns="http://www.w3.org/2000/svg" xmlns:xlink="http://www.w3.org/1999/xlink" viewBox="0 0 120 120">
  <defs>
    <style>
      .cls-1 {
        fill: url(#_Безымянный_градиент_18-4);
      }

      .cls-2 {
        fill: url(#_Безымянный_градиент_18);
      }

      .cls-3 {
        fill: url(#_Безымянный_градиент_2);
      }

      .cls-4 {
        fill: url(#_Безымянный_градиент_14-2);
      }

      .cls-5 {
        fill: url(#_Безымянный_градиент_18-6);
      }

      .cls-6 {
        fill: url(#_Безымянный_градиент_2-5);
      }

      .cls-7 {
        fill: url(#_Безымянный_градиент_2-7);
      }

      .cls-8 {
        fill: url(#_Безымянный_градиент_14);
      }

      .cls-9 {
        fill: url(#_Безымянный_градиент_2-3);
      }

      .cls-10 {
        fill: url(#_Безымянный_градиент_2-4);
      }

      .cls-11 {
        fill: url(#_Безымянный_градиент_18-3);
      }

      .cls-12 {
        fill: url(#_Безымянный_градиент_2-2);
      }

      .cls-13 {
        fill: url(#_Безымянный_градиент_18-5);
      }

      .cls-14 {
        fill: url(#_Безымянный_градиент_14-3);
      }

      .cls-15 {
        fill: url(#_Безымянный_градиент_18-2);
      }

      .cls-16 {
        fill: url(#_Безымянный_градиент_2-6);
      }
    </style>
    <linearGradient id="_Безымянный_градиент_2" data-name="Безымянный градиент 2" x1="-724.45" y1="-2398.56" x2="-724.45" y2="-2398.56" gradientTransform="translate(2483.99 622.99) rotate(-60)" gradientUnits="userSpaceOnUse">
      <stop offset="0" stop-color="#d2dfff"/>
      <stop offset="1" stop-color="#4e7fff"/>
    </linearGradient>
    <linearGradient id="_Безымянный_градиент_18" data-name="Безымянный градиент 18" x1="103.09" y1="32.22" x2="72.46" y2="46.19" gradientUnits="userSpaceOnUse">
      <stop offset="0" stop-color="#4e7fff"/>
      <stop offset="1" stop-color="#0dd1ff"/>
    </linearGradient>
    <linearGradient id="_Безымянный_градиент_18-2" data-name="Безымянный градиент 18" x1="119.32" y1="87.33" x2="79.87" y2="68.95" xlink:href="#_Безымянный_градиент_18"/>
    <linearGradient id="_Безымянный_градиент_2-2" data-name="Безымянный градиент 2" x1="215.25" y1="-1393.17" x2="215.25" y2="-1393.17" gradientTransform="translate(-1238.77 561.28) rotate(60)" xlink:href="#_Безымянный_градиент_2"/>
    <linearGradient id="_Безымянный_градиент_2-3" data-name="Безымянный градиент 2" x1="120.82" y1="45.79" x2="51.23" y2="62.45" gradientTransform="matrix(1, 0, 0, 1, 0, 0)" xlink:href="#_Безымянный_градиент_2"/>
    <linearGradient id="_Безымянный_градиент_18-3" data-name="Безымянный градиент 18" x1="11.35" y1="33.81" x2="41.24" y2="56.51" xlink:href="#_Безымянный_градиент_18"/>
    <linearGradient id="_Безымянный_градиент_18-4" data-name="Безымянный градиент 18" x1="54.96" y1=".63" x2="57.08" y2="37.39" xlink:href="#_Безымянный_градиент_18"/>
    <linearGradient id="_Безымянный_градиент_2-4" data-name="Безымянный градиент 2" x1="-692.24" y1="-2588.18" x2="-692.24" y2="-2588.18" gradientTransform="translate(2632.1 745.69) rotate(-60)" xlink:href="#_Безымянный_градиент_2"/>
    <linearGradient id="_Безымянный_градиент_14" data-name="Безымянный градиент 14" x1="67.17" y1="-1.29" x2="76.54" y2="50.89" gradientUnits="userSpaceOnUse">
      <stop offset="0" stop-color="#d2dfff"/>
      <stop offset=".48" stop-color="#4e7fff"/>
      <stop offset=".72" stop-color="#2b55bd"/>
      <stop offset=".91" stop-color="#153b93"/>
      <stop offset="1" stop-color="#0d3183"/>
    </linearGradient>
    <linearGradient id="_Безымянный_градиент_2-5" data-name="Безымянный градиент 2" x1="78.09" y1="45.4" x2="-37.7" y2="19.52" gradientTransform="matrix(1, 0, 0, 1, 0, 0)" xlink:href="#_Безымянный_градиент_2"/>
    <linearGradient id="_Безымянный_градиент_18-5" data-name="Безымянный градиент 18" x1="8.61" y1="93.12" x2="41.13" y2="76.65" xlink:href="#_Безымянный_градиент_18"/>
    <linearGradient id="_Безымянный_градиент_14-2" data-name="Безымянный градиент 14" x1="-2.05" y1="83.17" x2="38.01" y2="62.46" xlink:href="#_Безымянный_градиент_14"/>
    <linearGradient id="_Безымянный_градиент_14-3" data-name="Безымянный градиент 14" x1="130.37" y1="112.68" x2="68.79" y2="76.58" xlink:href="#_Безымянный_градиент_14"/>
    <linearGradient id="_Безымянный_градиент_18-6" data-name="Безымянный градиент 18" x1="64.43" y1="117.57" x2="62.96" y2="80.57" xlink:href="#_Безымянный_градиент_18"/>
    <linearGradient id="_Безымянный_градиент_2-6" data-name="Безымянный градиент 2" x1="796.41" y1="-2776.59" x2="796.41" y2="-2776.59" gradientTransform="translate(856.37 -2698.78) rotate(-180)" xlink:href="#_Безымянный_градиент_2"/>
    <linearGradient id="_Безымянный_градиент_2-7" data-name="Безымянный градиент 2" x1="26.11" y1="108.57" x2="75.6" y2="61.52" gradientTransform="matrix(1, 0, 0, 1, 0, 0)" xlink:href="#_Безымянный_градиент_2"/>
  </defs>
  <rect class="cls-3" x="44.55" y="51.1" width="0" height="0"/>
  <g>
    <path class="cls-2" d="m111.92,30c.23,3.64-2.99,8.04-8.28,12.4l-.02.02c-6.89,1.01-16.16,3.78-28.23,8.68,2.03-5.67,3.4-12.17,4.17-18.58,16.61-6.2,28.44-8.27,32.37-2.52Z"/>
    <path class="cls-15" d="m111.92,90c-1.5,1.99-5.82,1.35-11.53-1.07-3.76-4.98-10.33-10.41-18.95-16.14,5.73-1.82,11.06-3.91,15.78-6.18,10.52,7.46,17.9,18.07,14.71,23.39Z"/>
    <rect class="cls-12" x="75.38" y="51.1" width="0" height="0"/>
    <path class="cls-9" d="m97.21,66.61c-4.72,2.27-10.05,4.36-15.78,6.18-1.62.51-3.27,1-4.96,1.45-5.28,1.47-10.82,2.67-16.51,3.57l-5.71,1.09c1.2-6.5,3.08-13.02,5.71-18.9,6.41-.66,12.96-2.27,19.2-4.47l.04-.02c9.6-3.38,18.37-8.19,24.42-13.09l.02-.02c5.3-4.36,8.51-8.75,8.28-12.4,2.61,4.53,4.6,9.35,5.95,14.35,1.52,7.51-7.01,15.69-20.66,22.26Z"/>
  </g>
  <g>
    <path class="cls-11" d="m44.54,51.1s-10,2.59-18.18,5.69c-13.66-11.29-21.38-20.49-18.35-26.79,3.02-2.01,8.45-1.45,14.88,1,4.34,5.45,11.38,12.08,21.66,20.1Z"/>
    <path class="cls-1" d="m64.81,10.52c-2.44,5.75-3.85,14.16-4.51,24.5-4.43-4.08-8.92-7.65-13.24-10.59C48.28,11.57,53.78-.09,59.96,0c2.48.3,4.1,4.38,4.85,10.52Z"/>
    <rect class="cls-10" x="44.55" y="51.1" width="0" height="0"/>
    <g>
      <path class="cls-8" d="m79.56,32.52c-.77,6.41-2.14,12.91-4.17,18.58-3.63-4.47-7.46-8.68-11.35-12.53,1.41-10.44,1.69-20.72.77-28.05C64.06,4.38,62.44.3,59.96,0c5.15,0,10.33.66,15.42,2.01,4.41,1.18,5.97,15.52,4.17,30.51Z"/>
      <path class="cls-6" d="m79.2,55.51l-.04.02c-6.24,2.2-12.79,3.81-19.2,4.47-3.78-5.22-8.47-10.11-13.49-14.41-7.76-6.63-16.31-11.83-23.59-14.6-6.42-2.44-11.85-3.01-14.88-1,2.63-4.51,5.8-8.66,9.45-12.34,5.75-5.07,17.09-1.77,29.61,6.76,4.32,2.95,8.81,6.52,13.24,10.59,1.24,1.15,2.5,2.33,3.74,3.55,3.89,3.85,7.72,8.06,11.35,12.53l3.81,4.41Z"/>
    </g>
  </g>
  <g>
    <path class="cls-13" d="m35.6,88.95c-11.72,5.39-24.59,6.46-27.61,1.05-.98-2.31,1.73-5.71,6.69-9.45,6.18-.75,14.18-3.76,23.48-8.36-.2,4.13-1.46,12.14-2.55,16.76Z"/>
    <path class="cls-4" d="m44.54,51.1c-2.07,5.37-3.79,10.78-5.17,16.08-9.77,4.02-18.82,8.92-24.7,13.38-4.96,3.74-7.66,7.14-6.69,9.45-2.57-4.45-4.58-9.28-5.95-14.35-1.69-6.29,22.69-20.95,42.51-24.55Z"/>
    <path class="cls-14" d="m111.92,90c-2.57,4.45-5.73,8.62-9.45,12.34-3.23,3.23-16.42-2.57-28.5-11.63-5.17-3.85-10.13-8.3-14.01-12.91,5.69-.9,11.23-2.1,16.51-3.57,8.36,6.44,17.13,11.83,23.91,14.69,5.71,2.42,10.03,3.06,11.53,1.07Z"/>
    <path class="cls-5" d="m73.98,90.71c-2.95,17.47-7.06,28.76-14.01,29.29-3.27-1.63-5.49-6.61-6.57-13.38,2.55-6.48,4.77-15.89,6.57-28.82,3.89,4.6,8.85,9.05,14.01,12.91Z"/>
    <rect class="cls-16" x="59.97" y="77.81" width="0" height="0"/>
    <path class="cls-7" d="m59.96,120c-5.22,0-10.41-.68-15.4-2.01-7.27-2.44-10.07-13.92-8.94-29.04.38-5.22,1.24-10.88,2.54-16.76.38-1.63.77-3.31,1.22-5v-.02c1.37-5.3,3.1-10.71,5.17-16.08l1.93-5.5c5.02,4.3,9.71,9.19,13.49,14.41-2.63,5.88-4.51,12.4-5.71,18.9-1.88,10.03-2.1,20.02-.86,27.73,1.09,6.76,3.31,11.74,6.57,13.38Z"/>
  </g>
</svg>