<svg width="16" height="16" viewBox="0 0 16 16" fill="none" xmlns="http://www.w3.org/2000/svg">
<g clip-path="url(#clip0_756_3354)">
<path fill-rule="evenodd" clip-rule="evenodd" d="M8.69139 10.1458C8.89799 10.3937 8.8645 10.7622 8.61657 10.9688L7.07351 12.2547L8.61657 13.5406C8.8645 13.7472 8.89799 14.1157 8.69139 14.3636C8.48478 14.6115 8.11631 14.645 7.86838 14.4384L5.82029 12.7317C5.52243 12.4834 5.52242 12.026 5.82029 11.7777L7.86838 10.071C8.11631 9.86438 8.48478 9.89788 8.69139 10.1458Z" fill="#EA4335"/>
<path fill-rule="evenodd" clip-rule="evenodd" d="M11.4459 10.1458C11.2393 10.3937 11.2728 10.7622 11.5207 10.9688L13.0638 12.2547L11.5207 13.5406C11.2728 13.7472 11.2393 14.1157 11.4459 14.3636C11.6525 14.6115 12.021 14.645 12.2689 14.4384L14.317 12.7317C14.6149 12.4834 14.6149 12.026 14.317 11.7777L12.2689 10.071C12.021 9.86438 11.6525 9.89788 11.4459 10.1458Z" fill="#EA4335"/>
<path fill-rule="evenodd" clip-rule="evenodd" d="M5.94165 2.19288C4.44903 2.19288 3.23902 3.40289 3.23902 4.89551C3.23902 6.38813 4.44903 7.59814 5.94165 7.59814H8.60776V8.76685H5.94165C3.80357 8.76685 2.07031 7.03359 2.07031 4.89551C2.07031 2.75743 3.80357 1.02417 5.94165 1.02417H9.73995C10.0627 1.02417 10.3243 1.28579 10.3243 1.60852C10.3243 1.93125 10.0627 2.19288 9.73995 2.19288H5.94165Z" fill="#4285F4"/>
<path fill-rule="evenodd" clip-rule="evenodd" d="M10.6895 2.19288C12.1821 2.19288 13.3922 3.40289 13.3922 4.89551C13.3922 6.38813 12.1821 7.59814 10.6895 7.59814H6.89123C6.5685 7.59814 6.30687 7.85977 6.30687 8.1825C6.30687 8.50523 6.5685 8.76685 6.89123 8.76685H10.6895C12.8276 8.76685 14.5609 7.03359 14.5609 4.89551C14.5609 2.75743 12.8276 1.02417 10.6895 1.02417H6.89123C6.5685 1.02417 6.30687 1.28579 6.30687 1.60852C6.30687 1.93125 6.5685 2.19288 6.89123 2.19288H10.6895Z" fill="#34A853"/>
<path fill-rule="evenodd" clip-rule="evenodd" d="M3.23902 10.739H4.18859C4.51132 10.739 4.77295 10.4774 4.77295 10.1547C4.77295 9.83196 4.51132 9.57033 4.18859 9.57033H3.01989C2.49545 9.57033 2.07031 9.99547 2.07031 10.5199V14.026C2.07031 14.5505 2.49545 14.9756 3.01989 14.9756H4.18859C4.51132 14.9756 4.77295 14.714 4.77295 14.3912C4.77295 14.0685 4.51132 13.8069 4.18859 13.8069H3.23902V10.739Z" fill="#FBBC04"/>
<path fill-rule="evenodd" clip-rule="evenodd" d="M10.9452 8.1825C10.9452 7.85977 10.6836 7.59814 10.3608 7.59814H6.89123C6.5685 7.59814 6.30687 7.85977 6.30687 8.1825C6.30687 8.50523 6.5685 8.76685 6.89123 8.76685H10.3608C10.6836 8.76685 10.9452 8.50523 10.9452 8.1825Z" fill="#4285F4"/>
<path d="M6.74514 4.89551C6.74514 5.25858 6.45081 5.55291 6.08774 5.55291C5.72467 5.55291 5.43034 5.25858 5.43034 4.89551C5.43034 4.53244 5.72467 4.23811 6.08774 4.23811C6.45081 4.23811 6.74514 4.53244 6.74514 4.89551Z" fill="#4285F4"/>
<path d="M11.2739 4.89551C11.2739 5.25858 10.9795 5.55291 10.6165 5.55291C10.2534 5.55291 9.95908 5.25858 9.95908 4.89551C9.95908 4.53244 10.2534 4.23811 10.6165 4.23811C10.9795 4.23811 11.2739 4.53244 11.2739 4.89551Z" fill="#4285F4"/>
</g>
<defs>
<clipPath id="clip0_756_3354">
<rect width="12.6294" height="14" fill="white" transform="translate(2 1)"/>
</clipPath>
</defs>
</svg>
