<svg width="701" height="199" viewBox="0 0 701 199" fill="none" xmlns="http://www.w3.org/2000/svg">
<g clip-path="url(#clip0_1_8)">
<g filter="url(#filter0_d_1_8)">
<path d="M519.293 191H180.707C174.794 191 170 186.206 170 180.293V11.9433C170 9.2132 172.213 7 174.943 7H519.293C525.206 7 530 11.7938 530 17.7072V180.293C530 186.206 525.206 191 519.293 191Z" fill="white"/>
</g>
<rect x="6" y="66" width="118" height="66" rx="4" fill="white" stroke="#67B0F8" stroke-width="2"/>
<path d="M43.4341 96.12C42.7941 96.12 42.2141 96.02 41.6941 95.82C41.1741 95.62 40.7261 95.332 40.3501 94.956C39.9821 94.572 39.6981 94.108 39.4981 93.564C39.2981 93.012 39.1981 92.392 39.1981 91.704C39.1981 91.008 39.2901 90.388 39.4741 89.844C39.6581 89.3 39.9301 88.84 40.2901 88.464C40.6501 88.08 41.0901 87.788 41.6101 87.588C42.1381 87.388 42.7381 87.288 43.4101 87.288C43.9941 87.288 44.5061 87.352 44.9461 87.48C45.3861 87.6 45.7461 87.744 46.0261 87.912V88.992C45.6661 88.76 45.2501 88.588 44.7781 88.476C44.3141 88.364 43.8541 88.308 43.3981 88.308C42.3821 88.308 41.6301 88.592 41.1421 89.16C40.6621 89.72 40.4221 90.568 40.4221 91.704C40.4221 92.848 40.6821 93.7 41.2021 94.26C41.7301 94.82 42.5061 95.1 43.5301 95.1C43.9701 95.1 44.3981 95.04 44.8141 94.92C45.2381 94.8 45.6421 94.596 46.0261 94.308V95.388C45.7941 95.572 45.4541 95.74 45.0061 95.892C44.5661 96.044 44.0421 96.12 43.4341 96.12ZM52.1985 96H51.1425V93.264C50.9265 93.432 50.6745 93.564 50.3865 93.66C50.1065 93.748 49.7865 93.792 49.4265 93.792C48.7225 93.792 48.1825 93.62 47.8065 93.276C47.4385 92.924 47.2545 92.364 47.2545 91.596V89.772H48.3225V91.608C48.3225 92.096 48.4345 92.436 48.6585 92.628C48.8825 92.82 49.1985 92.916 49.6065 92.916C49.8865 92.916 50.1585 92.876 50.4225 92.796C50.6865 92.716 50.9265 92.592 51.1425 92.424V89.772H52.1985V96ZM58.8813 95.472C58.7933 95.536 58.6853 95.604 58.5573 95.676C58.4293 95.748 58.2733 95.82 58.0893 95.892C57.9053 95.956 57.6973 96.008 57.4653 96.048C57.2333 96.096 56.9733 96.12 56.6853 96.12C55.6373 96.12 54.8413 95.836 54.2973 95.268C53.7533 94.7 53.4813 93.904 53.4813 92.88C53.4813 92.376 53.5533 91.924 53.6973 91.524C53.8493 91.124 54.0573 90.788 54.3213 90.516C54.5853 90.236 54.8973 90.024 55.2573 89.88C55.6173 89.728 56.0093 89.652 56.4333 89.652C56.8813 89.652 57.2813 89.728 57.6333 89.88C57.9853 90.032 58.2733 90.256 58.4973 90.552C58.7293 90.848 58.8853 91.216 58.9653 91.656C59.0533 92.088 59.0533 92.592 58.9653 93.168H54.5733C54.6133 93.84 54.8133 94.344 55.1733 94.68C55.5333 95.008 56.0693 95.172 56.7813 95.172C57.2613 95.172 57.6733 95.104 58.0173 94.968C58.3613 94.832 58.6493 94.684 58.8813 94.524V95.472ZM56.4093 90.588C55.9533 90.588 55.5613 90.728 55.2333 91.008C54.9053 91.288 54.6973 91.712 54.6093 92.28H57.9573C57.9893 91.704 57.8573 91.28 57.5613 91.008C57.2653 90.728 56.8813 90.588 56.4093 90.588ZM62.8317 90.672V96H61.7757V90.672H59.8197V89.772H64.8237V90.672H62.8317ZM80.4992 89.484C80.4992 89.796 80.4432 90.088 80.3312 90.36C80.2192 90.624 80.0632 90.856 79.8632 91.056C79.6712 91.248 79.4392 91.4 79.1672 91.512C78.9032 91.616 78.6152 91.668 78.3032 91.668C77.9912 91.668 77.7032 91.616 77.4392 91.512C77.1752 91.4 76.9432 91.248 76.7432 91.056C76.5512 90.856 76.3992 90.624 76.2872 90.36C76.1832 90.088 76.1312 89.796 76.1312 89.484C76.1312 89.164 76.1832 88.872 76.2872 88.608C76.3992 88.336 76.5512 88.104 76.7432 87.912C76.9432 87.72 77.1752 87.572 77.4392 87.468C77.7032 87.356 77.9912 87.3 78.3032 87.3C78.6152 87.3 78.9032 87.356 79.1672 87.468C79.4392 87.572 79.6712 87.72 79.8632 87.912C80.0632 88.104 80.2192 88.336 80.3312 88.608C80.4432 88.872 80.4992 89.164 80.4992 89.484ZM75.1712 96H73.7192L69.8912 88.932V96H68.8232V87.396H70.2752L74.1032 94.464V87.396H75.1712V96ZM77.0552 89.484C77.0552 89.892 77.1672 90.228 77.3912 90.492C77.6152 90.756 77.9192 90.888 78.3032 90.888C78.6872 90.888 78.9912 90.756 79.2152 90.492C79.4472 90.228 79.5632 89.892 79.5632 89.484C79.5632 89.076 79.4472 88.74 79.2152 88.476C78.9912 88.212 78.6872 88.08 78.3032 88.08C77.9192 88.08 77.6152 88.212 77.3912 88.476C77.1672 88.74 77.0552 89.076 77.0552 89.484ZM87.0239 96H81.5399V94.86C82.2679 94.276 82.8959 93.756 83.4239 93.3C83.9599 92.844 84.3999 92.424 84.7439 92.04C85.0879 91.656 85.3439 91.292 85.5119 90.948C85.6799 90.596 85.7639 90.232 85.7639 89.856C85.7639 89.384 85.6199 89.004 85.3319 88.716C85.0519 88.42 84.6399 88.272 84.0959 88.272C83.6399 88.272 83.2159 88.384 82.8239 88.608C82.4319 88.832 82.0799 89.116 81.7679 89.46V88.248C82.0719 87.952 82.4159 87.716 82.7999 87.54C83.1839 87.364 83.6279 87.276 84.1319 87.276C84.5799 87.276 84.9759 87.336 85.3199 87.456C85.6719 87.576 85.9639 87.744 86.1959 87.96C86.4359 88.176 86.6159 88.436 86.7359 88.74C86.8639 89.044 86.9279 89.38 86.9279 89.748C86.9279 90.212 86.8359 90.648 86.6519 91.056C86.4759 91.464 86.2119 91.872 85.8599 92.28C85.5079 92.688 85.0719 93.112 84.5519 93.552C84.0399 93.984 83.4519 94.456 82.7879 94.968H87.0239V96ZM88.1976 97.284C88.2696 97.204 88.3416 97.108 88.4136 96.996C88.4856 96.884 88.5496 96.768 88.6056 96.648C88.6696 96.536 88.7176 96.424 88.7496 96.312C88.7896 96.208 88.8176 96.116 88.8336 96.036C88.6656 95.996 88.5296 95.912 88.4256 95.784C88.3216 95.656 88.2696 95.504 88.2696 95.328C88.2696 95.12 88.3336 94.948 88.4616 94.812C88.5976 94.668 88.7776 94.596 89.0016 94.596C89.2256 94.596 89.4056 94.672 89.5416 94.824C89.6856 94.976 89.7576 95.18 89.7576 95.436C89.7576 95.604 89.7336 95.78 89.6856 95.964C89.6376 96.14 89.5776 96.312 89.5056 96.48C89.4336 96.648 89.3496 96.8 89.2536 96.936C89.1656 97.08 89.0776 97.196 88.9896 97.284H88.1976ZM27.252 110.12C26.772 110.12 26.336 110.048 25.944 109.904C25.56 109.752 25.232 109.54 24.96 109.268C24.688 108.988 24.48 108.648 24.336 108.248C24.192 107.848 24.12 107.392 24.12 106.88C24.12 106.376 24.192 105.924 24.336 105.524C24.488 105.124 24.7 104.788 24.972 104.516C25.244 104.236 25.576 104.024 25.968 103.88C26.36 103.728 26.804 103.652 27.3 103.652C27.684 103.652 28.036 103.696 28.356 103.784C28.676 103.864 28.94 103.984 29.148 104.144V105.092C28.892 104.924 28.604 104.8 28.284 104.72C27.972 104.632 27.648 104.588 27.312 104.588C26.584 104.588 26.048 104.776 25.704 105.152C25.368 105.528 25.2 106.104 25.2 106.88C25.2 107.656 25.364 108.232 25.692 108.608C26.02 108.984 26.54 109.172 27.252 109.172C27.628 109.172 27.972 109.128 28.284 109.04C28.604 108.944 28.892 108.824 29.148 108.68V109.628C28.924 109.764 28.652 109.88 28.332 109.976C28.02 110.072 27.66 110.12 27.252 110.12ZM30.564 103.772H35.556V110H34.5V104.672H31.62V110H30.564V103.772ZM38.3348 108.56L41.6588 103.772H42.7268V110H41.6708V105.224L38.3588 110H37.2788V103.772H38.3348V108.56ZM47.1387 110.12C46.6587 110.12 46.2227 110.048 45.8307 109.904C45.4467 109.752 45.1187 109.54 44.8467 109.268C44.5747 108.988 44.3667 108.648 44.2227 108.248C44.0787 107.848 44.0067 107.392 44.0067 106.88C44.0067 106.376 44.0787 105.924 44.2227 105.524C44.3747 105.124 44.5867 104.788 44.8587 104.516C45.1307 104.236 45.4627 104.024 45.8547 103.88C46.2467 103.728 46.6907 103.652 47.1867 103.652C47.5707 103.652 47.9227 103.696 48.2427 103.784C48.5627 103.864 48.8267 103.984 49.0347 104.144V105.092C48.7787 104.924 48.4907 104.8 48.1707 104.72C47.8587 104.632 47.5347 104.588 47.1987 104.588C46.4707 104.588 45.9347 104.776 45.5907 105.152C45.2547 105.528 45.0867 106.104 45.0867 106.88C45.0867 107.656 45.2507 108.232 45.5787 108.608C45.9067 108.984 46.4267 109.172 47.1387 109.172C47.5147 109.172 47.8587 109.128 48.1707 109.04C48.4907 108.944 48.7787 108.824 49.0347 108.68V109.628C48.8107 109.764 48.5387 109.88 48.2187 109.976C47.9067 110.072 47.5467 110.12 47.1387 110.12ZM54.0987 108.812C54.0267 108.956 53.9347 109.108 53.8227 109.268C53.7107 109.42 53.5707 109.56 53.4027 109.688C53.2347 109.816 53.0347 109.92 52.8027 110C52.5787 110.08 52.3147 110.12 52.0107 110.12C51.4507 110.12 50.9987 109.964 50.6547 109.652C50.3107 109.332 50.1387 108.876 50.1387 108.284C50.1387 107.604 50.3747 107.104 50.8467 106.784C51.3267 106.464 52.0067 106.304 52.8867 106.304H54.0507V105.788C54.0507 105.356 53.9387 105.048 53.7147 104.864C53.4907 104.68 53.1067 104.588 52.5627 104.588C52.1787 104.588 51.8147 104.652 51.4707 104.78C51.1267 104.9 50.8187 105.04 50.5467 105.2V104.252C50.7707 104.116 51.0707 103.984 51.4467 103.856C51.8307 103.72 52.2507 103.652 52.7067 103.652C53.4907 103.652 54.0867 103.816 54.4947 104.144C54.9027 104.464 55.1067 104.964 55.1067 105.644V108.992C55.1067 109.064 55.1067 109.148 55.1067 109.244C55.1147 109.332 55.1187 109.424 55.1187 109.52C55.1267 109.616 55.1347 109.708 55.1427 109.796C55.1507 109.876 55.1587 109.944 55.1667 110H54.2067C54.1827 109.888 54.1587 109.732 54.1347 109.532C54.1187 109.324 54.1107 109.144 54.1107 108.992L54.0987 108.812ZM52.2387 109.172C52.5667 109.172 52.8467 109.104 53.0787 108.968C53.3107 108.832 53.4987 108.676 53.6427 108.5C53.7867 108.316 53.8907 108.14 53.9547 107.972C54.0187 107.796 54.0507 107.672 54.0507 107.6V107.144H52.9947C52.3627 107.144 51.9027 107.236 51.6147 107.42C51.3347 107.596 51.1947 107.864 51.1947 108.224C51.1947 108.504 51.2787 108.732 51.4467 108.908C51.6147 109.084 51.8787 109.172 52.2387 109.172ZM60.8351 107.24H57.8231V110H56.7671V103.772H57.8231V106.34H60.8351V103.772H61.8911V110H60.8351V107.24ZM64.6786 108.56L68.0026 103.772H69.0706V110H68.0146V105.224L64.7026 110H63.6226V103.772H64.6786V108.56ZM75.7504 109.472C75.6624 109.536 75.5544 109.604 75.4264 109.676C75.2984 109.748 75.1424 109.82 74.9584 109.892C74.7744 109.956 74.5664 110.008 74.3344 110.048C74.1024 110.096 73.8424 110.12 73.5544 110.12C72.5064 110.12 71.7104 109.836 71.1664 109.268C70.6224 108.7 70.3504 107.904 70.3504 106.88C70.3504 106.376 70.4224 105.924 70.5664 105.524C70.7184 105.124 70.9264 104.788 71.1904 104.516C71.4544 104.236 71.7664 104.024 72.1264 103.88C72.4864 103.728 72.8784 103.652 73.3024 103.652C73.7504 103.652 74.1504 103.728 74.5024 103.88C74.8544 104.032 75.1424 104.256 75.3664 104.552C75.5984 104.848 75.7544 105.216 75.8344 105.656C75.9224 106.088 75.9224 106.592 75.8344 107.168H71.4424C71.4824 107.84 71.6824 108.344 72.0424 108.68C72.4024 109.008 72.9384 109.172 73.6504 109.172C74.1304 109.172 74.5424 109.104 74.8864 108.968C75.2304 108.832 75.5184 108.684 75.7504 108.524V109.472ZM73.2784 104.588C72.8224 104.588 72.4304 104.728 72.1024 105.008C71.7744 105.288 71.5664 105.712 71.4784 106.28H74.8264C74.8584 105.704 74.7264 105.28 74.4304 105.008C74.1344 104.728 73.7504 104.588 73.2784 104.588ZM83.4882 110H82.3962V102.752L80.0202 104.576V103.364L82.5762 101.396H83.4882V110ZM88.9458 110.12C88.5378 110.12 88.1578 110.036 87.8058 109.868C87.4618 109.692 87.1618 109.424 86.9058 109.064C86.6578 108.696 86.4618 108.236 86.3178 107.684C86.1738 107.124 86.1018 106.46 86.1018 105.692C86.1018 104.924 86.1738 104.264 86.3178 103.712C86.4618 103.152 86.6578 102.692 86.9058 102.332C87.1618 101.972 87.4618 101.708 87.8058 101.54C88.1578 101.372 88.5378 101.288 88.9458 101.288C89.3538 101.288 89.7298 101.372 90.0738 101.54C90.4178 101.708 90.7138 101.972 90.9618 102.332C91.2098 102.684 91.4018 103.136 91.5378 103.688C91.6818 104.24 91.7538 104.9 91.7538 105.668C91.7538 106.436 91.6818 107.1 91.5378 107.66C91.4018 108.212 91.2098 108.672 90.9618 109.04C90.7138 109.408 90.4178 109.68 90.0738 109.856C89.7298 110.032 89.3538 110.12 88.9458 110.12ZM88.9338 109.172C89.2058 109.172 89.4458 109.112 89.6538 108.992C89.8618 108.872 90.0378 108.676 90.1818 108.404C90.3258 108.132 90.4338 107.776 90.5058 107.336C90.5858 106.888 90.6258 106.344 90.6258 105.704C90.6258 105.064 90.5898 104.524 90.5178 104.084C90.4458 103.636 90.3378 103.276 90.1938 103.004C90.0498 102.732 89.8738 102.536 89.6658 102.416C89.4578 102.296 89.2178 102.236 88.9458 102.236C88.6738 102.236 88.4298 102.296 88.2138 102.416C88.0058 102.536 87.8258 102.732 87.6738 103.004C87.5298 103.276 87.4178 103.636 87.3378 104.084C87.2658 104.524 87.2298 105.064 87.2298 105.704C87.2298 106.344 87.2658 106.888 87.3378 107.336C87.4178 107.776 87.5298 108.132 87.6738 108.404C87.8178 108.676 87.9938 108.872 88.2018 108.992C88.4178 109.112 88.6618 109.172 88.9338 109.172ZM95.5435 110.12C95.1355 110.12 94.7555 110.036 94.4035 109.868C94.0595 109.692 93.7595 109.424 93.5035 109.064C93.2555 108.696 93.0595 108.236 92.9155 107.684C92.7715 107.124 92.6995 106.46 92.6995 105.692C92.6995 104.924 92.7715 104.264 92.9155 103.712C93.0595 103.152 93.2555 102.692 93.5035 102.332C93.7595 101.972 94.0595 101.708 94.4035 101.54C94.7555 101.372 95.1355 101.288 95.5435 101.288C95.9515 101.288 96.3275 101.372 96.6715 101.54C97.0155 101.708 97.3115 101.972 97.5595 102.332C97.8075 102.684 97.9995 103.136 98.1355 103.688C98.2795 104.24 98.3515 104.9 98.3515 105.668C98.3515 106.436 98.2795 107.1 98.1355 107.66C97.9995 108.212 97.8075 108.672 97.5595 109.04C97.3115 109.408 97.0155 109.68 96.6715 109.856C96.3275 110.032 95.9515 110.12 95.5435 110.12ZM95.5315 109.172C95.8035 109.172 96.0435 109.112 96.2515 108.992C96.4595 108.872 96.6355 108.676 96.7795 108.404C96.9235 108.132 97.0315 107.776 97.1035 107.336C97.1835 106.888 97.2235 106.344 97.2235 105.704C97.2235 105.064 97.1875 104.524 97.1155 104.084C97.0435 103.636 96.9355 103.276 96.7915 103.004C96.6475 102.732 96.4715 102.536 96.2635 102.416C96.0555 102.296 95.8155 102.236 95.5435 102.236C95.2715 102.236 95.0275 102.296 94.8115 102.416C94.6035 102.536 94.4235 102.732 94.2715 103.004C94.1275 103.276 94.0155 103.636 93.9355 104.084C93.8635 104.524 93.8275 105.064 93.8275 105.704C93.8275 106.344 93.8635 106.888 93.9355 107.336C94.0155 107.776 94.1275 108.132 94.2715 108.404C94.4155 108.676 94.5915 108.872 94.7995 108.992C95.0155 109.112 95.2595 109.172 95.5315 109.172ZM100.173 105.26V101.396H102.201C103.097 101.396 103.793 101.592 104.289 101.984C104.793 102.376 105.045 102.968 105.045 103.76C105.045 104.168 104.973 104.52 104.829 104.816C104.693 105.112 104.493 105.356 104.229 105.548C103.973 105.732 103.665 105.872 103.305 105.968C102.945 106.056 102.545 106.1 102.105 106.1H101.301V107.12H103.809V107.96H101.301V110H100.173V107.96H99.1891V107.12H100.173V106.1H99.1891V105.26H100.173ZM101.301 102.368V105.26H102.105C102.689 105.26 103.133 105.14 103.437 104.9C103.749 104.652 103.905 104.272 103.905 103.76C103.905 103.288 103.769 102.94 103.497 102.716C103.233 102.484 102.801 102.368 102.201 102.368H101.301Z" fill="#18123D"/>
<rect x="211" y="84" width="118" height="66" rx="4" fill="white" stroke="#67B0F8" stroke-width="2"/>
<path d="M248.434 114.12C247.794 114.12 247.214 114.02 246.694 113.82C246.174 113.62 245.726 113.332 245.35 112.956C244.982 112.572 244.698 112.108 244.498 111.564C244.298 111.012 244.198 110.392 244.198 109.704C244.198 109.008 244.29 108.388 244.474 107.844C244.658 107.3 244.93 106.84 245.29 106.464C245.65 106.08 246.09 105.788 246.61 105.588C247.138 105.388 247.738 105.288 248.41 105.288C248.994 105.288 249.506 105.352 249.946 105.48C250.386 105.6 250.746 105.744 251.026 105.912V106.992C250.666 106.76 250.25 106.588 249.778 106.476C249.314 106.364 248.854 106.308 248.398 106.308C247.382 106.308 246.63 106.592 246.142 107.16C245.662 107.72 245.422 108.568 245.422 109.704C245.422 110.848 245.682 111.7 246.202 112.26C246.73 112.82 247.506 113.1 248.53 113.1C248.97 113.1 249.398 113.04 249.814 112.92C250.238 112.8 250.642 112.596 251.026 112.308V113.388C250.794 113.572 250.454 113.74 250.006 113.892C249.566 114.044 249.042 114.12 248.434 114.12ZM257.199 114H256.143V111.264C255.927 111.432 255.675 111.564 255.387 111.66C255.107 111.748 254.787 111.792 254.427 111.792C253.723 111.792 253.183 111.62 252.807 111.276C252.439 110.924 252.255 110.364 252.255 109.596V107.772H253.323V109.608C253.323 110.096 253.435 110.436 253.659 110.628C253.883 110.82 254.199 110.916 254.607 110.916C254.887 110.916 255.159 110.876 255.423 110.796C255.687 110.716 255.927 110.592 256.143 110.424V107.772H257.199V114ZM263.881 113.472C263.793 113.536 263.685 113.604 263.557 113.676C263.429 113.748 263.273 113.82 263.089 113.892C262.905 113.956 262.697 114.008 262.465 114.048C262.233 114.096 261.973 114.12 261.685 114.12C260.637 114.12 259.841 113.836 259.297 113.268C258.753 112.7 258.481 111.904 258.481 110.88C258.481 110.376 258.553 109.924 258.697 109.524C258.849 109.124 259.057 108.788 259.321 108.516C259.585 108.236 259.897 108.024 260.257 107.88C260.617 107.728 261.009 107.652 261.433 107.652C261.881 107.652 262.281 107.728 262.633 107.88C262.985 108.032 263.273 108.256 263.497 108.552C263.729 108.848 263.885 109.216 263.965 109.656C264.053 110.088 264.053 110.592 263.965 111.168H259.573C259.613 111.84 259.813 112.344 260.173 112.68C260.533 113.008 261.069 113.172 261.781 113.172C262.261 113.172 262.673 113.104 263.017 112.968C263.361 112.832 263.649 112.684 263.881 112.524V113.472ZM261.409 108.588C260.953 108.588 260.561 108.728 260.233 109.008C259.905 109.288 259.697 109.712 259.609 110.28H262.957C262.989 109.704 262.857 109.28 262.561 109.008C262.265 108.728 261.881 108.588 261.409 108.588ZM267.832 108.672V114H266.776V108.672H264.82V107.772H269.824V108.672H267.832ZM285.499 107.484C285.499 107.796 285.443 108.088 285.331 108.36C285.219 108.624 285.063 108.856 284.863 109.056C284.671 109.248 284.439 109.4 284.167 109.512C283.903 109.616 283.615 109.668 283.303 109.668C282.991 109.668 282.703 109.616 282.439 109.512C282.175 109.4 281.943 109.248 281.743 109.056C281.551 108.856 281.399 108.624 281.287 108.36C281.183 108.088 281.131 107.796 281.131 107.484C281.131 107.164 281.183 106.872 281.287 106.608C281.399 106.336 281.551 106.104 281.743 105.912C281.943 105.72 282.175 105.572 282.439 105.468C282.703 105.356 282.991 105.3 283.303 105.3C283.615 105.3 283.903 105.356 284.167 105.468C284.439 105.572 284.671 105.72 284.863 105.912C285.063 106.104 285.219 106.336 285.331 106.608C285.443 106.872 285.499 107.164 285.499 107.484ZM280.171 114H278.719L274.891 106.932V114H273.823V105.396H275.275L279.103 112.464V105.396H280.171V114ZM282.055 107.484C282.055 107.892 282.167 108.228 282.391 108.492C282.615 108.756 282.919 108.888 283.303 108.888C283.687 108.888 283.991 108.756 284.215 108.492C284.447 108.228 284.563 107.892 284.563 107.484C284.563 107.076 284.447 106.74 284.215 106.476C283.991 106.212 283.687 106.08 283.303 106.08C282.919 106.08 282.615 106.212 282.391 106.476C282.167 106.74 282.055 107.076 282.055 107.484ZM292.024 114H286.54V112.86C287.268 112.276 287.896 111.756 288.424 111.3C288.96 110.844 289.4 110.424 289.744 110.04C290.088 109.656 290.344 109.292 290.512 108.948C290.68 108.596 290.764 108.232 290.764 107.856C290.764 107.384 290.62 107.004 290.332 106.716C290.052 106.42 289.64 106.272 289.096 106.272C288.64 106.272 288.216 106.384 287.824 106.608C287.432 106.832 287.08 107.116 286.768 107.46V106.248C287.072 105.952 287.416 105.716 287.8 105.54C288.184 105.364 288.628 105.276 289.132 105.276C289.58 105.276 289.976 105.336 290.32 105.456C290.672 105.576 290.964 105.744 291.196 105.96C291.436 106.176 291.616 106.436 291.736 106.74C291.864 107.044 291.928 107.38 291.928 107.748C291.928 108.212 291.836 108.648 291.652 109.056C291.476 109.464 291.212 109.872 290.86 110.28C290.508 110.688 290.072 111.112 289.552 111.552C289.04 111.984 288.452 112.456 287.788 112.968H292.024V114ZM293.198 115.284C293.27 115.204 293.342 115.108 293.414 114.996C293.486 114.884 293.55 114.768 293.606 114.648C293.67 114.536 293.718 114.424 293.75 114.312C293.79 114.208 293.818 114.116 293.834 114.036C293.666 113.996 293.53 113.912 293.426 113.784C293.322 113.656 293.27 113.504 293.27 113.328C293.27 113.12 293.334 112.948 293.462 112.812C293.598 112.668 293.778 112.596 294.002 112.596C294.226 112.596 294.406 112.672 294.542 112.824C294.686 112.976 294.758 113.18 294.758 113.436C294.758 113.604 294.734 113.78 294.686 113.964C294.638 114.14 294.578 114.312 294.506 114.48C294.434 114.648 294.35 114.8 294.254 114.936C294.166 115.08 294.078 115.196 293.99 115.284H293.198ZM236.513 121.772H241.505V128H240.449V122.672H237.569V128H236.513V121.772ZM245.784 128.12C245.36 128.12 244.964 128.048 244.596 127.904C244.228 127.76 243.908 127.552 243.636 127.28C243.372 127 243.164 126.66 243.012 126.26C242.86 125.86 242.784 125.4 242.784 124.88C242.784 124.368 242.86 123.912 243.012 123.512C243.164 123.104 243.372 122.764 243.636 122.492C243.908 122.22 244.228 122.012 244.596 121.868C244.964 121.724 245.36 121.652 245.784 121.652C246.216 121.652 246.616 121.724 246.984 121.868C247.352 122.012 247.668 122.22 247.932 122.492C248.204 122.764 248.416 123.104 248.568 123.512C248.728 123.912 248.808 124.368 248.808 124.88C248.808 125.4 248.728 125.86 248.568 126.26C248.416 126.66 248.204 127 247.932 127.28C247.668 127.552 247.352 127.76 246.984 127.904C246.616 128.048 246.216 128.12 245.784 128.12ZM245.784 127.172C246.064 127.172 246.32 127.128 246.552 127.04C246.792 126.944 247 126.804 247.176 126.62C247.352 126.428 247.488 126.188 247.584 125.9C247.68 125.612 247.728 125.272 247.728 124.88C247.728 124.488 247.68 124.148 247.584 123.86C247.488 123.572 247.352 123.336 247.176 123.152C247 122.96 246.792 122.82 246.552 122.732C246.32 122.636 246.064 122.588 245.784 122.588C245.504 122.588 245.248 122.636 245.016 122.732C244.784 122.82 244.58 122.96 244.404 123.152C244.236 123.336 244.104 123.572 244.008 123.86C243.912 124.148 243.864 124.488 243.864 124.88C243.864 125.272 243.912 125.612 244.008 125.9C244.104 126.188 244.236 126.428 244.404 126.62C244.58 126.804 244.784 126.944 245.016 127.04C245.248 127.128 245.504 127.172 245.784 127.172ZM251.703 125.348H251.151V128H250.095V121.772H251.151V124.448H251.751L253.935 121.772H255.135L252.579 124.844L255.183 128H253.899L251.703 125.348ZM259.413 127.928C259.269 128.304 259.117 128.632 258.957 128.912C258.797 129.2 258.617 129.444 258.417 129.644C258.217 129.844 257.993 129.992 257.745 130.088C257.497 130.192 257.213 130.244 256.893 130.244C256.733 130.244 256.585 130.232 256.449 130.208C256.313 130.192 256.189 130.16 256.077 130.112V129.092C256.165 129.156 256.277 129.204 256.413 129.236C256.549 129.276 256.697 129.296 256.857 129.296C257.153 129.296 257.397 129.224 257.589 129.08C257.781 128.944 257.965 128.724 258.141 128.42L255.609 121.772H256.773L258.753 127.028L260.721 121.772H261.741L259.413 127.928ZM262.787 121.772H267.779V128H266.723V122.672H263.843V128H262.787V121.772ZM271.109 125.348H270.557V128H269.501V121.772H270.557V124.448H271.157L273.341 121.772H274.541L271.985 124.844L274.589 128H273.305L271.109 125.348ZM279.231 126.812C279.159 126.956 279.067 127.108 278.955 127.268C278.843 127.42 278.703 127.56 278.535 127.688C278.367 127.816 278.167 127.92 277.935 128C277.711 128.08 277.447 128.12 277.143 128.12C276.583 128.12 276.131 127.964 275.787 127.652C275.443 127.332 275.271 126.876 275.271 126.284C275.271 125.604 275.507 125.104 275.979 124.784C276.459 124.464 277.139 124.304 278.019 124.304H279.183V123.788C279.183 123.356 279.071 123.048 278.847 122.864C278.623 122.68 278.239 122.588 277.695 122.588C277.311 122.588 276.947 122.652 276.603 122.78C276.259 122.9 275.951 123.04 275.679 123.2V122.252C275.903 122.116 276.203 121.984 276.579 121.856C276.963 121.72 277.383 121.652 277.839 121.652C278.623 121.652 279.219 121.816 279.627 122.144C280.035 122.464 280.239 122.964 280.239 123.644V126.992C280.239 127.064 280.239 127.148 280.239 127.244C280.247 127.332 280.251 127.424 280.251 127.52C280.259 127.616 280.267 127.708 280.275 127.796C280.283 127.876 280.291 127.944 280.299 128H279.339C279.315 127.888 279.291 127.732 279.267 127.532C279.251 127.324 279.243 127.144 279.243 126.992L279.231 126.812ZM277.371 127.172C277.699 127.172 277.979 127.104 278.211 126.968C278.443 126.832 278.631 126.676 278.775 126.5C278.919 126.316 279.023 126.14 279.087 125.972C279.151 125.796 279.183 125.672 279.183 125.6V125.144H278.127C277.495 125.144 277.035 125.236 276.747 125.42C276.467 125.596 276.327 125.864 276.327 126.224C276.327 126.504 276.411 126.732 276.579 126.908C276.747 127.084 277.011 127.172 277.371 127.172ZM289.817 125.516C289.817 125.916 289.741 126.276 289.589 126.596C289.437 126.916 289.225 127.192 288.953 127.424C288.681 127.648 288.357 127.82 287.981 127.94C287.605 128.06 287.189 128.12 286.733 128.12C286.173 128.12 285.689 128.052 285.281 127.916C284.873 127.78 284.541 127.604 284.285 127.388V126.188C284.541 126.444 284.877 126.668 285.293 126.86C285.709 127.044 286.193 127.136 286.745 127.136C287.337 127.136 287.801 126.996 288.137 126.716C288.481 126.436 288.653 126.044 288.653 125.54C288.653 125.06 288.501 124.688 288.197 124.424C287.893 124.152 287.417 124.016 286.769 124.016H285.665V122.996H286.817C287.273 122.996 287.641 122.876 287.921 122.636C288.201 122.396 288.341 122.048 288.341 121.592C288.341 121.184 288.209 120.864 287.945 120.632C287.681 120.392 287.301 120.272 286.805 120.272C286.293 120.272 285.853 120.368 285.485 120.56C285.125 120.752 284.797 120.976 284.501 121.232V120.056C284.781 119.824 285.113 119.636 285.497 119.492C285.881 119.348 286.321 119.276 286.817 119.276C287.225 119.276 287.593 119.332 287.921 119.444C288.249 119.548 288.525 119.7 288.749 119.9C288.981 120.1 289.157 120.34 289.277 120.62C289.397 120.892 289.457 121.196 289.457 121.532C289.457 121.804 289.417 122.048 289.337 122.264C289.257 122.48 289.145 122.668 289.001 122.828C288.865 122.988 288.705 123.124 288.521 123.236C288.337 123.34 288.141 123.416 287.933 123.464C288.181 123.504 288.417 123.58 288.641 123.692C288.873 123.804 289.077 123.948 289.253 124.124C289.429 124.292 289.565 124.496 289.661 124.736C289.765 124.968 289.817 125.228 289.817 125.516ZM293.594 128.12C293.186 128.12 292.806 128.036 292.454 127.868C292.11 127.692 291.81 127.424 291.554 127.064C291.306 126.696 291.11 126.236 290.966 125.684C290.822 125.124 290.75 124.46 290.75 123.692C290.75 122.924 290.822 122.264 290.966 121.712C291.11 121.152 291.306 120.692 291.554 120.332C291.81 119.972 292.11 119.708 292.454 119.54C292.806 119.372 293.186 119.288 293.594 119.288C294.002 119.288 294.378 119.372 294.722 119.54C295.066 119.708 295.362 119.972 295.61 120.332C295.858 120.684 296.05 121.136 296.186 121.688C296.33 122.24 296.402 122.9 296.402 123.668C296.402 124.436 296.33 125.1 296.186 125.66C296.05 126.212 295.858 126.672 295.61 127.04C295.362 127.408 295.066 127.68 294.722 127.856C294.378 128.032 294.002 128.12 293.594 128.12ZM293.582 127.172C293.854 127.172 294.094 127.112 294.302 126.992C294.51 126.872 294.686 126.676 294.83 126.404C294.974 126.132 295.082 125.776 295.154 125.336C295.234 124.888 295.274 124.344 295.274 123.704C295.274 123.064 295.238 122.524 295.166 122.084C295.094 121.636 294.986 121.276 294.842 121.004C294.698 120.732 294.522 120.536 294.314 120.416C294.106 120.296 293.866 120.236 293.594 120.236C293.322 120.236 293.078 120.296 292.862 120.416C292.654 120.536 292.474 120.732 292.322 121.004C292.178 121.276 292.066 121.636 291.986 122.084C291.914 122.524 291.878 123.064 291.878 123.704C291.878 124.344 291.914 124.888 291.986 125.336C292.066 125.776 292.178 126.132 292.322 126.404C292.466 126.676 292.642 126.872 292.85 126.992C293.066 127.112 293.31 127.172 293.582 127.172ZM298.224 123.26V119.396H300.252C301.148 119.396 301.844 119.592 302.34 119.984C302.844 120.376 303.096 120.968 303.096 121.76C303.096 122.168 303.024 122.52 302.88 122.816C302.744 123.112 302.544 123.356 302.28 123.548C302.024 123.732 301.716 123.872 301.356 123.968C300.996 124.056 300.596 124.1 300.156 124.1H299.352V125.12H301.86V125.96H299.352V128H298.224V125.96H297.24V125.12H298.224V124.1H297.24V123.26H298.224ZM299.352 120.368V123.26H300.156C300.74 123.26 301.184 123.14 301.488 122.9C301.8 122.652 301.956 122.272 301.956 121.76C301.956 121.288 301.82 120.94 301.548 120.716C301.284 120.484 300.852 120.368 300.252 120.368H299.352Z" fill="#18123D"/>
<path d="M279.105 49.16C278.337 49.16 277.617 49.032 276.945 48.776C276.273 48.5093 275.692 48.1253 275.201 47.624C274.711 47.1227 274.321 46.504 274.033 45.768C273.756 45.032 273.617 44.184 273.617 43.224C273.617 42.264 273.756 41.4213 274.033 40.696C274.321 39.96 274.711 39.352 275.201 38.872C275.692 38.3813 276.273 38.0133 276.945 37.768C277.617 37.512 278.337 37.384 279.105 37.384C279.884 37.384 280.609 37.512 281.281 37.768C281.953 38.0133 282.535 38.3813 283.025 38.872C283.516 39.3627 283.9 39.976 284.177 40.712C284.455 41.4373 284.593 42.28 284.593 43.24C284.593 44.1893 284.455 45.032 284.177 45.768C283.9 46.504 283.516 47.1227 283.025 47.624C282.535 48.1253 281.953 48.5093 281.281 48.776C280.609 49.032 279.884 49.16 279.105 49.16ZM279.105 47.8C279.66 47.8 280.172 47.72 280.641 47.56C281.111 47.3893 281.516 47.128 281.857 46.776C282.209 46.4133 282.481 45.944 282.673 45.368C282.876 44.792 282.977 44.0933 282.977 43.272C282.977 42.4507 282.876 41.752 282.673 41.176C282.481 40.6 282.209 40.136 281.857 39.784C281.516 39.4213 281.111 39.16 280.641 39C280.172 38.8293 279.66 38.744 279.105 38.744C278.551 38.744 278.039 38.8293 277.569 39C277.1 39.16 276.689 39.4213 276.337 39.784C275.996 40.136 275.724 40.6 275.521 41.176C275.329 41.752 275.233 42.4507 275.233 43.272C275.233 44.0933 275.329 44.792 275.521 45.368C275.724 45.944 275.996 46.4133 276.337 46.776C276.689 47.128 277.1 47.3893 277.569 47.56C278.039 47.72 278.551 47.8 279.105 47.8ZM292.842 49H291.434V45.352C291.146 45.576 290.81 45.752 290.426 45.88C290.052 45.9973 289.626 46.056 289.146 46.056C288.207 46.056 287.487 45.8267 286.986 45.368C286.495 44.8987 286.25 44.152 286.25 43.128V40.696H287.674V43.144C287.674 43.7947 287.823 44.248 288.122 44.504C288.42 44.76 288.842 44.888 289.386 44.888C289.759 44.888 290.122 44.8347 290.474 44.728C290.826 44.6213 291.146 44.456 291.434 44.232V40.696H292.842V49ZM301.752 48.296C301.635 48.3813 301.491 48.472 301.32 48.568C301.15 48.664 300.942 48.76 300.696 48.856C300.451 48.9413 300.174 49.0107 299.864 49.064C299.555 49.128 299.208 49.16 298.824 49.16C297.427 49.16 296.366 48.7813 295.64 48.024C294.915 47.2667 294.552 46.2053 294.552 44.84C294.552 44.168 294.648 43.5653 294.84 43.032C295.043 42.4987 295.32 42.0507 295.672 41.688C296.024 41.3147 296.44 41.032 296.92 40.84C297.4 40.6373 297.923 40.536 298.488 40.536C299.086 40.536 299.619 40.6373 300.088 40.84C300.558 41.0427 300.942 41.3413 301.24 41.736C301.55 42.1307 301.758 42.6213 301.864 43.208C301.982 43.784 301.982 44.456 301.864 45.224H296.008C296.062 46.12 296.328 46.792 296.808 47.24C297.288 47.6773 298.003 47.896 298.952 47.896C299.592 47.896 300.142 47.8053 300.6 47.624C301.059 47.4427 301.443 47.2453 301.752 47.032V48.296ZM298.456 41.784C297.848 41.784 297.326 41.9707 296.888 42.344C296.451 42.7173 296.174 43.2827 296.056 44.04H300.52C300.563 43.272 300.387 42.7067 299.992 42.344C299.598 41.9707 299.086 41.784 298.456 41.784ZM307.93 49.16C307.29 49.16 306.735 49.0107 306.266 48.712C305.807 48.4133 305.439 48.0027 305.162 47.48V51.832H303.754V40.696H304.986L305.13 42.312C305.407 41.768 305.78 41.336 306.25 41.016C306.719 40.696 307.3 40.536 307.994 40.536C308.474 40.536 308.932 40.6267 309.37 40.808C309.818 40.9787 310.207 41.2453 310.538 41.608C310.879 41.96 311.146 42.408 311.338 42.952C311.54 43.4853 311.642 44.1147 311.642 44.84C311.642 45.576 311.54 46.216 311.338 46.76C311.135 47.2933 310.863 47.7413 310.522 48.104C310.18 48.456 309.786 48.7227 309.338 48.904C308.89 49.0747 308.42 49.16 307.93 49.16ZM307.722 47.896C308.458 47.896 309.05 47.6453 309.498 47.144C309.956 46.632 310.186 45.864 310.186 44.84C310.186 43.8373 309.956 43.08 309.498 42.568C309.05 42.0453 308.458 41.784 307.722 41.784C307.359 41.784 307.018 41.848 306.698 41.976C306.388 42.104 306.116 42.296 305.882 42.552C305.658 42.7973 305.476 43.112 305.338 43.496C305.21 43.88 305.146 44.328 305.146 44.84C305.146 45.352 305.21 45.8 305.338 46.184C305.476 46.568 305.658 46.888 305.882 47.144C306.116 47.4 306.388 47.592 306.698 47.72C307.018 47.8373 307.359 47.896 307.722 47.896ZM319.955 48.296C319.838 48.3813 319.694 48.472 319.523 48.568C319.353 48.664 319.145 48.76 318.899 48.856C318.654 48.9413 318.377 49.0107 318.067 49.064C317.758 49.128 317.411 49.16 317.027 49.16C315.63 49.16 314.569 48.7813 313.843 48.024C313.118 47.2667 312.755 46.2053 312.755 44.84C312.755 44.168 312.851 43.5653 313.043 43.032C313.246 42.4987 313.523 42.0507 313.875 41.688C314.227 41.3147 314.643 41.032 315.123 40.84C315.603 40.6373 316.126 40.536 316.691 40.536C317.289 40.536 317.822 40.6373 318.291 40.84C318.761 41.0427 319.145 41.3413 319.443 41.736C319.753 42.1307 319.961 42.6213 320.067 43.208C320.185 43.784 320.185 44.456 320.067 45.224H314.211C314.265 46.12 314.531 46.792 315.011 47.24C315.491 47.6773 316.206 47.896 317.155 47.896C317.795 47.896 318.345 47.8053 318.803 47.624C319.262 47.4427 319.646 47.2453 319.955 47.032V48.296ZM316.659 41.784C316.051 41.784 315.529 41.9707 315.091 42.344C314.654 42.7173 314.377 43.2827 314.259 44.04H318.723C318.766 43.272 318.59 42.7067 318.195 42.344C317.801 41.9707 317.289 41.784 316.659 41.784ZM321.509 47.8C321.807 47.6187 322.042 47.336 322.213 46.952C322.383 46.568 322.517 46.0827 322.613 45.496C322.709 44.9093 322.773 44.216 322.805 43.416C322.847 42.616 322.885 41.7093 322.917 40.696H328.629V47.8H329.877V51.368H328.645L328.469 49H322.293L322.149 51.368H320.885V47.8H321.509ZM327.221 47.8V41.896H324.181C324.127 43.464 324.026 44.7227 323.877 45.672C323.738 46.6107 323.493 47.32 323.141 47.8H327.221ZM337.523 46.232C337.523 46.712 337.438 47.128 337.267 47.48C337.097 47.832 336.857 48.12 336.547 48.344C336.238 48.568 335.87 48.7333 335.443 48.84C335.017 48.9467 334.553 49 334.051 49H331.299V40.696H332.707V43.592H334.147C335.203 43.592 336.03 43.8 336.627 44.216C337.225 44.632 337.523 45.304 337.523 46.232ZM332.707 44.792V47.8H334.051C334.659 47.8 335.15 47.688 335.523 47.464C335.907 47.2293 336.099 46.8453 336.099 46.312C336.099 45.768 335.929 45.3787 335.587 45.144C335.246 44.9093 334.766 44.792 334.147 44.792H332.707ZM346.416 49.16C345.776 49.16 345.194 49.064 344.672 48.872C344.16 48.6693 343.722 48.3867 343.36 48.024C342.997 47.6507 342.72 47.1973 342.528 46.664C342.336 46.1307 342.24 45.5227 342.24 44.84C342.24 44.168 342.336 43.5653 342.528 43.032C342.73 42.4987 343.013 42.0507 343.376 41.688C343.738 41.3147 344.181 41.032 344.704 40.84C345.226 40.6373 345.818 40.536 346.48 40.536C346.992 40.536 347.461 40.5947 347.888 40.712C348.314 40.8187 348.666 40.9787 348.944 41.192V42.456C348.602 42.232 348.218 42.0667 347.792 41.96C347.376 41.8427 346.944 41.784 346.496 41.784C345.525 41.784 344.81 42.0347 344.352 42.536C343.904 43.0373 343.68 43.8053 343.68 44.84C343.68 45.8747 343.898 46.6427 344.336 47.144C344.773 47.6453 345.466 47.896 346.416 47.896C346.917 47.896 347.376 47.8373 347.792 47.72C348.218 47.592 348.602 47.432 348.944 47.24V48.504C348.645 48.6853 348.282 48.84 347.856 48.968C347.44 49.096 346.96 49.16 346.416 49.16ZM354.24 49.16C353.674 49.16 353.146 49.064 352.656 48.872C352.165 48.68 351.738 48.4027 351.376 48.04C351.024 47.6667 350.746 47.2133 350.544 46.68C350.341 46.1467 350.24 45.5333 350.24 44.84C350.24 44.1573 350.341 43.5493 350.544 43.016C350.746 42.472 351.024 42.0187 351.376 41.656C351.738 41.2933 352.165 41.016 352.656 40.824C353.146 40.632 353.674 40.536 354.24 40.536C354.816 40.536 355.349 40.632 355.84 40.824C356.33 41.016 356.752 41.2933 357.104 41.656C357.466 42.0187 357.749 42.472 357.952 43.016C358.165 43.5493 358.272 44.1573 358.272 44.84C358.272 45.5333 358.165 46.1467 357.952 46.68C357.749 47.2133 357.466 47.6667 357.104 48.04C356.752 48.4027 356.33 48.68 355.84 48.872C355.349 49.064 354.816 49.16 354.24 49.16ZM354.24 47.896C354.613 47.896 354.954 47.8373 355.264 47.72C355.584 47.592 355.861 47.4053 356.096 47.16C356.33 46.904 356.512 46.584 356.64 46.2C356.768 45.816 356.832 45.3627 356.832 44.84C356.832 44.3173 356.768 43.864 356.64 43.48C356.512 43.096 356.33 42.7813 356.096 42.536C355.861 42.28 355.584 42.0933 355.264 41.976C354.954 41.848 354.613 41.784 354.24 41.784C353.866 41.784 353.525 41.848 353.216 41.976C352.906 42.0933 352.634 42.28 352.4 42.536C352.176 42.7813 352 43.096 351.872 43.48C351.744 43.864 351.68 44.3173 351.68 44.84C351.68 45.3627 351.744 45.816 351.872 46.2C352 46.584 352.176 46.904 352.4 47.16C352.634 47.4053 352.906 47.592 353.216 47.72C353.525 47.8373 353.866 47.896 354.24 47.896ZM363.396 49.16C362.831 49.16 362.303 49.064 361.812 48.872C361.321 48.68 360.895 48.4027 360.532 48.04C360.18 47.6667 359.903 47.2133 359.7 46.68C359.497 46.1467 359.396 45.5333 359.396 44.84C359.396 44.1573 359.497 43.5493 359.7 43.016C359.903 42.472 360.18 42.0187 360.532 41.656C360.895 41.2933 361.321 41.016 361.812 40.824C362.303 40.632 362.831 40.536 363.396 40.536C363.972 40.536 364.505 40.632 364.996 40.824C365.487 41.016 365.908 41.2933 366.26 41.656C366.623 42.0187 366.905 42.472 367.108 43.016C367.321 43.5493 367.428 44.1573 367.428 44.84C367.428 45.5333 367.321 46.1467 367.108 46.68C366.905 47.2133 366.623 47.6667 366.26 48.04C365.908 48.4027 365.487 48.68 364.996 48.872C364.505 49.064 363.972 49.16 363.396 49.16ZM363.396 47.896C363.769 47.896 364.111 47.8373 364.42 47.72C364.74 47.592 365.017 47.4053 365.252 47.16C365.487 46.904 365.668 46.584 365.796 46.2C365.924 45.816 365.988 45.3627 365.988 44.84C365.988 44.3173 365.924 43.864 365.796 43.48C365.668 43.096 365.487 42.7813 365.252 42.536C365.017 42.28 364.74 42.0933 364.42 41.976C364.111 41.848 363.769 41.784 363.396 41.784C363.023 41.784 362.681 41.848 362.372 41.976C362.063 42.0933 361.791 42.28 361.556 42.536C361.332 42.7813 361.156 43.096 361.028 43.48C360.9 43.864 360.836 44.3173 360.836 44.84C360.836 45.3627 360.9 45.816 361.028 46.2C361.156 46.584 361.332 46.904 361.556 47.16C361.791 47.4053 362.063 47.592 362.372 47.72C362.681 47.8373 363.023 47.896 363.396 47.896ZM376.632 44.84C376.632 45.5333 376.526 46.1467 376.312 46.68C376.11 47.2133 375.827 47.6667 375.464 48.04C375.112 48.4027 374.691 48.68 374.2 48.872C373.71 49.064 373.176 49.16 372.6 49.16C372.014 49.16 371.475 49.064 370.984 48.872C370.494 48.6693 370.072 48.3653 369.72 47.96C369.368 47.5547 369.091 47.0427 368.888 46.424C368.696 45.8053 368.6 45.0747 368.6 44.232C368.6 43.5387 368.622 42.8773 368.664 42.248C368.707 41.6187 368.803 41.0373 368.952 40.504C369.102 39.96 369.315 39.4747 369.592 39.048C369.88 38.6107 370.264 38.248 370.744 37.96C371.011 37.8 371.288 37.6827 371.576 37.608C371.864 37.5227 372.152 37.4587 372.44 37.416C372.739 37.3733 373.038 37.3467 373.336 37.336C373.635 37.3253 373.928 37.3147 374.216 37.304C374.643 37.272 375 37.2187 375.288 37.144C375.576 37.0693 375.832 36.968 376.056 36.84V38.12C375.822 38.2693 375.571 38.376 375.304 38.44C375.048 38.4933 374.734 38.5413 374.36 38.584C373.752 38.6373 373.192 38.68 372.68 38.712C372.179 38.7333 371.72 38.8507 371.304 39.064C370.771 39.3627 370.392 39.8107 370.168 40.408C369.955 40.9947 369.822 41.6933 369.768 42.504C370.323 41.224 371.368 40.584 372.904 40.584C373.427 40.584 373.912 40.68 374.36 40.872C374.819 41.0533 375.214 41.3253 375.544 41.688C375.886 42.0507 376.152 42.4987 376.344 43.032C376.536 43.5547 376.632 44.1573 376.632 44.84ZM372.6 47.896C372.974 47.896 373.315 47.8373 373.624 47.72C373.944 47.592 374.222 47.4053 374.456 47.16C374.691 46.904 374.872 46.584 375 46.2C375.128 45.816 375.192 45.3627 375.192 44.84C375.192 44.3173 375.128 43.864 375 43.48C374.872 43.096 374.691 42.7813 374.456 42.536C374.222 42.28 373.944 42.0933 373.624 41.976C373.315 41.848 372.974 41.784 372.6 41.784C371.864 41.784 371.251 42.0293 370.76 42.52C370.28 43.0107 370.04 43.768 370.04 44.792C370.04 45.3253 370.104 45.7893 370.232 46.184C370.36 46.568 370.536 46.888 370.76 47.144C370.995 47.4 371.267 47.592 371.576 47.72C371.886 47.8373 372.227 47.896 372.6 47.896ZM388.762 47.8H390.01V51.368H388.81L388.634 49H378.394V40.696H379.802V47.8H382.874V40.696H384.282V47.8H387.354V40.696H388.762V47.8ZM397.94 48.296C397.822 48.3813 397.678 48.472 397.508 48.568C397.337 48.664 397.129 48.76 396.884 48.856C396.638 48.9413 396.361 49.0107 396.052 49.064C395.742 49.128 395.396 49.16 395.012 49.16C393.614 49.16 392.553 48.7813 391.828 48.024C391.102 47.2667 390.74 46.2053 390.74 44.84C390.74 44.168 390.836 43.5653 391.028 43.032C391.23 42.4987 391.508 42.0507 391.86 41.688C392.212 41.3147 392.628 41.032 393.108 40.84C393.588 40.6373 394.11 40.536 394.676 40.536C395.273 40.536 395.806 40.6373 396.276 40.84C396.745 41.0427 397.129 41.3413 397.428 41.736C397.737 42.1307 397.945 42.6213 398.052 43.208C398.169 43.784 398.169 44.456 398.052 45.224H392.196C392.249 46.12 392.516 46.792 392.996 47.24C393.476 47.6773 394.19 47.896 395.14 47.896C395.78 47.896 396.329 47.8053 396.788 47.624C397.246 47.4427 397.63 47.2453 397.94 47.032V48.296ZM394.644 41.784C394.036 41.784 393.513 41.9707 393.076 42.344C392.638 42.7173 392.361 43.2827 392.244 44.04H396.708C396.75 43.272 396.574 42.7067 396.18 42.344C395.785 41.9707 395.273 41.784 394.644 41.784ZM405.365 45.32H401.349V49H399.941V40.696H401.349V44.12H405.365V40.696H406.773V49H405.365V45.32ZM410.49 47.08L414.922 40.696H416.346V49H414.938V42.632L410.522 49H409.082V40.696H410.49V47.08ZM422.308 39.592C421.882 39.592 421.508 39.5387 421.188 39.432C420.879 39.3147 420.618 39.16 420.404 38.968C420.202 38.7653 420.047 38.536 419.94 38.28C419.844 38.0133 419.796 37.7253 419.796 37.416H421.204C421.204 37.8213 421.3 38.1147 421.492 38.296C421.695 38.4773 421.967 38.568 422.308 38.568C422.65 38.568 422.916 38.4773 423.108 38.296C423.3 38.1147 423.396 37.8213 423.396 37.416H424.804C424.804 38.024 424.596 38.5413 424.18 38.968C423.775 39.384 423.151 39.592 422.308 39.592ZM420.052 47.08L424.484 40.696H425.908V49H424.5V42.632L420.084 49H418.644V40.696H420.052V47.08Z" fill="#18123D"/>
<rect x="371" y="84" width="118" height="66" rx="4" fill="white" stroke="#67B0F8" stroke-width="2"/>
<path d="M408.071 114.12C407.431 114.12 406.851 114.02 406.331 113.82C405.811 113.62 405.363 113.332 404.987 112.956C404.619 112.572 404.335 112.108 404.135 111.564C403.935 111.012 403.835 110.392 403.835 109.704C403.835 109.008 403.927 108.388 404.111 107.844C404.295 107.3 404.567 106.84 404.927 106.464C405.287 106.08 405.727 105.788 406.247 105.588C406.775 105.388 407.375 105.288 408.047 105.288C408.631 105.288 409.143 105.352 409.583 105.48C410.023 105.6 410.383 105.744 410.663 105.912V106.992C410.303 106.76 409.887 106.588 409.415 106.476C408.951 106.364 408.491 106.308 408.035 106.308C407.019 106.308 406.267 106.592 405.779 107.16C405.299 107.72 405.059 108.568 405.059 109.704C405.059 110.848 405.319 111.7 405.839 112.26C406.367 112.82 407.143 113.1 408.167 113.1C408.607 113.1 409.035 113.04 409.451 112.92C409.875 112.8 410.279 112.596 410.663 112.308V113.388C410.431 113.572 410.091 113.74 409.643 113.892C409.203 114.044 408.679 114.12 408.071 114.12ZM416.835 114H415.779V111.264C415.563 111.432 415.311 111.564 415.023 111.66C414.743 111.748 414.423 111.792 414.063 111.792C413.359 111.792 412.819 111.62 412.443 111.276C412.075 110.924 411.891 110.364 411.891 109.596V107.772H412.959V109.608C412.959 110.096 413.071 110.436 413.295 110.628C413.519 110.82 413.835 110.916 414.243 110.916C414.523 110.916 414.795 110.876 415.059 110.796C415.323 110.716 415.563 110.592 415.779 110.424V107.772H416.835V114ZM423.518 113.472C423.43 113.536 423.322 113.604 423.194 113.676C423.066 113.748 422.91 113.82 422.726 113.892C422.542 113.956 422.334 114.008 422.102 114.048C421.87 114.096 421.61 114.12 421.322 114.12C420.274 114.12 419.478 113.836 418.934 113.268C418.39 112.7 418.118 111.904 418.118 110.88C418.118 110.376 418.19 109.924 418.334 109.524C418.486 109.124 418.694 108.788 418.958 108.516C419.222 108.236 419.534 108.024 419.894 107.88C420.254 107.728 420.646 107.652 421.07 107.652C421.518 107.652 421.918 107.728 422.27 107.88C422.622 108.032 422.91 108.256 423.134 108.552C423.366 108.848 423.522 109.216 423.602 109.656C423.69 110.088 423.69 110.592 423.602 111.168H419.21C419.25 111.84 419.45 112.344 419.81 112.68C420.17 113.008 420.706 113.172 421.418 113.172C421.898 113.172 422.31 113.104 422.654 112.968C422.998 112.832 423.286 112.684 423.518 112.524V113.472ZM421.046 108.588C420.59 108.588 420.198 108.728 419.87 109.008C419.542 109.288 419.334 109.712 419.246 110.28H422.594C422.626 109.704 422.494 109.28 422.198 109.008C421.902 108.728 421.518 108.588 421.046 108.588ZM427.468 108.672V114H426.412V108.672H424.456V107.772H429.46V108.672H427.468ZM445.136 107.484C445.136 107.796 445.08 108.088 444.968 108.36C444.856 108.624 444.7 108.856 444.5 109.056C444.308 109.248 444.076 109.4 443.804 109.512C443.54 109.616 443.252 109.668 442.94 109.668C442.628 109.668 442.34 109.616 442.076 109.512C441.812 109.4 441.58 109.248 441.38 109.056C441.188 108.856 441.036 108.624 440.924 108.36C440.82 108.088 440.768 107.796 440.768 107.484C440.768 107.164 440.82 106.872 440.924 106.608C441.036 106.336 441.188 106.104 441.38 105.912C441.58 105.72 441.812 105.572 442.076 105.468C442.34 105.356 442.628 105.3 442.94 105.3C443.252 105.3 443.54 105.356 443.804 105.468C444.076 105.572 444.308 105.72 444.5 105.912C444.7 106.104 444.856 106.336 444.968 106.608C445.08 106.872 445.136 107.164 445.136 107.484ZM439.808 114H438.356L434.528 106.932V114H433.46V105.396H434.912L438.74 112.464V105.396H439.808V114ZM441.692 107.484C441.692 107.892 441.804 108.228 442.028 108.492C442.252 108.756 442.556 108.888 442.94 108.888C443.324 108.888 443.628 108.756 443.852 108.492C444.084 108.228 444.2 107.892 444.2 107.484C444.2 107.076 444.084 106.74 443.852 106.476C443.628 106.212 443.324 106.08 442.94 106.08C442.556 106.08 442.252 106.212 442.028 106.476C441.804 106.74 441.692 107.076 441.692 107.484ZM450.053 114H448.961V106.752L446.585 108.576V107.364L449.141 105.396H450.053V114ZM453.218 115.284C453.29 115.204 453.362 115.108 453.434 114.996C453.506 114.884 453.57 114.768 453.626 114.648C453.69 114.536 453.738 114.424 453.77 114.312C453.81 114.208 453.838 114.116 453.854 114.036C453.686 113.996 453.55 113.912 453.446 113.784C453.342 113.656 453.29 113.504 453.29 113.328C453.29 113.12 453.354 112.948 453.482 112.812C453.618 112.668 453.798 112.596 454.022 112.596C454.246 112.596 454.426 112.672 454.562 112.824C454.706 112.976 454.778 113.18 454.778 113.436C454.778 113.604 454.754 113.78 454.706 113.964C454.658 114.14 454.598 114.312 454.526 114.48C454.454 114.648 454.37 114.8 454.274 114.936C454.186 115.08 454.098 115.196 454.01 115.284H453.218ZM385.492 121.772H390.484V128H389.428V122.672H386.548V128H385.492V121.772ZM394.763 128.12C394.339 128.12 393.943 128.048 393.575 127.904C393.207 127.76 392.887 127.552 392.615 127.28C392.351 127 392.143 126.66 391.991 126.26C391.839 125.86 391.763 125.4 391.763 124.88C391.763 124.368 391.839 123.912 391.991 123.512C392.143 123.104 392.351 122.764 392.615 122.492C392.887 122.22 393.207 122.012 393.575 121.868C393.943 121.724 394.339 121.652 394.763 121.652C395.195 121.652 395.595 121.724 395.963 121.868C396.331 122.012 396.647 122.22 396.911 122.492C397.183 122.764 397.395 123.104 397.547 123.512C397.707 123.912 397.787 124.368 397.787 124.88C397.787 125.4 397.707 125.86 397.547 126.26C397.395 126.66 397.183 127 396.911 127.28C396.647 127.552 396.331 127.76 395.963 127.904C395.595 128.048 395.195 128.12 394.763 128.12ZM394.763 127.172C395.043 127.172 395.299 127.128 395.531 127.04C395.771 126.944 395.979 126.804 396.155 126.62C396.331 126.428 396.467 126.188 396.563 125.9C396.659 125.612 396.707 125.272 396.707 124.88C396.707 124.488 396.659 124.148 396.563 123.86C396.467 123.572 396.331 123.336 396.155 123.152C395.979 122.96 395.771 122.82 395.531 122.732C395.299 122.636 395.043 122.588 394.763 122.588C394.483 122.588 394.227 122.636 393.995 122.732C393.763 122.82 393.559 122.96 393.383 123.152C393.215 123.336 393.083 123.572 392.987 123.86C392.891 124.148 392.843 124.488 392.843 124.88C392.843 125.272 392.891 125.612 392.987 125.9C393.083 126.188 393.215 126.428 393.383 126.62C393.559 126.804 393.763 126.944 393.995 127.04C394.227 127.128 394.483 127.172 394.763 127.172ZM399.074 121.772H404.066V128H403.01V122.672H400.13V128H399.074V121.772ZM408.345 128.12C407.921 128.12 407.525 128.048 407.157 127.904C406.789 127.76 406.469 127.552 406.197 127.28C405.933 127 405.725 126.66 405.573 126.26C405.421 125.86 405.345 125.4 405.345 124.88C405.345 124.368 405.421 123.912 405.573 123.512C405.725 123.104 405.933 122.764 406.197 122.492C406.469 122.22 406.789 122.012 407.157 121.868C407.525 121.724 407.921 121.652 408.345 121.652C408.777 121.652 409.177 121.724 409.545 121.868C409.913 122.012 410.229 122.22 410.493 122.492C410.765 122.764 410.977 123.104 411.129 123.512C411.289 123.912 411.369 124.368 411.369 124.88C411.369 125.4 411.289 125.86 411.129 126.26C410.977 126.66 410.765 127 410.493 127.28C410.229 127.552 409.913 127.76 409.545 127.904C409.177 128.048 408.777 128.12 408.345 128.12ZM408.345 127.172C408.625 127.172 408.881 127.128 409.113 127.04C409.353 126.944 409.561 126.804 409.737 126.62C409.913 126.428 410.049 126.188 410.145 125.9C410.241 125.612 410.289 125.272 410.289 124.88C410.289 124.488 410.241 124.148 410.145 123.86C410.049 123.572 409.913 123.336 409.737 123.152C409.561 122.96 409.353 122.82 409.113 122.732C408.881 122.636 408.625 122.588 408.345 122.588C408.065 122.588 407.809 122.636 407.577 122.732C407.345 122.82 407.141 122.96 406.965 123.152C406.797 123.336 406.665 123.572 406.569 123.86C406.473 124.148 406.425 124.488 406.425 124.88C406.425 125.272 406.473 125.612 406.569 125.9C406.665 126.188 406.797 126.428 406.965 126.62C407.141 126.804 407.345 126.944 407.577 127.04C407.809 127.128 408.065 127.172 408.345 127.172ZM412.96 126.068C413.072 125.66 413.144 125.108 413.176 124.412C413.208 123.716 413.224 122.836 413.224 121.772H417.412V128H416.344V122.672H414.22C414.212 123.528 414.184 124.288 414.136 124.952C414.096 125.616 414.004 126.176 413.86 126.632C413.724 127.088 413.52 127.436 413.248 127.676C412.984 127.908 412.628 128.024 412.18 128.024C412.148 128.024 412.116 128.024 412.084 128.024C412.052 128.024 412.016 128.02 411.976 128.012V126.968C412.016 126.976 412.068 126.98 412.132 126.98C412.54 126.98 412.816 126.676 412.96 126.068ZM423.193 125.24H420.181V128H419.125V121.772H420.181V124.34H423.193V121.772H424.249V128H423.193V125.24ZM430.936 127.472C430.848 127.536 430.74 127.604 430.612 127.676C430.484 127.748 430.328 127.82 430.144 127.892C429.96 127.956 429.752 128.008 429.52 128.048C429.288 128.096 429.028 128.12 428.74 128.12C427.692 128.12 426.896 127.836 426.352 127.268C425.808 126.7 425.536 125.904 425.536 124.88C425.536 124.376 425.608 123.924 425.752 123.524C425.904 123.124 426.112 122.788 426.376 122.516C426.64 122.236 426.952 122.024 427.312 121.88C427.672 121.728 428.064 121.652 428.488 121.652C428.936 121.652 429.336 121.728 429.688 121.88C430.04 122.032 430.328 122.256 430.552 122.552C430.784 122.848 430.94 123.216 431.02 123.656C431.108 124.088 431.108 124.592 431.02 125.168H426.628C426.668 125.84 426.868 126.344 427.228 126.68C427.588 127.008 428.124 127.172 428.836 127.172C429.316 127.172 429.728 127.104 430.072 126.968C430.416 126.832 430.704 126.684 430.936 126.524V127.472ZM428.464 122.588C428.008 122.588 427.616 122.728 427.288 123.008C426.96 123.288 426.752 123.712 426.664 124.28H430.012C430.044 123.704 429.912 123.28 429.616 123.008C429.32 122.728 428.936 122.588 428.464 122.588ZM436.505 125.24H433.493V128H432.437V121.772H433.493V124.34H436.505V121.772H437.561V128H436.505V125.24ZM440.348 126.56L443.672 121.772H444.74V128H443.684V123.224L440.372 128H439.292V121.772H440.348V126.56ZM451.42 127.472C451.332 127.536 451.224 127.604 451.096 127.676C450.968 127.748 450.812 127.82 450.628 127.892C450.444 127.956 450.236 128.008 450.004 128.048C449.772 128.096 449.512 128.12 449.224 128.12C448.176 128.12 447.38 127.836 446.836 127.268C446.292 126.7 446.02 125.904 446.02 124.88C446.02 124.376 446.092 123.924 446.236 123.524C446.388 123.124 446.596 122.788 446.86 122.516C447.124 122.236 447.436 122.024 447.796 121.88C448.156 121.728 448.548 121.652 448.972 121.652C449.42 121.652 449.82 121.728 450.172 121.88C450.524 122.032 450.812 122.256 451.036 122.552C451.268 122.848 451.424 123.216 451.504 123.656C451.592 124.088 451.592 124.592 451.504 125.168H447.112C447.152 125.84 447.352 126.344 447.712 126.68C448.072 127.008 448.608 127.172 449.32 127.172C449.8 127.172 450.212 127.104 450.556 126.968C450.9 126.832 451.188 126.684 451.42 126.524V127.472ZM448.948 122.588C448.492 122.588 448.1 122.728 447.772 123.008C447.444 123.288 447.236 123.712 447.148 124.28H450.496C450.528 123.704 450.396 123.28 450.1 123.008C449.804 122.728 449.42 122.588 448.948 122.588ZM459.158 128H458.066V120.752L455.69 122.576V121.364L458.246 119.396H459.158V128ZM464.616 128.12C464.208 128.12 463.828 128.036 463.476 127.868C463.132 127.692 462.832 127.424 462.576 127.064C462.328 126.696 462.132 126.236 461.988 125.684C461.844 125.124 461.772 124.46 461.772 123.692C461.772 122.924 461.844 122.264 461.988 121.712C462.132 121.152 462.328 120.692 462.576 120.332C462.832 119.972 463.132 119.708 463.476 119.54C463.828 119.372 464.208 119.288 464.616 119.288C465.024 119.288 465.4 119.372 465.744 119.54C466.088 119.708 466.384 119.972 466.632 120.332C466.88 120.684 467.072 121.136 467.208 121.688C467.352 122.24 467.424 122.9 467.424 123.668C467.424 124.436 467.352 125.1 467.208 125.66C467.072 126.212 466.88 126.672 466.632 127.04C466.384 127.408 466.088 127.68 465.744 127.856C465.4 128.032 465.024 128.12 464.616 128.12ZM464.604 127.172C464.876 127.172 465.116 127.112 465.324 126.992C465.532 126.872 465.708 126.676 465.852 126.404C465.996 126.132 466.104 125.776 466.176 125.336C466.256 124.888 466.296 124.344 466.296 123.704C466.296 123.064 466.26 122.524 466.188 122.084C466.116 121.636 466.008 121.276 465.864 121.004C465.72 120.732 465.544 120.536 465.336 120.416C465.128 120.296 464.888 120.236 464.616 120.236C464.344 120.236 464.1 120.296 463.884 120.416C463.676 120.536 463.496 120.732 463.344 121.004C463.2 121.276 463.088 121.636 463.008 122.084C462.936 122.524 462.9 123.064 462.9 123.704C462.9 124.344 462.936 124.888 463.008 125.336C463.088 125.776 463.2 126.132 463.344 126.404C463.488 126.676 463.664 126.872 463.872 126.992C464.088 127.112 464.332 127.172 464.604 127.172ZM469.245 123.26V119.396H471.273C472.169 119.396 472.865 119.592 473.361 119.984C473.865 120.376 474.117 120.968 474.117 121.76C474.117 122.168 474.045 122.52 473.901 122.816C473.765 123.112 473.565 123.356 473.301 123.548C473.045 123.732 472.737 123.872 472.377 123.968C472.017 124.056 471.617 124.1 471.177 124.1H470.373V125.12H472.881V125.96H470.373V128H469.245V125.96H468.261V125.12H469.245V124.1H468.261V123.26H469.245ZM470.373 120.368V123.26H471.177C471.761 123.26 472.205 123.14 472.509 122.9C472.821 122.652 472.977 122.272 472.977 121.76C472.977 121.288 472.841 120.94 472.569 120.716C472.305 120.484 471.873 120.368 471.273 120.368H470.373Z" fill="#18123D"/>
<g filter="url(#filter1_d_1_8)">
<path d="M691.431 173H578.569C576.598 173 575 171.402 575 169.431V28.9761C575 26.7802 576.78 25 578.976 25H691.431C693.402 25 695 26.5979 695 28.5691V169.431C695 171.402 693.402 173 691.431 173Z" fill="white"/>
</g>
<path d="M599.583 94.396H606.051V103H604.911V95.428H600.711V103H599.583V94.396ZM611.044 103.12C610.564 103.12 610.148 103.008 609.796 102.784C609.452 102.56 609.176 102.252 608.968 101.86V105.124H607.912V96.772H608.836L608.944 97.984C609.152 97.576 609.432 97.252 609.784 97.012C610.136 96.772 610.572 96.652 611.092 96.652C611.452 96.652 611.796 96.72 612.124 96.856C612.46 96.984 612.752 97.184 613 97.456C613.256 97.72 613.456 98.056 613.6 98.464C613.752 98.864 613.828 99.336 613.828 99.88C613.828 100.432 613.752 100.912 613.6 101.32C613.448 101.72 613.244 102.056 612.988 102.328C612.732 102.592 612.436 102.792 612.1 102.928C611.764 103.056 611.412 103.12 611.044 103.12ZM610.888 102.172C611.44 102.172 611.884 101.984 612.22 101.608C612.564 101.224 612.736 100.648 612.736 99.88C612.736 99.128 612.564 98.56 612.22 98.176C611.884 97.784 611.44 97.588 610.888 97.588C610.616 97.588 610.36 97.636 610.12 97.732C609.888 97.828 609.684 97.972 609.508 98.164C609.34 98.348 609.204 98.584 609.1 98.872C609.004 99.16 608.956 99.496 608.956 99.88C608.956 100.264 609.004 100.6 609.1 100.888C609.204 101.176 609.34 101.416 609.508 101.608C609.684 101.8 609.888 101.944 610.12 102.04C610.36 102.128 610.616 102.172 610.888 102.172ZM616.163 101.56L619.487 96.772H620.555V103H619.499V98.224L616.187 103H615.107V96.772H616.163V101.56ZM622.759 101.068C622.871 100.66 622.943 100.108 622.975 99.412C623.007 98.716 623.023 97.836 623.023 96.772H627.211V103H626.143V97.672H624.019C624.011 98.528 623.983 99.288 623.935 99.952C623.895 100.616 623.803 101.176 623.659 101.632C623.523 102.088 623.319 102.436 623.047 102.676C622.783 102.908 622.427 103.024 621.979 103.024C621.947 103.024 621.915 103.024 621.883 103.024C621.851 103.024 621.815 103.02 621.775 103.012V101.968C621.815 101.976 621.867 101.98 621.931 101.98C622.339 101.98 622.615 101.676 622.759 101.068ZM631.479 103.12C631.055 103.12 630.659 103.048 630.291 102.904C629.923 102.76 629.603 102.552 629.331 102.28C629.067 102 628.859 101.66 628.707 101.26C628.555 100.86 628.479 100.4 628.479 99.88C628.479 99.368 628.555 98.912 628.707 98.512C628.859 98.104 629.067 97.764 629.331 97.492C629.603 97.22 629.923 97.012 630.291 96.868C630.659 96.724 631.055 96.652 631.479 96.652C631.911 96.652 632.311 96.724 632.679 96.868C633.047 97.012 633.363 97.22 633.627 97.492C633.899 97.764 634.111 98.104 634.263 98.512C634.423 98.912 634.503 99.368 634.503 99.88C634.503 100.4 634.423 100.86 634.263 101.26C634.111 101.66 633.899 102 633.627 102.28C633.363 102.552 633.047 102.76 632.679 102.904C632.311 103.048 631.911 103.12 631.479 103.12ZM631.479 102.172C631.759 102.172 632.015 102.128 632.247 102.04C632.487 101.944 632.695 101.804 632.871 101.62C633.047 101.428 633.183 101.188 633.279 100.9C633.375 100.612 633.423 100.272 633.423 99.88C633.423 99.488 633.375 99.148 633.279 98.86C633.183 98.572 633.047 98.336 632.871 98.152C632.695 97.96 632.487 97.82 632.247 97.732C632.015 97.636 631.759 97.588 631.479 97.588C631.199 97.588 630.943 97.636 630.711 97.732C630.479 97.82 630.275 97.96 630.099 98.152C629.931 98.336 629.799 98.572 629.703 98.86C629.607 99.148 629.559 99.488 629.559 99.88C629.559 100.272 629.607 100.612 629.703 100.9C629.799 101.188 629.931 101.428 630.099 101.62C630.275 101.804 630.479 101.944 630.711 102.04C630.943 102.128 631.199 102.172 631.479 102.172ZM639.792 96.772V99.448H640.356L642.336 96.772H643.5L641.184 99.82L643.584 103H642.3L640.308 100.348H639.792V103H638.736V100.348H638.208L636.192 103H634.944L637.344 99.856L635.028 96.772H636.24L638.184 99.448H638.736V96.772H639.792ZM649.418 102.472C649.33 102.536 649.222 102.604 649.094 102.676C648.966 102.748 648.81 102.82 648.626 102.892C648.442 102.956 648.234 103.008 648.002 103.048C647.77 103.096 647.51 103.12 647.222 103.12C646.174 103.12 645.378 102.836 644.834 102.268C644.29 101.7 644.018 100.904 644.018 99.88C644.018 99.376 644.09 98.924 644.234 98.524C644.386 98.124 644.594 97.788 644.858 97.516C645.122 97.236 645.434 97.024 645.794 96.88C646.154 96.728 646.546 96.652 646.97 96.652C647.418 96.652 647.818 96.728 648.17 96.88C648.522 97.032 648.81 97.256 649.034 97.552C649.266 97.848 649.422 98.216 649.502 98.656C649.59 99.088 649.59 99.592 649.502 100.168H645.11C645.15 100.84 645.35 101.344 645.71 101.68C646.07 102.008 646.606 102.172 647.318 102.172C647.798 102.172 648.21 102.104 648.554 101.968C648.898 101.832 649.186 101.684 649.418 101.524V102.472ZM646.946 97.588C646.49 97.588 646.098 97.728 645.77 98.008C645.442 98.288 645.234 98.712 645.146 99.28H648.494C648.526 98.704 648.394 98.28 648.098 98.008C647.802 97.728 647.418 97.588 646.946 97.588ZM654.987 100.24H651.975V103H650.919V96.772H651.975V99.34H654.987V96.772H656.043V103H654.987V100.24ZM658.831 101.56L662.155 96.772H663.223V103H662.167V98.224L658.855 103H657.775V96.772H658.831V101.56ZM669.903 102.472C669.815 102.536 669.707 102.604 669.579 102.676C669.451 102.748 669.295 102.82 669.111 102.892C668.927 102.956 668.719 103.008 668.487 103.048C668.255 103.096 667.995 103.12 667.707 103.12C666.659 103.12 665.863 102.836 665.319 102.268C664.775 101.7 664.503 100.904 664.503 99.88C664.503 99.376 664.575 98.924 664.719 98.524C664.871 98.124 665.079 97.788 665.343 97.516C665.607 97.236 665.919 97.024 666.279 96.88C666.639 96.728 667.031 96.652 667.455 96.652C667.903 96.652 668.303 96.728 668.655 96.88C669.007 97.032 669.295 97.256 669.519 97.552C669.751 97.848 669.907 98.216 669.987 98.656C670.075 99.088 670.075 99.592 669.987 100.168H665.595C665.635 100.84 665.835 101.344 666.195 101.68C666.555 102.008 667.091 102.172 667.803 102.172C668.283 102.172 668.695 102.104 669.039 101.968C669.383 101.832 669.671 101.684 669.903 101.524V102.472ZM667.431 97.588C666.975 97.588 666.583 97.728 666.255 98.008C665.927 98.288 665.719 98.712 665.631 99.28H668.979C669.011 98.704 668.879 98.28 668.583 98.008C668.287 97.728 667.903 97.588 667.431 97.588Z" fill="#18123D"/>
<path d="M170 99L160 93.2265V104.774L170 99ZM161 98H125V100H161V98Z" fill="#4E496B"/>
<path d="M575 99L565 93.2265V104.774L575 99ZM566 98H530V100H566V98Z" fill="#4E496B"/>
</g>
<defs>
<filter id="filter0_d_1_8" x="162.832" y="-0.16784" width="374.336" height="198.336" filterUnits="userSpaceOnUse" color-interpolation-filters="sRGB">
<feFlood flood-opacity="0" result="BackgroundImageFix"/>
<feColorMatrix in="SourceAlpha" type="matrix" values="0 0 0 0 0 0 0 0 0 0 0 0 0 0 0 0 0 0 127 0" result="hardAlpha"/>
<feOffset/>
<feGaussianBlur stdDeviation="3.58392"/>
<feColorMatrix type="matrix" values="0 0 0 0 0.592157 0 0 0 0 0.74902 0 0 0 0 0.905882 0 0 0 0.4 0"/>
<feBlend mode="normal" in2="BackgroundImageFix" result="effect1_dropShadow_1_8"/>
<feBlend mode="normal" in="SourceGraphic" in2="effect1_dropShadow_1_8" result="shape"/>
</filter>
<filter id="filter1_d_1_8" x="567.832" y="17.8322" width="134.336" height="162.336" filterUnits="userSpaceOnUse" color-interpolation-filters="sRGB">
<feFlood flood-opacity="0" result="BackgroundImageFix"/>
<feColorMatrix in="SourceAlpha" type="matrix" values="0 0 0 0 0 0 0 0 0 0 0 0 0 0 0 0 0 0 127 0" result="hardAlpha"/>
<feOffset/>
<feGaussianBlur stdDeviation="3.58392"/>
<feColorMatrix type="matrix" values="0 0 0 0 0.592157 0 0 0 0 0.74902 0 0 0 0 0.905882 0 0 0 0.4 0"/>
<feBlend mode="normal" in2="BackgroundImageFix" result="effect1_dropShadow_1_8"/>
<feBlend mode="normal" in="SourceGraphic" in2="effect1_dropShadow_1_8" result="shape"/>
</filter>
<clipPath id="clip0_1_8">
<rect width="701" height="199" fill="white"/>
</clipPath>
</defs>
</svg>
