<svg width='14' height='14' xmlns='http://www.w3.org/2000/svg'>

<defs>
  <g id='icon_plus'>
    <path d="M328 544h152v152c0 4.4 3.6 8 8 8h48c4.4 0 8-3.6 8-8V544h152c4.4 0 8-3.6 8-8v-48c0-4.4-3.6-8-8-8H544V328c0-4.4-3.6-8-8-8h-48c-4.4 0-8 3.6-8 8v152H328c-4.4 0-8 3.6-8 8v48c0 4.4 3.6 8 8 8"/>
    <path d="M880 112H144c-17.7 0-32 14.3-32 32v736c0 17.7 14.3 32 32 32h736c17.7 0 32-14.3 32-32V144c0-17.7-14.3-32-32-32m-40 728H184V184h656z"/>
  </g>
</defs>

<use href='#icon_plus' class='icon_plus' transform='translate(0 0) scale(0.014, 0.014)' fill='#393939'/>

</svg>
