<svg xmlns="http://www.w3.org/2000/svg" width="230" height="230" fill="none">
    <path fill="#BECFE0" fill-opacity=".9" fill-rule="evenodd" d="M169.001 51.666c5.523 0 10 4.477 10 10v21.017l18.197-10.506c4.783-2.762 10.899-1.123 13.66 3.66 2.761 4.783 1.123 10.899-3.66 13.66l-18.197 10.507 18.198 10.506c4.783 2.762 6.421 8.878 3.66 13.661-2.762 4.782-8.877 6.421-13.66 3.66l-18.198-10.506v21.008c0 5.523-4.477 10-10 10-5.522 0-10-4.477-10-10v-21.009l-18.199 10.507c-4.782 2.761-10.898 1.122-13.66-3.66-2.761-4.783-1.122-10.899 3.66-13.661l18.199-10.506-18.198-10.507c-4.783-2.761-6.421-8.877-3.66-13.66 2.762-4.783 8.877-6.422 13.66-3.66l18.198 10.507V61.666c0-5.523 4.478-10 10-10Z" clip-rule="evenodd"/>
    <path fill="#262626" fill-rule="evenodd" d="M171.523 95.922a11.003 11.003 0 0 1 1.099 8.347l-13.208 49.291c-1.572 5.868-7.604 9.351-13.472 7.778l-25.356-6.794a44.998 44.998 0 0 1-.53 1.929l25.368 6.797c6.935 1.858 14.064-2.257 15.922-9.192l13.207-49.291c.893-3.33.426-6.879-1.298-9.865L155.598 64.34a12.999 12.999 0 0 0-7.894-6.057l-29.972-8.031c-6.935-1.858-14.063 2.257-15.922 9.192l-11.328 42.277c.64.192 1.276.398 1.905.618l11.355-42.377c1.573-5.868 7.604-9.35 13.472-7.778l29.973 8.03a11 11 0 0 1 6.679 5.126l17.657 30.582Z" clip-rule="evenodd"/>
    <path fill="#FF5958" fill-opacity=".9" d="M35.388 155.273c-6.29-23.472 7.64-47.599 31.113-53.889 23.472-6.289 47.599 7.641 53.889 31.113 6.289 23.473-7.641 47.599-31.113 53.889-23.473 6.289-47.6-7.64-53.889-31.113Z"/>
    <path stroke="#262626" stroke-width="2" d="M60.636 117.734c53.586-33.459-26.868-81.505-36.557-61.318-11.802 24.59 99.395 51.098 128.865-26.3"/>
    <mask id="b" width="89" height="89" x="33" y="99" maskUnits="userSpaceOnUse" style="mask-type:alpha">
        <path fill="#FF5958" fill-opacity=".9" d="M35.388 155.273c-6.29-23.472 7.64-47.599 31.113-53.889 23.472-6.289 47.599 7.641 53.889 31.113 6.289 23.473-7.641 47.599-31.113 53.889-23.473 6.289-47.6-7.64-53.889-31.113Z"/>
    </mask>
    <g filter="url(#a)" mask="url(#b)">
        <path stroke="#262626" stroke-linecap="round" stroke-linejoin="round" stroke-opacity=".6" stroke-width="2" d="M172.389 95.422a12.004 12.004 0 0 1 1.199 9.106l-13.208 49.291c-1.715 6.401-8.295 10.2-14.697 8.485L91.591 147.81c-6.401-1.715-10.2-8.295-8.485-14.697l19.67-73.41c1.716-6.402 8.296-10.2 14.697-8.485l29.972 8.03a11.998 11.998 0 0 1 7.287 5.592l17.657 30.582Z"/>
    </g>
    <g filter="url(#c)">
        <path fill="#fff" fill-opacity=".72" fill-rule="evenodd" d="M80.866 130.432a6.359 6.359 0 1 1-12.284 3.29 6.359 6.359 0 0 1 12.284-3.29Zm4.817-1.291c1.621 6.052-1.97 12.273-8.022 13.894-6.052 1.622-12.273-1.97-13.895-8.022-1.621-6.052 1.97-12.272 8.022-13.894 6.052-1.622 12.273 1.97 13.895 8.022Zm-21.346 32.565c-.154-.577-.009-2.61 2.877-5.555 2.665-2.721 6.917-5.33 12.158-6.734 5.24-1.404 10.227-1.271 13.896-.247 3.971 1.108 5.114 2.796 5.268 3.372a3.116 3.116 0 0 1-2.204 3.817l-28.178 7.55a3.116 3.116 0 0 1-3.817-2.203ZM78.081 144.6c-12.054 3.23-20.238 12.134-18.56 18.396a8.103 8.103 0 0 0 9.924 5.73l28.178-7.55a8.104 8.104 0 0 0 5.73-9.925c-1.678-6.261-13.218-9.881-25.272-6.651Z" clip-rule="evenodd"/>
    </g>
    <defs>
        <filter id="a" width="113.303" height="133.91" x="71.693" y="39.806" color-interpolation-filters="sRGB" filterUnits="userSpaceOnUse">
            <feFlood flood-opacity="0" result="BackgroundImageFix"/>
            <feBlend in="SourceGraphic" in2="BackgroundImageFix" result="shape"/>
            <feGaussianBlur result="effect1_foregroundBlur_1301_31085" stdDeviation="5"/>
        </filter>
        <filter id="c" width="73.289" height="73.288" x="41.018" y="106.391" color-interpolation-filters="sRGB" filterUnits="userSpaceOnUse">
            <feFlood flood-opacity="0" result="BackgroundImageFix"/>
            <feBlend in="SourceGraphic" in2="BackgroundImageFix" result="shape"/>
            <feColorMatrix in="SourceAlpha" result="hardAlpha" values="0 0 0 0 0 0 0 0 0 0 0 0 0 0 0 0 0 0 127 0"/>
            <feOffset/>
            <feGaussianBlur stdDeviation="1.917"/>
            <feComposite in2="hardAlpha" k2="-1" k3="1" operator="arithmetic"/>
            <feColorMatrix values="0 0 0 0 1 0 0 0 0 1 0 0 0 0 1 0 0 0 0.8 0"/>
            <feBlend in2="shape" result="effect1_innerShadow_1301_31085"/>
        </filter>
    </defs>
</svg>