<svg width="128" height="128" viewBox="0 0 128 128" fill="none" xmlns="http://www.w3.org/2000/svg">
<circle cx="64" cy="64" r="64" fill="#2399FF"/>
<path fill-rule="evenodd" clip-rule="evenodd" d="M36.9605 31.9503C27.2976 31.9503 19.4644 34.7009 19.4644 39.8607V66.6667C19.4644 71.8266 27.2976 74.5772 36.9605 74.5772C40.3464 74.5772 43.5076 74.2395 46.1859 73.5787V95.933C46.1859 101.093 54.0192 103.843 63.682 103.843C73.3449 103.843 81.1781 101.093 81.1781 95.933V73.4132C83.986 74.183 87.3817 74.5772 91.0396 74.5772C100.702 74.5772 108.536 71.8266 108.536 66.6667V39.8607C108.536 34.7009 100.702 31.9503 91.0396 31.9503C81.3768 31.9503 73.5435 34.7009 73.5435 39.8607V49.7645H54.4566V39.8607C54.4566 34.7009 46.6233 31.9503 36.9605 31.9503ZM81.1781 70.8985L90.7217 58.0354H83.7233L78.7553 64.7567C80.2948 65.9331 81.1781 67.3942 81.1781 69.127V70.8985ZM73.5435 62.3805V55.4905H54.4566V62.215C57.1349 61.5542 60.2961 61.2165 63.682 61.2165C67.3399 61.2165 70.7357 61.6107 73.5435 62.3805ZM48.609 64.7565L43.6412 58.0354H36.6428L46.1859 70.8979V69.127C46.1859 67.3941 47.0694 65.9329 48.609 64.7565ZM79.8368 36.9698C77.0781 38.1699 76.7249 39.3421 76.7249 39.9031C76.7249 40.464 77.0781 41.6363 79.8368 42.8363C82.4751 43.984 86.4067 44.6747 91.0399 44.6747C95.673 44.6747 99.6046 43.984 102.243 42.8363C105.002 41.6363 105.355 40.464 105.355 39.9031C105.355 39.3421 105.002 38.1699 102.243 36.9698C99.6046 35.8221 95.673 35.1314 91.0399 35.1314C86.4067 35.1314 82.4751 35.8221 79.8368 36.9698ZM22.6457 39.9031C22.6457 39.3421 22.999 38.1699 25.7576 36.9698C28.396 35.8221 32.3275 35.1314 36.9607 35.1314C41.5939 35.1314 45.5254 35.8221 48.1638 36.9698C50.9224 38.1699 51.2757 39.3421 51.2757 39.9031C51.2757 40.4641 50.9224 41.6363 48.1638 42.8363C45.5254 43.984 41.5939 44.6747 36.9607 44.6747C32.3275 44.6747 28.396 43.984 25.7576 42.8363C22.999 41.6363 22.6457 40.4641 22.6457 39.9031ZM52.4788 66.2361C49.7202 67.4361 49.3669 68.6083 49.3669 69.1693C49.3669 69.7303 49.7202 70.9025 52.4788 72.1026C55.1172 73.2503 59.0487 73.941 63.6819 73.941C68.3151 73.941 72.2466 73.2503 74.885 72.1026C77.6436 70.9025 77.9969 69.7303 77.9969 69.1693C77.9969 68.6083 77.6436 67.4361 74.885 66.2361C72.2466 65.0884 68.3151 64.3976 63.6819 64.3976C59.0487 64.3976 55.1172 65.0884 52.4788 66.2361Z" fill="white"/>
</svg>
