<?xml version="1.0" encoding="UTF-8" standalone="no"?>
<!DOCTYPE svg PUBLIC "-//W3C//DTD SVG 1.1//EN"
 "http://www.w3.org/Graphics/SVG/1.1/DTD/svg11.dtd">
<!-- Generated by graphviz version 13.0.1 (0)
 -->
<!-- Pages: 1 -->
<svg width="433pt" height="404pt"
 viewBox="0.00 0.00 433.00 404.00" xmlns="http://www.w3.org/2000/svg" xmlns:xlink="http://www.w3.org/1999/xlink">
<g id="graph0" class="graph" transform="scale(1 1) rotate(0) translate(4 400)">
<polygon fill="white" stroke="none" points="-4,4 -4,-400 429.23,-400 429.23,4 -4,4"/>
<!-- 0 -->
<g id="node1" class="node">
<title>0</title>
<polygon fill="none" stroke="black" points="239.5,-396 123.75,-396 123.75,-360 239.5,-360 239.5,-396"/>
<text xml:space="preserve" text-anchor="middle" x="181.62" y="-372.95" font-family="Times,serif" font-size="14.00">temporal&#45;sdk&#45;core</text>
</g>
<!-- 1 -->
<g id="node2" class="node">
<title>1</title>
<polygon fill="none" stroke="black" points="57.25,-324 0,-324 0,-288 57.25,-288 57.25,-324"/>
<text xml:space="preserve" text-anchor="middle" x="28.62" y="-300.95" font-family="Times,serif" font-size="14.00">rustfsm</text>
</g>
<!-- 0&#45;&gt;1 -->
<g id="edge1" class="edge">
<title>0&#45;&gt;1</title>
<path fill="none" stroke="black" d="M143.41,-359.52C120.38,-348.98 91.12,-335.59 67.91,-324.97"/>
<polygon fill="black" stroke="black" points="69.64,-321.91 59.09,-320.94 66.72,-328.28 69.64,-321.91"/>
</g>
<!-- 3 -->
<g id="node3" class="node">
<title>3</title>
<polygon fill="none" stroke="black" points="289.25,-180 190,-180 190,-144 289.25,-144 289.25,-180"/>
<text xml:space="preserve" text-anchor="middle" x="239.62" y="-156.95" font-family="Times,serif" font-size="14.00">temporal&#45;client</text>
</g>
<!-- 0&#45;&gt;3 -->
<g id="edge2" class="edge">
<title>0&#45;&gt;3</title>
<path fill="none" stroke="black" d="M186.27,-359.85C196.24,-323.07 219.76,-236.29 231.97,-191.24"/>
<polygon fill="black" stroke="black" points="235.32,-192.26 234.56,-181.69 228.56,-190.43 235.32,-192.26"/>
</g>
<!-- 4 -->
<g id="node4" class="node">
<title>4</title>
<polygon fill="none" stroke="black" points="346,-108 209.25,-108 209.25,-72 346,-72 346,-108"/>
<text xml:space="preserve" text-anchor="middle" x="277.62" y="-84.95" font-family="Times,serif" font-size="14.00">temporal&#45;sdk&#45;core&#45;api</text>
</g>
<!-- 0&#45;&gt;4 -->
<g id="edge4" class="edge">
<title>0&#45;&gt;4</title>
<path fill="none" stroke="black" d="M239.96,-371.52C300.11,-364.52 387.94,-350.08 408.62,-324 463.57,-254.75 364.22,-159.56 309.77,-115.37"/>
<polygon fill="black" stroke="black" points="312,-112.66 301.99,-109.17 307.63,-118.14 312,-112.66"/>
</g>
<!-- 5 -->
<g id="node5" class="node">
<title>5</title>
<polygon fill="none" stroke="black" points="258.62,-36 104.62,-36 104.62,0 258.62,0 258.62,-36"/>
<text xml:space="preserve" text-anchor="middle" x="181.62" y="-12.95" font-family="Times,serif" font-size="14.00">temporal&#45;sdk&#45;core&#45;protos</text>
</g>
<!-- 0&#45;&gt;5 -->
<g id="edge5" class="edge">
<title>0&#45;&gt;5</title>
<path fill="none" stroke="black" d="M159.84,-359.83C131.52,-335.39 85.62,-287.67 85.62,-235 85.62,-235 85.62,-235 85.62,-161 85.62,-113.27 123.32,-69.6 151.46,-43.65"/>
<polygon fill="black" stroke="black" points="153.58,-46.45 158.71,-37.18 148.92,-41.23 153.58,-46.45"/>
</g>
<!-- 6 -->
<g id="node6" class="node">
<title>6</title>
<polygon fill="none" stroke="black" points="202.62,-252 114.62,-252 114.62,-216 202.62,-216 202.62,-252"/>
<text xml:space="preserve" text-anchor="middle" x="158.62" y="-228.95" font-family="Times,serif" font-size="14.00">temporal&#45;sdk</text>
</g>
<!-- 0&#45;&gt;6 -->
<g id="edge3" class="edge">
<title>0&#45;&gt;6</title>
<path fill="none" stroke="blue" d="M174.19,-359.59C167.81,-335.61 160.46,-292.14 157.7,-263.42"/>
<polygon fill="blue" stroke="blue" points="161.2,-263.32 156.93,-253.62 154.22,-263.86 161.2,-263.32"/>
</g>
<!-- 7 -->
<g id="node7" class="node">
<title>7</title>
<polygon fill="none" stroke="black" points="400,-324 233.25,-324 233.25,-288 400,-288 400,-324"/>
<text xml:space="preserve" text-anchor="middle" x="316.62" y="-300.95" font-family="Times,serif" font-size="14.00">temporal&#45;sdk&#45;core&#45;test&#45;utils</text>
</g>
<!-- 0&#45;&gt;7 -->
<g id="edge6" class="edge">
<title>0&#45;&gt;7</title>
<path fill="none" stroke="blue" d="M209.41,-359.52C226.09,-350.39 247.7,-339.11 267.17,-329.35"/>
<polygon fill="blue" stroke="blue" points="268.67,-332.52 276.07,-324.93 265.56,-326.25 268.67,-332.52"/>
</g>
<!-- 3&#45;&gt;4 -->
<g id="edge7" class="edge">
<title>3&#45;&gt;4</title>
<path fill="none" stroke="black" d="M249.02,-143.7C253.21,-135.98 258.24,-126.71 262.91,-118.11"/>
<polygon fill="black" stroke="black" points="265.92,-119.89 267.62,-109.43 259.77,-116.55 265.92,-119.89"/>
</g>
<!-- 3&#45;&gt;5 -->
<g id="edge8" class="edge">
<title>3&#45;&gt;5</title>
<path fill="none" stroke="black" d="M223.84,-143.56C215.76,-133.76 206.43,-120.92 200.62,-108 192.01,-88.82 187.21,-65.53 184.6,-47.59"/>
<polygon fill="black" stroke="black" points="188.1,-47.37 183.34,-37.9 181.16,-48.27 188.1,-47.37"/>
</g>
<!-- 4&#45;&gt;5 -->
<g id="edge9" class="edge">
<title>4&#45;&gt;5</title>
<path fill="none" stroke="black" d="M253.89,-71.7C242.01,-63.03 227.43,-52.4 214.49,-42.96"/>
<polygon fill="black" stroke="black" points="216.78,-40.3 206.64,-37.24 212.66,-45.96 216.78,-40.3"/>
</g>
<!-- 6&#45;&gt;0 -->
<g id="edge11" class="edge">
<title>6&#45;&gt;0</title>
<path fill="none" stroke="black" d="M165.98,-252.11C172.36,-275.92 179.72,-319.37 182.51,-348.22"/>
<polygon fill="black" stroke="black" points="179.02,-348.39 183.3,-358.08 186,-347.83 179.02,-348.39"/>
</g>
<!-- 6&#45;&gt;3 -->
<g id="edge10" class="edge">
<title>6&#45;&gt;3</title>
<path fill="none" stroke="black" d="M178.65,-215.7C188.38,-207.28 200.26,-197.02 210.94,-187.79"/>
<polygon fill="black" stroke="black" points="213.13,-190.52 218.41,-181.34 208.55,-185.23 213.13,-190.52"/>
</g>
<!-- 6&#45;&gt;4 -->
<g id="edge12" class="edge">
<title>6&#45;&gt;4</title>
<path fill="none" stroke="black" d="M158.87,-215.84C159.98,-196.51 164.4,-165.05 180.62,-144 190.33,-131.4 203.92,-121.4 217.86,-113.65"/>
<polygon fill="black" stroke="black" points="219.41,-116.79 226.68,-109.08 216.19,-110.57 219.41,-116.79"/>
</g>
<!-- 6&#45;&gt;5 -->
<g id="edge13" class="edge">
<title>6&#45;&gt;5</title>
<path fill="none" stroke="black" d="M158.28,-215.56C158.09,-197.59 158.28,-168.77 160.62,-144 163.8,-110.53 170.66,-72.48 175.68,-47.24"/>
<polygon fill="black" stroke="black" points="179.05,-48.27 177.61,-37.77 172.19,-46.87 179.05,-48.27"/>
</g>
<!-- 7&#45;&gt;0 -->
<g id="edge16" class="edge">
<title>7&#45;&gt;0</title>
<path fill="none" stroke="black" d="M289.25,-324.26C272.65,-333.36 251.07,-344.62 231.55,-354.41"/>
<polygon fill="black" stroke="black" points="230.03,-351.26 222.63,-358.84 233.15,-357.53 230.03,-351.26"/>
</g>
<!-- 7&#45;&gt;3 -->
<g id="edge14" class="edge">
<title>7&#45;&gt;3</title>
<path fill="none" stroke="black" d="M307.18,-287.59C293.95,-263.18 269.77,-218.58 254.21,-189.89"/>
<polygon fill="black" stroke="black" points="257.47,-188.56 249.62,-181.44 251.32,-191.9 257.47,-188.56"/>
</g>
<!-- 7&#45;&gt;4 -->
<g id="edge17" class="edge">
<title>7&#45;&gt;4</title>
<path fill="none" stroke="black" d="M316.2,-287.82C315.13,-258.08 311.41,-195.31 298.62,-144 296.54,-135.64 293.45,-126.85 290.27,-118.87"/>
<polygon fill="black" stroke="black" points="293.51,-117.54 286.41,-109.68 287.06,-120.25 293.51,-117.54"/>
</g>
<!-- 7&#45;&gt;5 -->
<g id="edge18" class="edge">
<title>7&#45;&gt;5</title>
<path fill="none" stroke="black" d="M327.2,-287.78C351.21,-246.21 404.1,-138.9 354.62,-72 334.91,-45.34 302.04,-31.66 270.22,-24.78"/>
<polygon fill="black" stroke="black" points="271,-21.36 260.51,-22.9 269.67,-28.24 271,-21.36"/>
</g>
<!-- 7&#45;&gt;6 -->
<g id="edge15" class="edge">
<title>7&#45;&gt;6</title>
<path fill="none" stroke="black" d="M277.16,-287.52C256.25,-278.25 230.36,-266.78 208.12,-256.93"/>
<polygon fill="black" stroke="black" points="209.8,-253.85 199.24,-252.99 206.97,-260.25 209.8,-253.85"/>
</g>
</g>
</svg>
