<svg width="701" height="199" viewBox="0 0 701 199" fill="none" xmlns="http://www.w3.org/2000/svg">
<g clip-path="url(#clip0_114_404)">
<g filter="url(#filter0_d_114_404)">
<path d="M520.293 191H181.707C175.794 191 171 186.206 171 180.293V11.9433C171 9.2132 173.213 7 175.943 7H520.293C526.206 7 531 11.7938 531 17.7072V180.293C531 186.206 526.206 191 520.293 191Z" fill="white"/>
</g>
<path d="M302.813 45.576L306.541 37.528H308.493V49H306.973V39.768L303.453 47.24L302.701 47.256H302.029L302.045 47.24L298.573 39.64V49H297.149V37.528H299.245L302.813 45.576ZM317.58 48.296C317.463 48.3813 317.319 48.472 317.148 48.568C316.978 48.664 316.77 48.76 316.524 48.856C316.279 48.9413 316.002 49.0107 315.692 49.064C315.383 49.128 315.036 49.16 314.652 49.16C313.255 49.16 312.194 48.7813 311.468 48.024C310.743 47.2667 310.38 46.2053 310.38 44.84C310.38 44.168 310.476 43.5653 310.668 43.032C310.871 42.4987 311.148 42.0507 311.5 41.688C311.852 41.3147 312.268 41.032 312.748 40.84C313.228 40.6373 313.751 40.536 314.316 40.536C314.914 40.536 315.447 40.6373 315.916 40.84C316.386 41.0427 316.77 41.3413 317.068 41.736C317.378 42.1307 317.586 42.6213 317.692 43.208C317.81 43.784 317.81 44.456 317.692 45.224H311.836C311.89 46.12 312.156 46.792 312.636 47.24C313.116 47.6773 313.831 47.896 314.78 47.896C315.42 47.896 315.97 47.8053 316.428 47.624C316.887 47.4427 317.271 47.2453 317.58 47.032V48.296ZM314.284 41.784C313.676 41.784 313.154 41.9707 312.716 42.344C312.279 42.7173 312.002 43.2827 311.884 44.04H316.348C316.391 43.272 316.215 42.7067 315.82 42.344C315.426 41.9707 314.914 41.784 314.284 41.784ZM322.113 49.16C321.675 49.16 321.286 49.1227 320.945 49.048C320.614 48.984 320.321 48.904 320.065 48.808C319.819 48.7013 319.611 48.5947 319.441 48.488C319.27 48.3707 319.137 48.2693 319.041 48.184V46.92C319.147 47.0267 319.291 47.144 319.473 47.272C319.654 47.3893 319.873 47.5013 320.129 47.608C320.385 47.7147 320.673 47.8053 320.993 47.88C321.323 47.944 321.691 47.976 322.097 47.976C322.694 47.976 323.169 47.88 323.521 47.688C323.873 47.496 324.049 47.1707 324.049 46.712C324.049 46.4667 323.99 46.2693 323.873 46.12C323.766 45.9707 323.617 45.8533 323.425 45.768C323.233 45.672 323.009 45.5973 322.753 45.544C322.507 45.4907 322.246 45.4373 321.969 45.384C321.617 45.3093 321.27 45.2293 320.929 45.144C320.587 45.048 320.278 44.9147 320.001 44.744C319.723 44.5627 319.499 44.3333 319.329 44.056C319.158 43.768 319.073 43.3947 319.073 42.936C319.073 42.1893 319.361 41.6027 319.937 41.176C320.523 40.7493 321.339 40.536 322.385 40.536C322.971 40.536 323.489 40.5947 323.937 40.712C324.395 40.8293 324.747 40.9573 324.993 41.096V42.36C324.715 42.1787 324.369 42.0293 323.953 41.912C323.547 41.784 323.041 41.72 322.433 41.72C321.803 41.72 321.318 41.8053 320.977 41.976C320.646 42.1467 320.481 42.456 320.481 42.904C320.481 43.128 320.529 43.3093 320.625 43.448C320.721 43.576 320.849 43.6827 321.009 43.768C321.179 43.8427 321.371 43.9013 321.585 43.944C321.798 43.9867 322.022 44.0347 322.257 44.088C322.619 44.1627 322.993 44.2427 323.377 44.328C323.761 44.4133 324.102 44.5467 324.401 44.728C324.71 44.9093 324.961 45.1547 325.153 45.464C325.355 45.7627 325.457 46.168 325.457 46.68C325.457 47.16 325.361 47.56 325.169 47.88C324.977 48.2 324.721 48.456 324.401 48.648C324.091 48.8293 323.734 48.9573 323.329 49.032C322.934 49.1173 322.529 49.16 322.113 49.16ZM329.847 49.16C329.41 49.16 329.02 49.1227 328.679 49.048C328.348 48.984 328.055 48.904 327.799 48.808C327.554 48.7013 327.346 48.5947 327.175 48.488C327.004 48.3707 326.871 48.2693 326.775 48.184V46.92C326.882 47.0267 327.026 47.144 327.207 47.272C327.388 47.3893 327.607 47.5013 327.863 47.608C328.119 47.7147 328.407 47.8053 328.727 47.88C329.058 47.944 329.426 47.976 329.831 47.976C330.428 47.976 330.903 47.88 331.255 47.688C331.607 47.496 331.783 47.1707 331.783 46.712C331.783 46.4667 331.724 46.2693 331.607 46.12C331.5 45.9707 331.351 45.8533 331.159 45.768C330.967 45.672 330.743 45.5973 330.487 45.544C330.242 45.4907 329.98 45.4373 329.703 45.384C329.351 45.3093 329.004 45.2293 328.663 45.144C328.322 45.048 328.012 44.9147 327.735 44.744C327.458 44.5627 327.234 44.3333 327.063 44.056C326.892 43.768 326.807 43.3947 326.807 42.936C326.807 42.1893 327.095 41.6027 327.671 41.176C328.258 40.7493 329.074 40.536 330.119 40.536C330.706 40.536 331.223 40.5947 331.671 40.712C332.13 40.8293 332.482 40.9573 332.727 41.096V42.36C332.45 42.1787 332.103 42.0293 331.687 41.912C331.282 41.784 330.775 41.72 330.167 41.72C329.538 41.72 329.052 41.8053 328.711 41.976C328.38 42.1467 328.215 42.456 328.215 42.904C328.215 43.128 328.263 43.3093 328.359 43.448C328.455 43.576 328.583 43.6827 328.743 43.768C328.914 43.8427 329.106 43.9013 329.319 43.944C329.532 43.9867 329.756 44.0347 329.991 44.088C330.354 44.1627 330.727 44.2427 331.111 44.328C331.495 44.4133 331.836 44.5467 332.135 44.728C332.444 44.9093 332.695 45.1547 332.887 45.464C333.09 45.7627 333.191 46.168 333.191 46.68C333.191 47.16 333.095 47.56 332.903 47.88C332.711 48.2 332.455 48.456 332.135 48.648C331.826 48.8293 331.468 48.9573 331.063 49.032C330.668 49.1173 330.263 49.16 329.847 49.16ZM339.711 47.416C339.615 47.608 339.493 47.8107 339.343 48.024C339.194 48.2267 339.007 48.4133 338.783 48.584C338.559 48.7547 338.293 48.8933 337.983 49C337.685 49.1067 337.333 49.16 336.927 49.16C336.181 49.16 335.578 48.952 335.119 48.536C334.661 48.1093 334.431 47.5013 334.431 46.712C334.431 45.8053 334.746 45.1387 335.375 44.712C336.015 44.2853 336.922 44.072 338.095 44.072H339.647V43.384C339.647 42.808 339.498 42.3973 339.199 42.152C338.901 41.9067 338.389 41.784 337.663 41.784C337.151 41.784 336.666 41.8693 336.207 42.04C335.749 42.2 335.338 42.3867 334.975 42.6V41.336C335.274 41.1547 335.674 40.9787 336.175 40.808C336.687 40.6267 337.247 40.536 337.855 40.536C338.901 40.536 339.695 40.7547 340.239 41.192C340.783 41.6187 341.055 42.2853 341.055 43.192V47.656C341.055 47.752 341.055 47.864 341.055 47.992C341.066 48.1093 341.071 48.232 341.071 48.36C341.082 48.488 341.093 48.6107 341.103 48.728C341.114 48.8347 341.125 48.9253 341.135 49H339.855C339.823 48.8507 339.791 48.6427 339.759 48.376C339.738 48.0987 339.727 47.8587 339.727 47.656L339.711 47.416ZM337.231 47.896C337.669 47.896 338.042 47.8053 338.351 47.624C338.661 47.4427 338.911 47.2347 339.103 47C339.295 46.7547 339.434 46.52 339.519 46.296C339.605 46.0613 339.647 45.896 339.647 45.8V45.192H338.239C337.397 45.192 336.783 45.3147 336.399 45.56C336.026 45.7947 335.839 46.152 335.839 46.632C335.839 47.0053 335.951 47.3093 336.175 47.544C336.399 47.7787 336.751 47.896 337.231 47.896ZM350.405 48.296C350.405 48.8293 350.325 49.3147 350.165 49.752C350.016 50.2 349.771 50.5787 349.429 50.888C349.099 51.1973 348.667 51.4373 348.133 51.608C347.611 51.7787 346.976 51.864 346.229 51.864C345.824 51.864 345.467 51.8427 345.157 51.8C344.848 51.7573 344.576 51.6987 344.341 51.624C344.117 51.56 343.925 51.4853 343.765 51.4C343.605 51.3253 343.472 51.2507 343.365 51.176V49.912C343.536 50.008 343.712 50.0933 343.893 50.168C344.085 50.2533 344.293 50.328 344.517 50.392C344.741 50.456 344.992 50.504 345.269 50.536C345.557 50.5787 345.883 50.6 346.245 50.6C347.269 50.6 347.984 50.408 348.389 50.024C348.795 49.64 348.997 49.0693 348.997 48.312V47.032C348.752 47.5227 348.405 47.9173 347.957 48.216C347.52 48.5147 346.976 48.664 346.325 48.664C345.835 48.664 345.365 48.5787 344.917 48.408C344.48 48.2373 344.091 47.9867 343.749 47.656C343.419 47.3147 343.152 46.8933 342.949 46.392C342.757 45.88 342.661 45.288 342.661 44.616C342.661 43.9333 342.757 43.3413 342.949 42.84C343.152 42.328 343.419 41.9013 343.749 41.56C344.091 41.2187 344.485 40.9627 344.933 40.792C345.381 40.6213 345.856 40.536 346.357 40.536C347.019 40.536 347.573 40.6853 348.021 40.984C348.48 41.2827 348.837 41.688 349.093 42.2L349.109 42.024C349.109 41.832 349.12 41.6027 349.141 41.336C349.163 41.0587 349.184 40.8453 349.205 40.696H350.485C350.464 40.8453 350.443 41.0587 350.421 41.336C350.411 41.6133 350.405 41.8427 350.405 42.024V48.296ZM346.581 47.4C346.933 47.4 347.253 47.3467 347.541 47.24C347.84 47.1227 348.096 46.9467 348.309 46.712C348.533 46.4773 348.704 46.1893 348.821 45.848C348.949 45.496 349.013 45.0853 349.013 44.616C349.013 43.6667 348.779 42.9573 348.309 42.488C347.851 42.0187 347.269 41.784 346.565 41.784C346.213 41.784 345.883 41.8427 345.573 41.96C345.275 42.0773 345.013 42.2533 344.789 42.488C344.576 42.7227 344.405 43.0213 344.277 43.384C344.149 43.736 344.085 44.1467 344.085 44.616C344.085 45.0853 344.149 45.496 344.277 45.848C344.405 46.1893 344.581 46.4773 344.805 46.712C345.029 46.936 345.291 47.1067 345.589 47.224C345.899 47.3413 346.229 47.4 346.581 47.4ZM359.299 48.296C359.182 48.3813 359.038 48.472 358.867 48.568C358.696 48.664 358.488 48.76 358.243 48.856C357.998 48.9413 357.72 49.0107 357.411 49.064C357.102 49.128 356.755 49.16 356.371 49.16C354.974 49.16 353.912 48.7813 353.187 48.024C352.462 47.2667 352.099 46.2053 352.099 44.84C352.099 44.168 352.195 43.5653 352.387 43.032C352.59 42.4987 352.867 42.0507 353.219 41.688C353.571 41.3147 353.987 41.032 354.467 40.84C354.947 40.6373 355.47 40.536 356.035 40.536C356.632 40.536 357.166 40.6373 357.635 40.84C358.104 41.0427 358.488 41.3413 358.787 41.736C359.096 42.1307 359.304 42.6213 359.411 43.208C359.528 43.784 359.528 44.456 359.411 45.224H353.555C353.608 46.12 353.875 46.792 354.355 47.24C354.835 47.6773 355.55 47.896 356.499 47.896C357.139 47.896 357.688 47.8053 358.147 47.624C358.606 47.4427 358.99 47.2453 359.299 47.032V48.296ZM356.003 41.784C355.395 41.784 354.872 41.9707 354.435 42.344C353.998 42.7173 353.72 43.2827 353.603 44.04H358.067C358.11 43.272 357.934 42.7067 357.539 42.344C357.144 41.9707 356.632 41.784 356.003 41.784ZM371.987 51.832H370.579V47.496C370.323 48.008 369.966 48.4133 369.507 48.712C369.059 49.0107 368.499 49.16 367.827 49.16C367.326 49.16 366.851 49.0747 366.403 48.904C365.955 48.7227 365.56 48.456 365.219 48.104C364.878 47.7413 364.606 47.2933 364.403 46.76C364.2 46.216 364.099 45.576 364.099 44.84C364.099 44.1147 364.2 43.4853 364.403 42.952C364.606 42.408 364.878 41.96 365.219 41.608C365.56 41.2453 365.955 40.9787 366.403 40.808C366.862 40.6267 367.342 40.536 367.843 40.536C368.494 40.536 369.054 40.68 369.523 40.968C370.003 41.256 370.376 41.656 370.643 42.168L370.659 42.024C370.659 41.832 370.67 41.6027 370.691 41.336C370.712 41.0587 370.739 40.8453 370.771 40.696H372.067C372.046 40.8453 372.024 41.0587 372.003 41.336C371.992 41.6133 371.987 41.8427 371.987 42.024V51.832ZM368.035 47.896C368.398 47.896 368.734 47.8373 369.043 47.72C369.352 47.592 369.619 47.4 369.843 47.144C370.078 46.888 370.259 46.568 370.387 46.184C370.526 45.8 370.595 45.352 370.595 44.84C370.595 44.328 370.526 43.88 370.387 43.496C370.259 43.112 370.078 42.7973 369.843 42.552C369.619 42.296 369.352 42.104 369.043 41.976C368.734 41.848 368.398 41.784 368.035 41.784C367.299 41.784 366.696 42.0453 366.227 42.568C365.768 43.08 365.539 43.8373 365.539 44.84C365.539 45.8533 365.774 46.616 366.243 47.128C366.712 47.64 367.31 47.896 368.035 47.896ZM379.613 47.512C379.389 47.9813 379.042 48.376 378.573 48.696C378.114 49.0053 377.511 49.16 376.765 49.16C375.997 49.16 375.373 48.9467 374.893 48.52C374.423 48.0827 374.189 47.4107 374.189 46.504V40.696H375.613V46.504C375.613 46.7813 375.65 47.0107 375.725 47.192C375.81 47.3627 375.922 47.5013 376.061 47.608C376.199 47.7147 376.359 47.7893 376.541 47.832C376.733 47.8747 376.941 47.896 377.165 47.896C377.783 47.896 378.279 47.7573 378.653 47.48C379.026 47.2027 379.346 46.824 379.613 46.344V40.696H381.021V49H379.773L379.645 47.512H379.613ZM389.94 48.296C389.822 48.3813 389.678 48.472 389.508 48.568C389.337 48.664 389.129 48.76 388.884 48.856C388.638 48.9413 388.361 49.0107 388.052 49.064C387.742 49.128 387.396 49.16 387.012 49.16C385.614 49.16 384.553 48.7813 383.828 48.024C383.102 47.2667 382.74 46.2053 382.74 44.84C382.74 44.168 382.836 43.5653 383.028 43.032C383.23 42.4987 383.508 42.0507 383.86 41.688C384.212 41.3147 384.628 41.032 385.108 40.84C385.588 40.6373 386.11 40.536 386.676 40.536C387.273 40.536 387.806 40.6373 388.276 40.84C388.745 41.0427 389.129 41.3413 389.428 41.736C389.737 42.1307 389.945 42.6213 390.052 43.208C390.169 43.784 390.169 44.456 390.052 45.224H384.196C384.249 46.12 384.516 46.792 384.996 47.24C385.476 47.6773 386.19 47.896 387.14 47.896C387.78 47.896 388.329 47.8053 388.788 47.624C389.246 47.4427 389.63 47.2453 389.94 47.032V48.296ZM386.644 41.784C386.036 41.784 385.513 41.9707 385.076 42.344C384.638 42.7173 384.361 43.2827 384.244 44.04H388.708C388.75 43.272 388.574 42.7067 388.18 42.344C387.785 41.9707 387.273 41.784 386.644 41.784ZM397.144 47.512C396.92 47.9813 396.573 48.376 396.104 48.696C395.645 49.0053 395.043 49.16 394.296 49.16C393.528 49.16 392.904 48.9467 392.424 48.52C391.955 48.0827 391.72 47.4107 391.72 46.504V40.696H393.144V46.504C393.144 46.7813 393.181 47.0107 393.256 47.192C393.341 47.3627 393.453 47.5013 393.592 47.608C393.731 47.7147 393.891 47.7893 394.072 47.832C394.264 47.8747 394.472 47.896 394.696 47.896C395.315 47.896 395.811 47.7573 396.184 47.48C396.557 47.2027 396.877 46.824 397.144 46.344V40.696H398.552V49H397.304L397.176 47.512H397.144ZM407.471 48.296C407.354 48.3813 407.21 48.472 407.039 48.568C406.868 48.664 406.66 48.76 406.415 48.856C406.17 48.9413 405.892 49.0107 405.583 49.064C405.274 49.128 404.927 49.16 404.543 49.16C403.146 49.16 402.084 48.7813 401.359 48.024C400.634 47.2667 400.271 46.2053 400.271 44.84C400.271 44.168 400.367 43.5653 400.559 43.032C400.762 42.4987 401.039 42.0507 401.391 41.688C401.743 41.3147 402.159 41.032 402.639 40.84C403.119 40.6373 403.642 40.536 404.207 40.536C404.804 40.536 405.338 40.6373 405.807 40.84C406.276 41.0427 406.66 41.3413 406.959 41.736C407.268 42.1307 407.476 42.6213 407.583 43.208C407.7 43.784 407.7 44.456 407.583 45.224H401.727C401.78 46.12 402.047 46.792 402.527 47.24C403.007 47.6773 403.722 47.896 404.671 47.896C405.311 47.896 405.86 47.8053 406.319 47.624C406.778 47.4427 407.162 47.2453 407.471 47.032V48.296ZM404.175 41.784C403.567 41.784 403.044 41.9707 402.607 42.344C402.17 42.7173 401.892 43.2827 401.775 44.04H406.239C406.282 43.272 406.106 42.7067 405.711 42.344C405.316 41.9707 404.804 41.784 404.175 41.784Z" fill="#18123D"/>
<rect x="212" y="84" width="118" height="66" rx="4" fill="white" stroke="#67B0F8" stroke-width="2"/>
<path d="M234.436 105.396H236.116L239.2 114H238L237.112 111.54H233.308L232.432 114H231.376L234.436 105.396ZM236.752 110.52L235.216 106.236L233.68 110.52H236.752ZM242.879 114.12C242.399 114.12 241.963 114.048 241.571 113.904C241.187 113.752 240.859 113.54 240.587 113.268C240.315 112.988 240.107 112.648 239.963 112.248C239.819 111.848 239.747 111.392 239.747 110.88C239.747 110.376 239.819 109.924 239.963 109.524C240.115 109.124 240.327 108.788 240.599 108.516C240.871 108.236 241.203 108.024 241.595 107.88C241.987 107.728 242.431 107.652 242.927 107.652C243.311 107.652 243.663 107.696 243.983 107.784C244.303 107.864 244.567 107.984 244.775 108.144V109.092C244.519 108.924 244.231 108.8 243.911 108.72C243.599 108.632 243.275 108.588 242.939 108.588C242.211 108.588 241.675 108.776 241.331 109.152C240.995 109.528 240.827 110.104 240.827 110.88C240.827 111.656 240.991 112.232 241.319 112.608C241.647 112.984 242.167 113.172 242.879 113.172C243.255 113.172 243.599 113.128 243.911 113.04C244.231 112.944 244.519 112.824 244.775 112.68V113.628C244.551 113.764 244.279 113.88 243.959 113.976C243.647 114.072 243.287 114.12 242.879 114.12ZM248.75 114.12C248.27 114.12 247.834 114.048 247.442 113.904C247.058 113.752 246.73 113.54 246.458 113.268C246.186 112.988 245.978 112.648 245.834 112.248C245.69 111.848 245.618 111.392 245.618 110.88C245.618 110.376 245.69 109.924 245.834 109.524C245.986 109.124 246.198 108.788 246.47 108.516C246.742 108.236 247.074 108.024 247.466 107.88C247.858 107.728 248.302 107.652 248.798 107.652C249.182 107.652 249.534 107.696 249.854 107.784C250.174 107.864 250.438 107.984 250.646 108.144V109.092C250.39 108.924 250.102 108.8 249.782 108.72C249.47 108.632 249.146 108.588 248.81 108.588C248.082 108.588 247.546 108.776 247.202 109.152C246.866 109.528 246.698 110.104 246.698 110.88C246.698 111.656 246.862 112.232 247.19 112.608C247.518 112.984 248.038 113.172 248.75 113.172C249.126 113.172 249.47 113.128 249.782 113.04C250.102 112.944 250.39 112.824 250.646 112.68V113.628C250.422 113.764 250.15 113.88 249.83 113.976C249.518 114.072 249.158 114.12 248.75 114.12ZM254.489 114.12C254.065 114.12 253.669 114.048 253.301 113.904C252.933 113.76 252.613 113.552 252.341 113.28C252.077 113 251.869 112.66 251.717 112.26C251.565 111.86 251.489 111.4 251.489 110.88C251.489 110.368 251.565 109.912 251.717 109.512C251.869 109.104 252.077 108.764 252.341 108.492C252.613 108.22 252.933 108.012 253.301 107.868C253.669 107.724 254.065 107.652 254.489 107.652C254.921 107.652 255.321 107.724 255.689 107.868C256.057 108.012 256.373 108.22 256.637 108.492C256.909 108.764 257.121 109.104 257.273 109.512C257.433 109.912 257.513 110.368 257.513 110.88C257.513 111.4 257.433 111.86 257.273 112.26C257.121 112.66 256.909 113 256.637 113.28C256.373 113.552 256.057 113.76 255.689 113.904C255.321 114.048 254.921 114.12 254.489 114.12ZM254.489 113.172C254.769 113.172 255.025 113.128 255.257 113.04C255.497 112.944 255.705 112.804 255.881 112.62C256.057 112.428 256.193 112.188 256.289 111.9C256.385 111.612 256.433 111.272 256.433 110.88C256.433 110.488 256.385 110.148 256.289 109.86C256.193 109.572 256.057 109.336 255.881 109.152C255.705 108.96 255.497 108.82 255.257 108.732C255.025 108.636 254.769 108.588 254.489 108.588C254.209 108.588 253.953 108.636 253.721 108.732C253.489 108.82 253.285 108.96 253.109 109.152C252.941 109.336 252.809 109.572 252.713 109.86C252.617 110.148 252.569 110.488 252.569 110.88C252.569 111.272 252.617 111.612 252.713 111.9C252.809 112.188 252.941 112.428 253.109 112.62C253.285 112.804 253.489 112.944 253.721 113.04C253.953 113.128 254.209 113.172 254.489 113.172ZM262.796 112.884C262.628 113.236 262.368 113.532 262.016 113.772C261.672 114.004 261.22 114.12 260.66 114.12C260.084 114.12 259.616 113.96 259.256 113.64C258.904 113.312 258.728 112.808 258.728 112.128V107.772H259.796V112.128C259.796 112.336 259.824 112.508 259.88 112.644C259.944 112.772 260.028 112.876 260.132 112.956C260.236 113.036 260.356 113.092 260.492 113.124C260.636 113.156 260.792 113.172 260.96 113.172C261.424 113.172 261.796 113.068 262.076 112.86C262.356 112.652 262.596 112.368 262.796 112.008V107.772H263.852V114H262.916L262.82 112.884H262.796ZM268.537 108.588C268.057 108.588 267.665 108.7 267.361 108.924C267.065 109.14 266.825 109.42 266.641 109.764V114H265.585V107.772H266.581L266.617 108.888H266.641C266.809 108.528 267.073 108.232 267.433 108C267.793 107.768 268.249 107.652 268.801 107.652C269.417 107.652 269.905 107.816 270.265 108.144C270.633 108.464 270.817 108.96 270.817 109.632V114H269.761V109.74C269.761 109.308 269.653 109.008 269.437 108.84C269.221 108.672 268.921 108.588 268.537 108.588ZM275.536 113.868C275.408 113.94 275.244 114 275.044 114.048C274.844 114.096 274.632 114.12 274.408 114.12C274.104 114.12 273.844 114.076 273.628 113.988C273.42 113.9 273.248 113.784 273.112 113.64C272.976 113.488 272.876 113.32 272.812 113.136C272.756 112.944 272.728 112.748 272.728 112.548V108.672H271.984V107.772H272.728V106.464H273.784V107.772H275.596V108.672H273.784V112.416C273.784 112.68 273.848 112.872 273.976 112.992C274.112 113.112 274.348 113.172 274.684 113.172C274.996 113.172 275.28 113.084 275.536 112.908V113.868ZM286.646 114H285.11L280.79 106.776V114H279.722V105.396H281.246L285.566 112.62V105.396H286.646V114ZM291.063 114.12C290.639 114.12 290.243 114.048 289.875 113.904C289.507 113.76 289.187 113.552 288.915 113.28C288.651 113 288.443 112.66 288.291 112.26C288.139 111.86 288.063 111.4 288.063 110.88C288.063 110.368 288.139 109.912 288.291 109.512C288.443 109.104 288.651 108.764 288.915 108.492C289.187 108.22 289.507 108.012 289.875 107.868C290.243 107.724 290.639 107.652 291.063 107.652C291.495 107.652 291.895 107.724 292.263 107.868C292.631 108.012 292.947 108.22 293.211 108.492C293.483 108.764 293.695 109.104 293.847 109.512C294.007 109.912 294.087 110.368 294.087 110.88C294.087 111.4 294.007 111.86 293.847 112.26C293.695 112.66 293.483 113 293.211 113.28C292.947 113.552 292.631 113.76 292.263 113.904C291.895 114.048 291.495 114.12 291.063 114.12ZM291.063 113.172C291.343 113.172 291.599 113.128 291.831 113.04C292.071 112.944 292.279 112.804 292.455 112.62C292.631 112.428 292.767 112.188 292.863 111.9C292.959 111.612 293.007 111.272 293.007 110.88C293.007 110.488 292.959 110.148 292.863 109.86C292.767 109.572 292.631 109.336 292.455 109.152C292.279 108.96 292.071 108.82 291.831 108.732C291.599 108.636 291.343 108.588 291.063 108.588C290.783 108.588 290.527 108.636 290.295 108.732C290.063 108.82 289.859 108.96 289.683 109.152C289.515 109.336 289.383 109.572 289.287 109.86C289.191 110.148 289.143 110.488 289.143 110.88C289.143 111.272 289.191 111.612 289.287 111.9C289.383 112.188 289.515 112.428 289.683 112.62C289.859 112.804 290.063 112.944 290.295 113.04C290.527 113.128 290.783 113.172 291.063 113.172ZM295.716 114.072C295.484 114.072 295.296 114 295.152 113.856C295.008 113.704 294.936 113.524 294.936 113.316C294.936 113.092 295.008 112.908 295.152 112.764C295.296 112.62 295.484 112.548 295.716 112.548C295.94 112.548 296.124 112.62 296.268 112.764C296.412 112.908 296.484 113.092 296.484 113.316C296.484 113.524 296.412 113.704 296.268 113.856C296.124 114 295.94 114.072 295.716 114.072ZM305.856 114H300.372V112.86C301.1 112.276 301.728 111.756 302.256 111.3C302.792 110.844 303.232 110.424 303.576 110.04C303.92 109.656 304.176 109.292 304.344 108.948C304.512 108.596 304.596 108.232 304.596 107.856C304.596 107.384 304.452 107.004 304.164 106.716C303.884 106.42 303.472 106.272 302.928 106.272C302.472 106.272 302.048 106.384 301.656 106.608C301.264 106.832 300.912 107.116 300.6 107.46V106.248C300.904 105.952 301.248 105.716 301.632 105.54C302.016 105.364 302.46 105.276 302.964 105.276C303.412 105.276 303.808 105.336 304.152 105.456C304.504 105.576 304.796 105.744 305.028 105.96C305.268 106.176 305.448 106.436 305.568 106.74C305.696 107.044 305.76 107.38 305.76 107.748C305.76 108.212 305.668 108.648 305.484 109.056C305.308 109.464 305.044 109.872 304.692 110.28C304.34 110.688 303.904 111.112 303.384 111.552C302.872 111.984 302.284 112.456 301.62 112.968H305.856V114ZM307.414 115.284C307.486 115.204 307.558 115.108 307.63 114.996C307.702 114.884 307.766 114.768 307.822 114.648C307.886 114.536 307.934 114.424 307.966 114.312C308.006 114.208 308.034 114.116 308.05 114.036C307.882 113.996 307.746 113.912 307.642 113.784C307.538 113.656 307.486 113.504 307.486 113.328C307.486 113.12 307.55 112.948 307.678 112.812C307.814 112.668 307.994 112.596 308.218 112.596C308.442 112.596 308.622 112.672 308.758 112.824C308.902 112.976 308.974 113.18 308.974 113.436C308.974 113.604 308.95 113.78 308.902 113.964C308.854 114.14 308.794 114.312 308.722 114.48C308.65 114.648 308.566 114.8 308.47 114.936C308.382 115.08 308.294 115.196 308.206 115.284H307.414ZM229.571 128.12C229.091 128.12 228.675 128.008 228.323 127.784C227.979 127.56 227.703 127.252 227.495 126.86V130.124H226.439V121.772H227.363L227.471 122.984C227.679 122.576 227.959 122.252 228.311 122.012C228.663 121.772 229.099 121.652 229.619 121.652C229.979 121.652 230.323 121.72 230.651 121.856C230.987 121.984 231.279 122.184 231.527 122.456C231.783 122.72 231.983 123.056 232.127 123.464C232.279 123.864 232.355 124.336 232.355 124.88C232.355 125.432 232.279 125.912 232.127 126.32C231.975 126.72 231.771 127.056 231.515 127.328C231.259 127.592 230.963 127.792 230.627 127.928C230.291 128.056 229.939 128.12 229.571 128.12ZM229.415 127.172C229.967 127.172 230.411 126.984 230.747 126.608C231.091 126.224 231.263 125.648 231.263 124.88C231.263 124.128 231.091 123.56 230.747 123.176C230.411 122.784 229.967 122.588 229.415 122.588C229.143 122.588 228.887 122.636 228.647 122.732C228.415 122.828 228.211 122.972 228.035 123.164C227.867 123.348 227.731 123.584 227.627 123.872C227.531 124.16 227.483 124.496 227.483 124.88C227.483 125.264 227.531 125.6 227.627 125.888C227.731 126.176 227.867 126.416 228.035 126.608C228.211 126.8 228.415 126.944 228.647 127.04C228.887 127.128 229.143 127.172 229.415 127.172ZM237.63 126.884C237.462 127.236 237.202 127.532 236.85 127.772C236.506 128.004 236.054 128.12 235.494 128.12C234.918 128.12 234.45 127.96 234.09 127.64C233.738 127.312 233.562 126.808 233.562 126.128V121.772H234.63V126.128C234.63 126.336 234.658 126.508 234.714 126.644C234.778 126.772 234.862 126.876 234.966 126.956C235.07 127.036 235.19 127.092 235.326 127.124C235.47 127.156 235.626 127.172 235.794 127.172C236.258 127.172 236.63 127.068 236.91 126.86C237.19 126.652 237.43 126.368 237.63 126.008V121.772H238.686V128H237.75L237.654 126.884H237.63ZM243.503 122.828C243.055 122.868 242.647 122.984 242.279 123.176C241.919 123.36 241.651 123.648 241.475 124.04V128H240.419V121.772H241.343L241.451 123.128H241.475C241.651 122.76 241.903 122.44 242.231 122.168C242.567 121.888 242.991 121.716 243.503 121.652V122.828ZM247.303 128.12C246.823 128.12 246.387 128.048 245.995 127.904C245.611 127.752 245.283 127.54 245.011 127.268C244.739 126.988 244.531 126.648 244.387 126.248C244.243 125.848 244.171 125.392 244.171 124.88C244.171 124.376 244.243 123.924 244.387 123.524C244.539 123.124 244.751 122.788 245.023 122.516C245.295 122.236 245.627 122.024 246.019 121.88C246.411 121.728 246.855 121.652 247.351 121.652C247.735 121.652 248.087 121.696 248.407 121.784C248.727 121.864 248.991 121.984 249.199 122.144V123.092C248.943 122.924 248.655 122.8 248.335 122.72C248.023 122.632 247.699 122.588 247.363 122.588C246.635 122.588 246.099 122.776 245.755 123.152C245.419 123.528 245.251 124.104 245.251 124.88C245.251 125.656 245.415 126.232 245.743 126.608C246.071 126.984 246.591 127.172 247.303 127.172C247.679 127.172 248.023 127.128 248.335 127.04C248.655 126.944 248.943 126.824 249.199 126.68V127.628C248.975 127.764 248.703 127.88 248.383 127.976C248.071 128.072 247.711 128.12 247.303 128.12ZM253.438 122.588C252.958 122.588 252.566 122.7 252.262 122.924C251.966 123.14 251.726 123.42 251.542 123.764V128H250.486V119.396H251.542V121.772L251.518 122.888H251.542C251.71 122.536 251.974 122.244 252.334 122.012C252.694 121.772 253.15 121.652 253.702 121.652C254.318 121.652 254.806 121.816 255.166 122.144C255.534 122.464 255.718 122.96 255.718 123.632V128H254.662V123.74C254.662 123.308 254.554 123.008 254.338 122.84C254.122 122.672 253.822 122.588 253.438 122.588ZM261.036 126.812C260.964 126.956 260.872 127.108 260.76 127.268C260.648 127.42 260.508 127.56 260.34 127.688C260.172 127.816 259.972 127.92 259.74 128C259.516 128.08 259.252 128.12 258.948 128.12C258.388 128.12 257.936 127.964 257.592 127.652C257.248 127.332 257.076 126.876 257.076 126.284C257.076 125.604 257.312 125.104 257.784 124.784C258.264 124.464 258.944 124.304 259.824 124.304H260.988V123.788C260.988 123.356 260.876 123.048 260.652 122.864C260.428 122.68 260.044 122.588 259.5 122.588C259.116 122.588 258.752 122.652 258.408 122.78C258.064 122.9 257.756 123.04 257.484 123.2V122.252C257.708 122.116 258.008 121.984 258.384 121.856C258.768 121.72 259.188 121.652 259.644 121.652C260.428 121.652 261.024 121.816 261.432 122.144C261.84 122.464 262.044 122.964 262.044 123.644V126.992C262.044 127.064 262.044 127.148 262.044 127.244C262.052 127.332 262.056 127.424 262.056 127.52C262.064 127.616 262.072 127.708 262.08 127.796C262.088 127.876 262.096 127.944 262.104 128H261.144C261.12 127.888 261.096 127.732 261.072 127.532C261.056 127.324 261.048 127.144 261.048 126.992L261.036 126.812ZM259.176 127.172C259.504 127.172 259.784 127.104 260.016 126.968C260.248 126.832 260.436 126.676 260.58 126.5C260.724 126.316 260.828 126.14 260.892 125.972C260.956 125.796 260.988 125.672 260.988 125.6V125.144H259.932C259.3 125.144 258.84 125.236 258.552 125.42C258.272 125.596 258.132 125.864 258.132 126.224C258.132 126.504 258.216 126.732 258.384 126.908C258.552 127.084 258.816 127.172 259.176 127.172ZM265.697 128.12C265.369 128.12 265.077 128.092 264.821 128.036C264.573 127.988 264.353 127.928 264.161 127.856C263.977 127.776 263.821 127.696 263.693 127.616C263.565 127.528 263.465 127.452 263.393 127.388V126.44C263.473 126.52 263.581 126.608 263.717 126.704C263.853 126.792 264.017 126.876 264.209 126.956C264.401 127.036 264.617 127.104 264.857 127.16C265.105 127.208 265.381 127.232 265.685 127.232C266.133 127.232 266.489 127.16 266.753 127.016C267.017 126.872 267.149 126.628 267.149 126.284C267.149 126.1 267.105 125.952 267.017 125.84C266.937 125.728 266.825 125.64 266.681 125.576C266.537 125.504 266.369 125.448 266.177 125.408C265.993 125.368 265.797 125.328 265.589 125.288C265.325 125.232 265.065 125.172 264.809 125.108C264.553 125.036 264.321 124.936 264.113 124.808C263.905 124.672 263.737 124.5 263.609 124.292C263.481 124.076 263.417 123.796 263.417 123.452C263.417 122.892 263.633 122.452 264.065 122.132C264.505 121.812 265.117 121.652 265.901 121.652C266.341 121.652 266.729 121.696 267.065 121.784C267.409 121.872 267.673 121.968 267.857 122.072V123.02C267.649 122.884 267.389 122.772 267.077 122.684C266.773 122.588 266.393 122.54 265.937 122.54C265.465 122.54 265.101 122.604 264.845 122.732C264.597 122.86 264.473 123.092 264.473 123.428C264.473 123.596 264.509 123.732 264.581 123.836C264.653 123.932 264.749 124.012 264.869 124.076C264.997 124.132 265.141 124.176 265.301 124.208C265.461 124.24 265.629 124.276 265.805 124.316C266.077 124.372 266.357 124.432 266.645 124.496C266.933 124.56 267.189 124.66 267.413 124.796C267.645 124.932 267.833 125.116 267.977 125.348C268.129 125.572 268.205 125.876 268.205 126.26C268.205 126.62 268.133 126.92 267.989 127.16C267.845 127.4 267.653 127.592 267.413 127.736C267.181 127.872 266.913 127.968 266.609 128.024C266.313 128.088 266.009 128.12 265.697 128.12ZM274.461 127.472C274.373 127.536 274.265 127.604 274.137 127.676C274.009 127.748 273.853 127.82 273.669 127.892C273.485 127.956 273.277 128.008 273.045 128.048C272.813 128.096 272.553 128.12 272.265 128.12C271.217 128.12 270.421 127.836 269.877 127.268C269.333 126.7 269.061 125.904 269.061 124.88C269.061 124.376 269.133 123.924 269.277 123.524C269.429 123.124 269.637 122.788 269.901 122.516C270.165 122.236 270.477 122.024 270.837 121.88C271.197 121.728 271.589 121.652 272.013 121.652C272.461 121.652 272.861 121.728 273.213 121.88C273.565 122.032 273.853 122.256 274.077 122.552C274.309 122.848 274.465 123.216 274.545 123.656C274.633 124.088 274.633 124.592 274.545 125.168H270.153C270.193 125.84 270.393 126.344 270.753 126.68C271.113 127.008 271.649 127.172 272.361 127.172C272.841 127.172 273.253 127.104 273.597 126.968C273.941 126.832 274.229 126.684 274.461 126.524V127.472ZM271.989 122.588C271.533 122.588 271.141 122.728 270.813 123.008C270.485 123.288 270.277 123.712 270.189 124.28H273.537C273.569 123.704 273.437 123.28 273.141 123.008C272.845 122.728 272.461 122.588 271.989 122.588ZM279.933 122.672V128H278.877V122.672H278.121V121.772H278.877V121.616C278.877 120.88 279.073 120.308 279.465 119.9C279.857 119.492 280.393 119.288 281.073 119.288C281.369 119.288 281.633 119.324 281.865 119.396V120.356C281.793 120.324 281.689 120.296 281.553 120.272C281.417 120.248 281.273 120.236 281.121 120.236C280.753 120.236 280.461 120.348 280.245 120.572C280.037 120.796 279.933 121.144 279.933 121.616V121.772H281.733V122.672H279.933ZM285.292 128.12C284.868 128.12 284.472 128.048 284.104 127.904C283.736 127.76 283.416 127.552 283.144 127.28C282.88 127 282.672 126.66 282.52 126.26C282.368 125.86 282.292 125.4 282.292 124.88C282.292 124.368 282.368 123.912 282.52 123.512C282.672 123.104 282.88 122.764 283.144 122.492C283.416 122.22 283.736 122.012 284.104 121.868C284.472 121.724 284.868 121.652 285.292 121.652C285.724 121.652 286.124 121.724 286.492 121.868C286.86 122.012 287.176 122.22 287.44 122.492C287.712 122.764 287.924 123.104 288.076 123.512C288.236 123.912 288.316 124.368 288.316 124.88C288.316 125.4 288.236 125.86 288.076 126.26C287.924 126.66 287.712 127 287.44 127.28C287.176 127.552 286.86 127.76 286.492 127.904C286.124 128.048 285.724 128.12 285.292 128.12ZM285.292 127.172C285.572 127.172 285.828 127.128 286.06 127.04C286.3 126.944 286.508 126.804 286.684 126.62C286.86 126.428 286.996 126.188 287.092 125.9C287.188 125.612 287.236 125.272 287.236 124.88C287.236 124.488 287.188 124.148 287.092 123.86C286.996 123.572 286.86 123.336 286.684 123.152C286.508 122.96 286.3 122.82 286.06 122.732C285.828 122.636 285.572 122.588 285.292 122.588C285.012 122.588 284.756 122.636 284.524 122.732C284.292 122.82 284.088 122.96 283.912 123.152C283.744 123.336 283.612 123.572 283.516 123.86C283.42 124.148 283.372 124.488 283.372 124.88C283.372 125.272 283.42 125.612 283.516 125.9C283.612 126.188 283.744 126.428 283.912 126.62C284.088 126.804 284.292 126.944 284.524 127.04C284.756 127.128 285.012 127.172 285.292 127.172ZM292.687 122.828C292.239 122.868 291.831 122.984 291.463 123.176C291.103 123.36 290.835 123.648 290.659 124.04V128H289.603V121.772H290.527L290.635 123.128H290.659C290.835 122.76 291.087 122.44 291.415 122.168C291.751 121.888 292.175 121.716 292.687 121.652V122.828ZM301.891 125.516C301.891 125.916 301.815 126.276 301.663 126.596C301.511 126.916 301.299 127.192 301.027 127.424C300.755 127.648 300.431 127.82 300.055 127.94C299.679 128.06 299.263 128.12 298.807 128.12C298.247 128.12 297.763 128.052 297.355 127.916C296.947 127.78 296.615 127.604 296.359 127.388V126.188C296.615 126.444 296.951 126.668 297.367 126.86C297.783 127.044 298.267 127.136 298.819 127.136C299.411 127.136 299.875 126.996 300.211 126.716C300.555 126.436 300.727 126.044 300.727 125.54C300.727 125.06 300.575 124.688 300.271 124.424C299.967 124.152 299.491 124.016 298.843 124.016H297.739V122.996H298.891C299.347 122.996 299.715 122.876 299.995 122.636C300.275 122.396 300.415 122.048 300.415 121.592C300.415 121.184 300.283 120.864 300.019 120.632C299.755 120.392 299.375 120.272 298.879 120.272C298.367 120.272 297.927 120.368 297.559 120.56C297.199 120.752 296.871 120.976 296.575 121.232V120.056C296.855 119.824 297.187 119.636 297.571 119.492C297.955 119.348 298.395 119.276 298.891 119.276C299.299 119.276 299.667 119.332 299.995 119.444C300.323 119.548 300.599 119.7 300.823 119.9C301.055 120.1 301.231 120.34 301.351 120.62C301.471 120.892 301.531 121.196 301.531 121.532C301.531 121.804 301.491 122.048 301.411 122.264C301.331 122.48 301.219 122.668 301.075 122.828C300.939 122.988 300.779 123.124 300.595 123.236C300.411 123.34 300.215 123.416 300.007 123.464C300.255 123.504 300.491 123.58 300.715 123.692C300.947 123.804 301.151 123.948 301.327 124.124C301.503 124.292 301.639 124.496 301.735 124.736C301.839 124.968 301.891 125.228 301.891 125.516ZM305.668 128.12C305.26 128.12 304.88 128.036 304.528 127.868C304.184 127.692 303.884 127.424 303.628 127.064C303.38 126.696 303.184 126.236 303.04 125.684C302.896 125.124 302.824 124.46 302.824 123.692C302.824 122.924 302.896 122.264 303.04 121.712C303.184 121.152 303.38 120.692 303.628 120.332C303.884 119.972 304.184 119.708 304.528 119.54C304.88 119.372 305.26 119.288 305.668 119.288C306.076 119.288 306.452 119.372 306.796 119.54C307.14 119.708 307.436 119.972 307.684 120.332C307.932 120.684 308.124 121.136 308.26 121.688C308.404 122.24 308.476 122.9 308.476 123.668C308.476 124.436 308.404 125.1 308.26 125.66C308.124 126.212 307.932 126.672 307.684 127.04C307.436 127.408 307.14 127.68 306.796 127.856C306.452 128.032 306.076 128.12 305.668 128.12ZM305.656 127.172C305.928 127.172 306.168 127.112 306.376 126.992C306.584 126.872 306.76 126.676 306.904 126.404C307.048 126.132 307.156 125.776 307.228 125.336C307.308 124.888 307.348 124.344 307.348 123.704C307.348 123.064 307.312 122.524 307.24 122.084C307.168 121.636 307.06 121.276 306.916 121.004C306.772 120.732 306.596 120.536 306.388 120.416C306.18 120.296 305.94 120.236 305.668 120.236C305.396 120.236 305.152 120.296 304.936 120.416C304.728 120.536 304.548 120.732 304.396 121.004C304.252 121.276 304.14 121.636 304.06 122.084C303.988 122.524 303.952 123.064 303.952 123.704C303.952 124.344 303.988 124.888 304.06 125.336C304.14 125.776 304.252 126.132 304.396 126.404C304.54 126.676 304.716 126.872 304.924 126.992C305.14 127.112 305.384 127.172 305.656 127.172ZM314.978 125.672C314.978 126.072 314.918 126.416 314.798 126.704C314.686 126.992 314.526 127.232 314.318 127.424C314.118 127.616 313.882 127.764 313.61 127.868C313.338 127.972 313.042 128.044 312.722 128.084V129.68H311.702V128.108C311.118 128.076 310.642 127.984 310.274 127.832C309.906 127.68 309.65 127.532 309.506 127.388V126.44C309.602 126.512 309.734 126.592 309.902 126.68C310.078 126.768 310.274 126.848 310.49 126.92C310.714 126.992 310.958 127.052 311.222 127.1C311.486 127.148 311.762 127.172 312.05 127.172C312.658 127.172 313.118 127.048 313.43 126.8C313.75 126.552 313.91 126.176 313.91 125.672C313.91 125.424 313.87 125.22 313.79 125.06C313.718 124.9 313.606 124.768 313.454 124.664C313.31 124.552 313.122 124.456 312.89 124.376C312.666 124.296 312.402 124.212 312.098 124.124C311.786 124.036 311.478 123.94 311.174 123.836C310.878 123.724 310.61 123.576 310.37 123.392C310.13 123.208 309.938 122.98 309.794 122.708C309.65 122.428 309.578 122.076 309.578 121.652C309.578 121.012 309.754 120.492 310.106 120.092C310.458 119.692 310.99 119.44 311.702 119.336V117.848H312.722V119.3C313.21 119.316 313.594 119.376 313.874 119.48C314.154 119.584 314.366 119.68 314.51 119.768V120.716C314.286 120.58 313.99 120.468 313.622 120.38C313.254 120.284 312.846 120.236 312.398 120.236C311.774 120.236 311.322 120.36 311.042 120.608C310.77 120.848 310.634 121.18 310.634 121.604C310.634 121.852 310.678 122.06 310.766 122.228C310.854 122.388 310.974 122.524 311.126 122.636C311.286 122.748 311.47 122.84 311.678 122.912C311.886 122.984 312.11 123.048 312.35 123.104C312.662 123.192 312.974 123.288 313.286 123.392C313.598 123.488 313.878 123.628 314.126 123.812C314.382 123.988 314.586 124.224 314.738 124.52C314.898 124.816 314.978 125.2 314.978 125.672Z" fill="#18123D"/>
<rect x="372" y="84" width="118" height="66" rx="4" fill="white" stroke="#67B0F8" stroke-width="2"/>
<path d="M394.436 105.396H396.116L399.2 114H398L397.112 111.54H393.308L392.432 114H391.376L394.436 105.396ZM396.752 110.52L395.216 106.236L393.68 110.52H396.752ZM402.879 114.12C402.399 114.12 401.963 114.048 401.571 113.904C401.187 113.752 400.859 113.54 400.587 113.268C400.315 112.988 400.107 112.648 399.963 112.248C399.819 111.848 399.747 111.392 399.747 110.88C399.747 110.376 399.819 109.924 399.963 109.524C400.115 109.124 400.327 108.788 400.599 108.516C400.871 108.236 401.203 108.024 401.595 107.88C401.987 107.728 402.431 107.652 402.927 107.652C403.311 107.652 403.663 107.696 403.983 107.784C404.303 107.864 404.567 107.984 404.775 108.144V109.092C404.519 108.924 404.231 108.8 403.911 108.72C403.599 108.632 403.275 108.588 402.939 108.588C402.211 108.588 401.675 108.776 401.331 109.152C400.995 109.528 400.827 110.104 400.827 110.88C400.827 111.656 400.991 112.232 401.319 112.608C401.647 112.984 402.167 113.172 402.879 113.172C403.255 113.172 403.599 113.128 403.911 113.04C404.231 112.944 404.519 112.824 404.775 112.68V113.628C404.551 113.764 404.279 113.88 403.959 113.976C403.647 114.072 403.287 114.12 402.879 114.12ZM408.75 114.12C408.27 114.12 407.834 114.048 407.442 113.904C407.058 113.752 406.73 113.54 406.458 113.268C406.186 112.988 405.978 112.648 405.834 112.248C405.69 111.848 405.618 111.392 405.618 110.88C405.618 110.376 405.69 109.924 405.834 109.524C405.986 109.124 406.198 108.788 406.47 108.516C406.742 108.236 407.074 108.024 407.466 107.88C407.858 107.728 408.302 107.652 408.798 107.652C409.182 107.652 409.534 107.696 409.854 107.784C410.174 107.864 410.438 107.984 410.646 108.144V109.092C410.39 108.924 410.102 108.8 409.782 108.72C409.47 108.632 409.146 108.588 408.81 108.588C408.082 108.588 407.546 108.776 407.202 109.152C406.866 109.528 406.698 110.104 406.698 110.88C406.698 111.656 406.862 112.232 407.19 112.608C407.518 112.984 408.038 113.172 408.75 113.172C409.126 113.172 409.47 113.128 409.782 113.04C410.102 112.944 410.39 112.824 410.646 112.68V113.628C410.422 113.764 410.15 113.88 409.83 113.976C409.518 114.072 409.158 114.12 408.75 114.12ZM414.489 114.12C414.065 114.12 413.669 114.048 413.301 113.904C412.933 113.76 412.613 113.552 412.341 113.28C412.077 113 411.869 112.66 411.717 112.26C411.565 111.86 411.489 111.4 411.489 110.88C411.489 110.368 411.565 109.912 411.717 109.512C411.869 109.104 412.077 108.764 412.341 108.492C412.613 108.22 412.933 108.012 413.301 107.868C413.669 107.724 414.065 107.652 414.489 107.652C414.921 107.652 415.321 107.724 415.689 107.868C416.057 108.012 416.373 108.22 416.637 108.492C416.909 108.764 417.121 109.104 417.273 109.512C417.433 109.912 417.513 110.368 417.513 110.88C417.513 111.4 417.433 111.86 417.273 112.26C417.121 112.66 416.909 113 416.637 113.28C416.373 113.552 416.057 113.76 415.689 113.904C415.321 114.048 414.921 114.12 414.489 114.12ZM414.489 113.172C414.769 113.172 415.025 113.128 415.257 113.04C415.497 112.944 415.705 112.804 415.881 112.62C416.057 112.428 416.193 112.188 416.289 111.9C416.385 111.612 416.433 111.272 416.433 110.88C416.433 110.488 416.385 110.148 416.289 109.86C416.193 109.572 416.057 109.336 415.881 109.152C415.705 108.96 415.497 108.82 415.257 108.732C415.025 108.636 414.769 108.588 414.489 108.588C414.209 108.588 413.953 108.636 413.721 108.732C413.489 108.82 413.285 108.96 413.109 109.152C412.941 109.336 412.809 109.572 412.713 109.86C412.617 110.148 412.569 110.488 412.569 110.88C412.569 111.272 412.617 111.612 412.713 111.9C412.809 112.188 412.941 112.428 413.109 112.62C413.285 112.804 413.489 112.944 413.721 113.04C413.953 113.128 414.209 113.172 414.489 113.172ZM422.796 112.884C422.628 113.236 422.368 113.532 422.016 113.772C421.672 114.004 421.22 114.12 420.66 114.12C420.084 114.12 419.616 113.96 419.256 113.64C418.904 113.312 418.728 112.808 418.728 112.128V107.772H419.796V112.128C419.796 112.336 419.824 112.508 419.88 112.644C419.944 112.772 420.028 112.876 420.132 112.956C420.236 113.036 420.356 113.092 420.492 113.124C420.636 113.156 420.792 113.172 420.96 113.172C421.424 113.172 421.796 113.068 422.076 112.86C422.356 112.652 422.596 112.368 422.796 112.008V107.772H423.852V114H422.916L422.82 112.884H422.796ZM428.537 108.588C428.057 108.588 427.665 108.7 427.361 108.924C427.065 109.14 426.825 109.42 426.641 109.764V114H425.585V107.772H426.581L426.617 108.888H426.641C426.809 108.528 427.073 108.232 427.433 108C427.793 107.768 428.249 107.652 428.801 107.652C429.417 107.652 429.905 107.816 430.265 108.144C430.633 108.464 430.817 108.96 430.817 109.632V114H429.761V109.74C429.761 109.308 429.653 109.008 429.437 108.84C429.221 108.672 428.921 108.588 428.537 108.588ZM435.536 113.868C435.408 113.94 435.244 114 435.044 114.048C434.844 114.096 434.632 114.12 434.408 114.12C434.104 114.12 433.844 114.076 433.628 113.988C433.42 113.9 433.248 113.784 433.112 113.64C432.976 113.488 432.876 113.32 432.812 113.136C432.756 112.944 432.728 112.748 432.728 112.548V108.672H431.984V107.772H432.728V106.464H433.784V107.772H435.596V108.672H433.784V112.416C433.784 112.68 433.848 112.872 433.976 112.992C434.112 113.112 434.348 113.172 434.684 113.172C434.996 113.172 435.28 113.084 435.536 112.908V113.868ZM446.646 114H445.11L440.79 106.776V114H439.722V105.396H441.246L445.566 112.62V105.396H446.646V114ZM451.063 114.12C450.639 114.12 450.243 114.048 449.875 113.904C449.507 113.76 449.187 113.552 448.915 113.28C448.651 113 448.443 112.66 448.291 112.26C448.139 111.86 448.063 111.4 448.063 110.88C448.063 110.368 448.139 109.912 448.291 109.512C448.443 109.104 448.651 108.764 448.915 108.492C449.187 108.22 449.507 108.012 449.875 107.868C450.243 107.724 450.639 107.652 451.063 107.652C451.495 107.652 451.895 107.724 452.263 107.868C452.631 108.012 452.947 108.22 453.211 108.492C453.483 108.764 453.695 109.104 453.847 109.512C454.007 109.912 454.087 110.368 454.087 110.88C454.087 111.4 454.007 111.86 453.847 112.26C453.695 112.66 453.483 113 453.211 113.28C452.947 113.552 452.631 113.76 452.263 113.904C451.895 114.048 451.495 114.12 451.063 114.12ZM451.063 113.172C451.343 113.172 451.599 113.128 451.831 113.04C452.071 112.944 452.279 112.804 452.455 112.62C452.631 112.428 452.767 112.188 452.863 111.9C452.959 111.612 453.007 111.272 453.007 110.88C453.007 110.488 452.959 110.148 452.863 109.86C452.767 109.572 452.631 109.336 452.455 109.152C452.279 108.96 452.071 108.82 451.831 108.732C451.599 108.636 451.343 108.588 451.063 108.588C450.783 108.588 450.527 108.636 450.295 108.732C450.063 108.82 449.859 108.96 449.683 109.152C449.515 109.336 449.383 109.572 449.287 109.86C449.191 110.148 449.143 110.488 449.143 110.88C449.143 111.272 449.191 111.612 449.287 111.9C449.383 112.188 449.515 112.428 449.683 112.62C449.859 112.804 450.063 112.944 450.295 113.04C450.527 113.128 450.783 113.172 451.063 113.172ZM455.716 114.072C455.484 114.072 455.296 114 455.152 113.856C455.008 113.704 454.936 113.524 454.936 113.316C454.936 113.092 455.008 112.908 455.152 112.764C455.296 112.62 455.484 112.548 455.716 112.548C455.94 112.548 456.124 112.62 456.268 112.764C456.412 112.908 456.484 113.092 456.484 113.316C456.484 113.524 456.412 113.704 456.268 113.856C456.124 114 455.94 114.072 455.716 114.072ZM464.248 114H463.156V106.752L460.78 108.576V107.364L463.336 105.396H464.248V114ZM467.414 115.284C467.486 115.204 467.558 115.108 467.63 114.996C467.702 114.884 467.766 114.768 467.822 114.648C467.886 114.536 467.934 114.424 467.966 114.312C468.006 114.208 468.034 114.116 468.05 114.036C467.882 113.996 467.746 113.912 467.642 113.784C467.538 113.656 467.486 113.504 467.486 113.328C467.486 113.12 467.55 112.948 467.678 112.812C467.814 112.668 467.994 112.596 468.218 112.596C468.442 112.596 468.622 112.672 468.758 112.824C468.902 112.976 468.974 113.18 468.974 113.436C468.974 113.604 468.95 113.78 468.902 113.964C468.854 114.14 468.794 114.312 468.722 114.48C468.65 114.648 468.566 114.8 468.47 114.936C468.382 115.08 468.294 115.196 468.206 115.284H467.414ZM395.762 127.868C395.634 127.94 395.47 128 395.27 128.048C395.07 128.096 394.858 128.12 394.634 128.12C394.33 128.12 394.07 128.076 393.854 127.988C393.646 127.9 393.474 127.784 393.338 127.64C393.202 127.488 393.102 127.32 393.038 127.136C392.982 126.944 392.954 126.748 392.954 126.548V122.672H392.21V121.772H392.954V120.464H394.01V121.772H395.822V122.672H394.01V126.416C394.01 126.68 394.074 126.872 394.202 126.992C394.338 127.112 394.574 127.172 394.91 127.172C395.222 127.172 395.506 127.084 395.762 126.908V127.868ZM399.665 128.12C399.241 128.12 398.845 128.048 398.477 127.904C398.109 127.76 397.789 127.552 397.517 127.28C397.253 127 397.045 126.66 396.893 126.26C396.741 125.86 396.665 125.4 396.665 124.88C396.665 124.368 396.741 123.912 396.893 123.512C397.045 123.104 397.253 122.764 397.517 122.492C397.789 122.22 398.109 122.012 398.477 121.868C398.845 121.724 399.241 121.652 399.665 121.652C400.097 121.652 400.497 121.724 400.865 121.868C401.233 122.012 401.549 122.22 401.813 122.492C402.085 122.764 402.297 123.104 402.449 123.512C402.609 123.912 402.689 124.368 402.689 124.88C402.689 125.4 402.609 125.86 402.449 126.26C402.297 126.66 402.085 127 401.813 127.28C401.549 127.552 401.233 127.76 400.865 127.904C400.497 128.048 400.097 128.12 399.665 128.12ZM399.665 127.172C399.945 127.172 400.201 127.128 400.433 127.04C400.673 126.944 400.881 126.804 401.057 126.62C401.233 126.428 401.369 126.188 401.465 125.9C401.561 125.612 401.609 125.272 401.609 124.88C401.609 124.488 401.561 124.148 401.465 123.86C401.369 123.572 401.233 123.336 401.057 123.152C400.881 122.96 400.673 122.82 400.433 122.732C400.201 122.636 399.945 122.588 399.665 122.588C399.385 122.588 399.129 122.636 398.897 122.732C398.665 122.82 398.461 122.96 398.285 123.152C398.117 123.336 397.985 123.572 397.889 123.86C397.793 124.148 397.745 124.488 397.745 124.88C397.745 125.272 397.793 125.612 397.889 125.9C397.985 126.188 398.117 126.428 398.285 126.62C398.461 126.804 398.665 126.944 398.897 127.04C399.129 127.128 399.385 127.172 399.665 127.172ZM407.108 128.12C406.628 128.12 406.212 128.008 405.86 127.784C405.516 127.56 405.24 127.252 405.032 126.86V130.124H403.976V121.772H404.9L405.008 122.984C405.216 122.576 405.496 122.252 405.848 122.012C406.2 121.772 406.636 121.652 407.156 121.652C407.516 121.652 407.86 121.72 408.188 121.856C408.524 121.984 408.816 122.184 409.064 122.456C409.32 122.72 409.52 123.056 409.664 123.464C409.816 123.864 409.892 124.336 409.892 124.88C409.892 125.432 409.816 125.912 409.664 126.32C409.512 126.72 409.308 127.056 409.052 127.328C408.796 127.592 408.5 127.792 408.164 127.928C407.828 128.056 407.476 128.12 407.108 128.12ZM406.952 127.172C407.504 127.172 407.948 126.984 408.284 126.608C408.628 126.224 408.8 125.648 408.8 124.88C408.8 124.128 408.628 123.56 408.284 123.176C407.948 122.784 407.504 122.588 406.952 122.588C406.68 122.588 406.424 122.636 406.184 122.732C405.952 122.828 405.748 122.972 405.572 123.164C405.404 123.348 405.268 123.584 405.164 123.872C405.068 124.16 405.02 124.496 405.02 124.88C405.02 125.264 405.068 125.6 405.164 125.888C405.268 126.176 405.404 126.416 405.572 126.608C405.748 126.8 405.952 126.944 406.184 127.04C406.424 127.128 406.68 127.172 406.952 127.172ZM411.145 123.86H414.025V124.82H411.145V123.86ZM419.609 126.884C419.441 127.236 419.181 127.532 418.829 127.772C418.485 128.004 418.033 128.12 417.473 128.12C416.897 128.12 416.429 127.96 416.069 127.64C415.717 127.312 415.541 126.808 415.541 126.128V121.772H416.609V126.128C416.609 126.336 416.637 126.508 416.693 126.644C416.757 126.772 416.841 126.876 416.945 126.956C417.049 127.036 417.169 127.092 417.305 127.124C417.449 127.156 417.605 127.172 417.773 127.172C418.237 127.172 418.609 127.068 418.889 126.86C419.169 126.652 419.409 126.368 419.609 126.008V121.772H420.665V128H419.729L419.633 126.884H419.609ZM425.53 128.12C425.05 128.12 424.634 128.008 424.282 127.784C423.938 127.56 423.662 127.252 423.454 126.86V130.124H422.398V121.772H423.322L423.43 122.984C423.638 122.576 423.918 122.252 424.27 122.012C424.622 121.772 425.058 121.652 425.578 121.652C425.938 121.652 426.282 121.72 426.61 121.856C426.946 121.984 427.238 122.184 427.486 122.456C427.742 122.72 427.942 123.056 428.086 123.464C428.238 123.864 428.314 124.336 428.314 124.88C428.314 125.432 428.238 125.912 428.086 126.32C427.934 126.72 427.73 127.056 427.474 127.328C427.218 127.592 426.922 127.792 426.586 127.928C426.25 128.056 425.898 128.12 425.53 128.12ZM425.374 127.172C425.926 127.172 426.37 126.984 426.706 126.608C427.05 126.224 427.222 125.648 427.222 124.88C427.222 124.128 427.05 123.56 426.706 123.176C426.37 122.784 425.926 122.588 425.374 122.588C425.102 122.588 424.846 122.636 424.606 122.732C424.374 122.828 424.17 122.972 423.994 123.164C423.826 123.348 423.69 123.584 423.586 123.872C423.49 124.16 423.442 124.496 423.442 124.88C423.442 125.264 423.49 125.6 423.586 125.888C423.69 126.176 423.826 126.416 423.994 126.608C424.17 126.8 424.374 126.944 424.606 127.04C424.846 127.128 425.102 127.172 425.374 127.172ZM433.658 122.672V128H432.602V122.672H431.846V121.772H432.602V121.616C432.602 120.88 432.798 120.308 433.19 119.9C433.582 119.492 434.118 119.288 434.798 119.288C435.094 119.288 435.358 119.324 435.59 119.396V120.356C435.518 120.324 435.414 120.296 435.278 120.272C435.142 120.248 434.998 120.236 434.846 120.236C434.478 120.236 434.186 120.348 433.97 120.572C433.762 120.796 433.658 121.144 433.658 121.616V121.772H435.458V122.672H433.658ZM439.016 128.12C438.592 128.12 438.196 128.048 437.828 127.904C437.46 127.76 437.14 127.552 436.868 127.28C436.604 127 436.396 126.66 436.244 126.26C436.092 125.86 436.016 125.4 436.016 124.88C436.016 124.368 436.092 123.912 436.244 123.512C436.396 123.104 436.604 122.764 436.868 122.492C437.14 122.22 437.46 122.012 437.828 121.868C438.196 121.724 438.592 121.652 439.016 121.652C439.448 121.652 439.848 121.724 440.216 121.868C440.584 122.012 440.9 122.22 441.164 122.492C441.436 122.764 441.648 123.104 441.8 123.512C441.96 123.912 442.04 124.368 442.04 124.88C442.04 125.4 441.96 125.86 441.8 126.26C441.648 126.66 441.436 127 441.164 127.28C440.9 127.552 440.584 127.76 440.216 127.904C439.848 128.048 439.448 128.12 439.016 128.12ZM439.016 127.172C439.296 127.172 439.552 127.128 439.784 127.04C440.024 126.944 440.232 126.804 440.408 126.62C440.584 126.428 440.72 126.188 440.816 125.9C440.912 125.612 440.96 125.272 440.96 124.88C440.96 124.488 440.912 124.148 440.816 123.86C440.72 123.572 440.584 123.336 440.408 123.152C440.232 122.96 440.024 122.82 439.784 122.732C439.552 122.636 439.296 122.588 439.016 122.588C438.736 122.588 438.48 122.636 438.248 122.732C438.016 122.82 437.812 122.96 437.636 123.152C437.468 123.336 437.336 123.572 437.24 123.86C437.144 124.148 437.096 124.488 437.096 124.88C437.096 125.272 437.144 125.612 437.24 125.9C437.336 126.188 437.468 126.428 437.636 126.62C437.812 126.804 438.016 126.944 438.248 127.04C438.48 127.128 438.736 127.172 439.016 127.172ZM446.412 122.828C445.964 122.868 445.556 122.984 445.188 123.176C444.828 123.36 444.56 123.648 444.384 124.04V128H443.328V121.772H444.252L444.36 123.128H444.384C444.56 122.76 444.812 122.44 445.14 122.168C445.476 121.888 445.9 121.716 446.412 121.652V122.828ZM453.935 128H452.843V120.752L450.467 122.576V121.364L453.023 119.396H453.935V128ZM459.393 128.12C458.985 128.12 458.605 128.036 458.253 127.868C457.909 127.692 457.609 127.424 457.353 127.064C457.105 126.696 456.909 126.236 456.765 125.684C456.621 125.124 456.549 124.46 456.549 123.692C456.549 122.924 456.621 122.264 456.765 121.712C456.909 121.152 457.105 120.692 457.353 120.332C457.609 119.972 457.909 119.708 458.253 119.54C458.605 119.372 458.985 119.288 459.393 119.288C459.801 119.288 460.177 119.372 460.521 119.54C460.865 119.708 461.161 119.972 461.409 120.332C461.657 120.684 461.849 121.136 461.985 121.688C462.129 122.24 462.201 122.9 462.201 123.668C462.201 124.436 462.129 125.1 461.985 125.66C461.849 126.212 461.657 126.672 461.409 127.04C461.161 127.408 460.865 127.68 460.521 127.856C460.177 128.032 459.801 128.12 459.393 128.12ZM459.381 127.172C459.653 127.172 459.893 127.112 460.101 126.992C460.309 126.872 460.485 126.676 460.629 126.404C460.773 126.132 460.881 125.776 460.953 125.336C461.033 124.888 461.073 124.344 461.073 123.704C461.073 123.064 461.037 122.524 460.965 122.084C460.893 121.636 460.785 121.276 460.641 121.004C460.497 120.732 460.321 120.536 460.113 120.416C459.905 120.296 459.665 120.236 459.393 120.236C459.121 120.236 458.877 120.296 458.661 120.416C458.453 120.536 458.273 120.732 458.121 121.004C457.977 121.276 457.865 121.636 457.785 122.084C457.713 122.524 457.677 123.064 457.677 123.704C457.677 124.344 457.713 124.888 457.785 125.336C457.865 125.776 457.977 126.132 458.121 126.404C458.265 126.676 458.441 126.872 458.649 126.992C458.865 127.112 459.109 127.172 459.381 127.172ZM468.703 125.672C468.703 126.072 468.643 126.416 468.523 126.704C468.411 126.992 468.251 127.232 468.043 127.424C467.843 127.616 467.607 127.764 467.335 127.868C467.063 127.972 466.767 128.044 466.447 128.084V129.68H465.427V128.108C464.843 128.076 464.367 127.984 463.999 127.832C463.631 127.68 463.375 127.532 463.231 127.388V126.44C463.327 126.512 463.459 126.592 463.627 126.68C463.803 126.768 463.999 126.848 464.215 126.92C464.439 126.992 464.683 127.052 464.947 127.1C465.211 127.148 465.487 127.172 465.775 127.172C466.383 127.172 466.843 127.048 467.155 126.8C467.475 126.552 467.635 126.176 467.635 125.672C467.635 125.424 467.595 125.22 467.515 125.06C467.443 124.9 467.331 124.768 467.179 124.664C467.035 124.552 466.847 124.456 466.615 124.376C466.391 124.296 466.127 124.212 465.823 124.124C465.511 124.036 465.203 123.94 464.899 123.836C464.603 123.724 464.335 123.576 464.095 123.392C463.855 123.208 463.663 122.98 463.519 122.708C463.375 122.428 463.303 122.076 463.303 121.652C463.303 121.012 463.479 120.492 463.831 120.092C464.183 119.692 464.715 119.44 465.427 119.336V117.848H466.447V119.3C466.935 119.316 467.319 119.376 467.599 119.48C467.879 119.584 468.091 119.68 468.235 119.768V120.716C468.011 120.58 467.715 120.468 467.347 120.38C466.979 120.284 466.571 120.236 466.123 120.236C465.499 120.236 465.047 120.36 464.767 120.608C464.495 120.848 464.359 121.18 464.359 121.604C464.359 121.852 464.403 122.06 464.491 122.228C464.579 122.388 464.699 122.524 464.851 122.636C465.011 122.748 465.195 122.84 465.403 122.912C465.611 122.984 465.835 123.048 466.075 123.104C466.387 123.192 466.699 123.288 467.011 123.392C467.323 123.488 467.603 123.628 467.851 123.812C468.107 123.988 468.311 124.224 468.463 124.52C468.623 124.816 468.703 125.2 468.703 125.672Z" fill="#18123D"/>
<rect x="7" y="66" width="118" height="66" rx="4" fill="white" stroke="#67B0F8" stroke-width="2"/>
<path d="M29.7988 87.396H31.4788L34.5628 96H33.3628L32.4748 93.54H28.6708L27.7948 96H26.7388L29.7988 87.396ZM32.1148 92.52L30.5788 88.236L29.0428 92.52H32.1148ZM38.2422 96.12C37.7622 96.12 37.3262 96.048 36.9342 95.904C36.5502 95.752 36.2222 95.54 35.9502 95.268C35.6782 94.988 35.4702 94.648 35.3262 94.248C35.1822 93.848 35.1102 93.392 35.1102 92.88C35.1102 92.376 35.1822 91.924 35.3262 91.524C35.4782 91.124 35.6902 90.788 35.9622 90.516C36.2342 90.236 36.5662 90.024 36.9582 89.88C37.3502 89.728 37.7942 89.652 38.2902 89.652C38.6742 89.652 39.0262 89.696 39.3462 89.784C39.6662 89.864 39.9302 89.984 40.1382 90.144V91.092C39.8822 90.924 39.5942 90.8 39.2742 90.72C38.9622 90.632 38.6382 90.588 38.3022 90.588C37.5742 90.588 37.0382 90.776 36.6942 91.152C36.3582 91.528 36.1902 92.104 36.1902 92.88C36.1902 93.656 36.3542 94.232 36.6822 94.608C37.0102 94.984 37.5302 95.172 38.2422 95.172C38.6182 95.172 38.9622 95.128 39.2742 95.04C39.5942 94.944 39.8822 94.824 40.1382 94.68V95.628C39.9142 95.764 39.6422 95.88 39.3222 95.976C39.0102 96.072 38.6502 96.12 38.2422 96.12ZM44.1133 96.12C43.6333 96.12 43.1973 96.048 42.8053 95.904C42.4213 95.752 42.0933 95.54 41.8213 95.268C41.5493 94.988 41.3413 94.648 41.1973 94.248C41.0533 93.848 40.9813 93.392 40.9813 92.88C40.9813 92.376 41.0533 91.924 41.1973 91.524C41.3493 91.124 41.5613 90.788 41.8333 90.516C42.1053 90.236 42.4373 90.024 42.8293 89.88C43.2213 89.728 43.6653 89.652 44.1613 89.652C44.5453 89.652 44.8973 89.696 45.2173 89.784C45.5373 89.864 45.8013 89.984 46.0093 90.144V91.092C45.7533 90.924 45.4653 90.8 45.1453 90.72C44.8333 90.632 44.5093 90.588 44.1733 90.588C43.4453 90.588 42.9093 90.776 42.5653 91.152C42.2293 91.528 42.0613 92.104 42.0613 92.88C42.0613 93.656 42.2253 94.232 42.5533 94.608C42.8813 94.984 43.4013 95.172 44.1133 95.172C44.4893 95.172 44.8333 95.128 45.1453 95.04C45.4653 94.944 45.7533 94.824 46.0093 94.68V95.628C45.7853 95.764 45.5133 95.88 45.1933 95.976C44.8813 96.072 44.5213 96.12 44.1133 96.12ZM49.8524 96.12C49.4284 96.12 49.0324 96.048 48.6644 95.904C48.2964 95.76 47.9764 95.552 47.7044 95.28C47.4404 95 47.2324 94.66 47.0804 94.26C46.9284 93.86 46.8524 93.4 46.8524 92.88C46.8524 92.368 46.9284 91.912 47.0804 91.512C47.2324 91.104 47.4404 90.764 47.7044 90.492C47.9764 90.22 48.2964 90.012 48.6644 89.868C49.0324 89.724 49.4284 89.652 49.8524 89.652C50.2844 89.652 50.6844 89.724 51.0524 89.868C51.4204 90.012 51.7364 90.22 52.0004 90.492C52.2724 90.764 52.4844 91.104 52.6364 91.512C52.7964 91.912 52.8764 92.368 52.8764 92.88C52.8764 93.4 52.7964 93.86 52.6364 94.26C52.4844 94.66 52.2724 95 52.0004 95.28C51.7364 95.552 51.4204 95.76 51.0524 95.904C50.6844 96.048 50.2844 96.12 49.8524 96.12ZM49.8524 95.172C50.1324 95.172 50.3884 95.128 50.6204 95.04C50.8604 94.944 51.0684 94.804 51.2444 94.62C51.4204 94.428 51.5564 94.188 51.6524 93.9C51.7484 93.612 51.7964 93.272 51.7964 92.88C51.7964 92.488 51.7484 92.148 51.6524 91.86C51.5564 91.572 51.4204 91.336 51.2444 91.152C51.0684 90.96 50.8604 90.82 50.6204 90.732C50.3884 90.636 50.1324 90.588 49.8524 90.588C49.5724 90.588 49.3164 90.636 49.0844 90.732C48.8524 90.82 48.6484 90.96 48.4724 91.152C48.3044 91.336 48.1724 91.572 48.0764 91.86C47.9804 92.148 47.9324 92.488 47.9324 92.88C47.9324 93.272 47.9804 93.612 48.0764 93.9C48.1724 94.188 48.3044 94.428 48.4724 94.62C48.6484 94.804 48.8524 94.944 49.0844 95.04C49.3164 95.128 49.5724 95.172 49.8524 95.172ZM58.1596 94.884C57.9916 95.236 57.7316 95.532 57.3796 95.772C57.0356 96.004 56.5836 96.12 56.0236 96.12C55.4476 96.12 54.9796 95.96 54.6196 95.64C54.2676 95.312 54.0916 94.808 54.0916 94.128V89.772H55.1596V94.128C55.1596 94.336 55.1876 94.508 55.2436 94.644C55.3076 94.772 55.3916 94.876 55.4956 94.956C55.5996 95.036 55.7196 95.092 55.8556 95.124C55.9996 95.156 56.1556 95.172 56.3236 95.172C56.7876 95.172 57.1596 95.068 57.4396 94.86C57.7196 94.652 57.9596 94.368 58.1596 94.008V89.772H59.2156V96H58.2796L58.1836 94.884H58.1596ZM63.9007 90.588C63.4207 90.588 63.0287 90.7 62.7247 90.924C62.4287 91.14 62.1887 91.42 62.0047 91.764V96H60.9487V89.772H61.9447L61.9807 90.888H62.0047C62.1727 90.528 62.4367 90.232 62.7967 90C63.1567 89.768 63.6127 89.652 64.1647 89.652C64.7807 89.652 65.2687 89.816 65.6287 90.144C65.9967 90.464 66.1807 90.96 66.1807 91.632V96H65.1247V91.74C65.1247 91.308 65.0167 91.008 64.8007 90.84C64.5847 90.672 64.2847 90.588 63.9007 90.588ZM70.8991 95.868C70.7711 95.94 70.6071 96 70.4071 96.048C70.2071 96.096 69.9951 96.12 69.7711 96.12C69.4671 96.12 69.2071 96.076 68.9911 95.988C68.7831 95.9 68.6111 95.784 68.4751 95.64C68.3391 95.488 68.2391 95.32 68.1751 95.136C68.1191 94.944 68.0911 94.748 68.0911 94.548V90.672H67.3471V89.772H68.0911V88.464H69.1471V89.772H70.9591V90.672H69.1471V94.416C69.1471 94.68 69.2111 94.872 69.3391 94.992C69.4751 95.112 69.7111 95.172 70.0471 95.172C70.3591 95.172 70.6431 95.084 70.8991 94.908V95.868ZM82.0089 96H80.4729L76.1529 88.776V96H75.0849V87.396H76.6089L80.9289 94.62V87.396H82.0089V96ZM86.4266 96.12C86.0026 96.12 85.6066 96.048 85.2386 95.904C84.8706 95.76 84.5506 95.552 84.2786 95.28C84.0146 95 83.8066 94.66 83.6546 94.26C83.5026 93.86 83.4266 93.4 83.4266 92.88C83.4266 92.368 83.5026 91.912 83.6546 91.512C83.8066 91.104 84.0146 90.764 84.2786 90.492C84.5506 90.22 84.8706 90.012 85.2386 89.868C85.6066 89.724 86.0026 89.652 86.4266 89.652C86.8586 89.652 87.2586 89.724 87.6266 89.868C87.9946 90.012 88.3106 90.22 88.5746 90.492C88.8466 90.764 89.0586 91.104 89.2106 91.512C89.3706 91.912 89.4506 92.368 89.4506 92.88C89.4506 93.4 89.3706 93.86 89.2106 94.26C89.0586 94.66 88.8466 95 88.5746 95.28C88.3106 95.552 87.9946 95.76 87.6266 95.904C87.2586 96.048 86.8586 96.12 86.4266 96.12ZM86.4266 95.172C86.7066 95.172 86.9626 95.128 87.1946 95.04C87.4346 94.944 87.6426 94.804 87.8186 94.62C87.9946 94.428 88.1306 94.188 88.2266 93.9C88.3226 93.612 88.3706 93.272 88.3706 92.88C88.3706 92.488 88.3226 92.148 88.2266 91.86C88.1306 91.572 87.9946 91.336 87.8186 91.152C87.6426 90.96 87.4346 90.82 87.1946 90.732C86.9626 90.636 86.7066 90.588 86.4266 90.588C86.1466 90.588 85.8906 90.636 85.6586 90.732C85.4266 90.82 85.2226 90.96 85.0466 91.152C84.8786 91.336 84.7466 91.572 84.6506 91.86C84.5546 92.148 84.5066 92.488 84.5066 92.88C84.5066 93.272 84.5546 93.612 84.6506 93.9C84.7466 94.188 84.8786 94.428 85.0466 94.62C85.2226 94.804 85.4266 94.944 85.6586 95.04C85.8906 95.128 86.1466 95.172 86.4266 95.172ZM91.0794 96.072C90.8474 96.072 90.6594 96 90.5154 95.856C90.3714 95.704 90.2994 95.524 90.2994 95.316C90.2994 95.092 90.3714 94.908 90.5154 94.764C90.6594 94.62 90.8474 94.548 91.0794 94.548C91.3034 94.548 91.4874 94.62 91.6314 94.764C91.7754 94.908 91.8474 95.092 91.8474 95.316C91.8474 95.524 91.7754 95.704 91.6314 95.856C91.4874 96 91.3034 96.072 91.0794 96.072ZM101.219 96H95.7352V94.86C96.4632 94.276 97.0912 93.756 97.6192 93.3C98.1552 92.844 98.5952 92.424 98.9392 92.04C99.2832 91.656 99.5392 91.292 99.7072 90.948C99.8752 90.596 99.9592 90.232 99.9592 89.856C99.9592 89.384 99.8152 89.004 99.5272 88.716C99.2472 88.42 98.8352 88.272 98.2912 88.272C97.8352 88.272 97.4112 88.384 97.0192 88.608C96.6272 88.832 96.2752 89.116 95.9632 89.46V88.248C96.2672 87.952 96.6112 87.716 96.9952 87.54C97.3792 87.364 97.8232 87.276 98.3272 87.276C98.7752 87.276 99.1712 87.336 99.5152 87.456C99.8672 87.576 100.159 87.744 100.391 87.96C100.631 88.176 100.811 88.436 100.931 88.74C101.059 89.044 101.123 89.38 101.123 89.748C101.123 90.212 101.031 90.648 100.847 91.056C100.671 91.464 100.407 91.872 100.055 92.28C99.7032 92.688 99.2672 93.112 98.7472 93.552C98.2352 93.984 97.6472 94.456 96.9832 94.968H101.219V96ZM102.393 97.284C102.465 97.204 102.537 97.108 102.609 96.996C102.681 96.884 102.745 96.768 102.801 96.648C102.865 96.536 102.913 96.424 102.945 96.312C102.985 96.208 103.013 96.116 103.029 96.036C102.861 95.996 102.725 95.912 102.621 95.784C102.517 95.656 102.465 95.504 102.465 95.328C102.465 95.12 102.529 94.948 102.657 94.812C102.793 94.668 102.973 94.596 103.197 94.596C103.421 94.596 103.601 94.672 103.737 94.824C103.881 94.976 103.953 95.18 103.953 95.436C103.953 95.604 103.929 95.78 103.881 95.964C103.833 96.14 103.773 96.312 103.701 96.48C103.629 96.648 103.545 96.8 103.449 96.936C103.361 97.08 103.273 97.196 103.185 97.284H102.393ZM34.7655 110H33.6735V102.752L31.2975 104.576V103.364L33.8535 101.396H34.7655V110ZM40.2232 110.12C39.8152 110.12 39.4352 110.036 39.0832 109.868C38.7392 109.692 38.4392 109.424 38.1832 109.064C37.9352 108.696 37.7392 108.236 37.5952 107.684C37.4512 107.124 37.3792 106.46 37.3792 105.692C37.3792 104.924 37.4512 104.264 37.5952 103.712C37.7392 103.152 37.9352 102.692 38.1832 102.332C38.4392 101.972 38.7392 101.708 39.0832 101.54C39.4352 101.372 39.8152 101.288 40.2232 101.288C40.6312 101.288 41.0072 101.372 41.3512 101.54C41.6952 101.708 41.9912 101.972 42.2392 102.332C42.4872 102.684 42.6792 103.136 42.8152 103.688C42.9592 104.24 43.0312 104.9 43.0312 105.668C43.0312 106.436 42.9592 107.1 42.8152 107.66C42.6792 108.212 42.4872 108.672 42.2392 109.04C41.9912 109.408 41.6952 109.68 41.3512 109.856C41.0072 110.032 40.6312 110.12 40.2232 110.12ZM40.2112 109.172C40.4832 109.172 40.7232 109.112 40.9312 108.992C41.1392 108.872 41.3152 108.676 41.4592 108.404C41.6032 108.132 41.7112 107.776 41.7832 107.336C41.8632 106.888 41.9032 106.344 41.9032 105.704C41.9032 105.064 41.8672 104.524 41.7952 104.084C41.7232 103.636 41.6152 103.276 41.4712 103.004C41.3272 102.732 41.1512 102.536 40.9432 102.416C40.7352 102.296 40.4952 102.236 40.2232 102.236C39.9512 102.236 39.7072 102.296 39.4912 102.416C39.2832 102.536 39.1032 102.732 38.9512 103.004C38.8072 103.276 38.6952 103.636 38.6152 104.084C38.5432 104.524 38.5072 105.064 38.5072 105.704C38.5072 106.344 38.5432 106.888 38.6152 107.336C38.6952 107.776 38.8072 108.132 38.9512 108.404C39.0952 108.676 39.2712 108.872 39.4792 108.992C39.6952 109.112 39.9392 109.172 40.2112 109.172ZM46.8208 110.12C46.4128 110.12 46.0328 110.036 45.6808 109.868C45.3368 109.692 45.0368 109.424 44.7808 109.064C44.5328 108.696 44.3368 108.236 44.1928 107.684C44.0488 107.124 43.9768 106.46 43.9768 105.692C43.9768 104.924 44.0488 104.264 44.1928 103.712C44.3368 103.152 44.5328 102.692 44.7808 102.332C45.0368 101.972 45.3368 101.708 45.6808 101.54C46.0328 101.372 46.4128 101.288 46.8208 101.288C47.2288 101.288 47.6048 101.372 47.9488 101.54C48.2928 101.708 48.5888 101.972 48.8368 102.332C49.0848 102.684 49.2768 103.136 49.4128 103.688C49.5568 104.24 49.6288 104.9 49.6288 105.668C49.6288 106.436 49.5568 107.1 49.4128 107.66C49.2768 108.212 49.0848 108.672 48.8368 109.04C48.5888 109.408 48.2928 109.68 47.9488 109.856C47.6048 110.032 47.2288 110.12 46.8208 110.12ZM46.8088 109.172C47.0808 109.172 47.3208 109.112 47.5288 108.992C47.7368 108.872 47.9128 108.676 48.0568 108.404C48.2008 108.132 48.3088 107.776 48.3808 107.336C48.4608 106.888 48.5008 106.344 48.5008 105.704C48.5008 105.064 48.4648 104.524 48.3928 104.084C48.3208 103.636 48.2128 103.276 48.0688 103.004C47.9248 102.732 47.7488 102.536 47.5408 102.416C47.3328 102.296 47.0928 102.236 46.8208 102.236C46.5488 102.236 46.3048 102.296 46.0888 102.416C45.8808 102.536 45.7008 102.732 45.5488 103.004C45.4048 103.276 45.2928 103.636 45.2128 104.084C45.1408 104.524 45.1048 105.064 45.1048 105.704C45.1048 106.344 45.1408 106.888 45.2128 107.336C45.2928 107.776 45.4048 108.132 45.5488 108.404C45.6928 108.676 45.8688 108.872 46.0768 108.992C46.2928 109.112 46.5368 109.172 46.8088 109.172ZM56.1305 107.672C56.1305 108.072 56.0705 108.416 55.9505 108.704C55.8385 108.992 55.6785 109.232 55.4705 109.424C55.2705 109.616 55.0345 109.764 54.7625 109.868C54.4905 109.972 54.1945 110.044 53.8745 110.084V111.68H52.8545V110.108C52.2705 110.076 51.7945 109.984 51.4265 109.832C51.0585 109.68 50.8025 109.532 50.6585 109.388V108.44C50.7545 108.512 50.8865 108.592 51.0545 108.68C51.2305 108.768 51.4265 108.848 51.6425 108.92C51.8665 108.992 52.1105 109.052 52.3745 109.1C52.6385 109.148 52.9145 109.172 53.2025 109.172C53.8105 109.172 54.2705 109.048 54.5825 108.8C54.9025 108.552 55.0625 108.176 55.0625 107.672C55.0625 107.424 55.0225 107.22 54.9425 107.06C54.8705 106.9 54.7585 106.768 54.6065 106.664C54.4625 106.552 54.2745 106.456 54.0425 106.376C53.8185 106.296 53.5545 106.212 53.2505 106.124C52.9385 106.036 52.6305 105.94 52.3265 105.836C52.0305 105.724 51.7625 105.576 51.5225 105.392C51.2825 105.208 51.0905 104.98 50.9465 104.708C50.8025 104.428 50.7305 104.076 50.7305 103.652C50.7305 103.012 50.9065 102.492 51.2585 102.092C51.6105 101.692 52.1425 101.44 52.8545 101.336V99.848H53.8745V101.3C54.3625 101.316 54.7465 101.376 55.0265 101.48C55.3065 101.584 55.5185 101.68 55.6625 101.768V102.716C55.4385 102.58 55.1425 102.468 54.7745 102.38C54.4065 102.284 53.9985 102.236 53.5505 102.236C52.9265 102.236 52.4745 102.36 52.1945 102.608C51.9225 102.848 51.7865 103.18 51.7865 103.604C51.7865 103.852 51.8305 104.06 51.9185 104.228C52.0065 104.388 52.1265 104.524 52.2785 104.636C52.4385 104.748 52.6225 104.84 52.8305 104.912C53.0385 104.984 53.2625 105.048 53.5025 105.104C53.8145 105.192 54.1265 105.288 54.4385 105.392C54.7505 105.488 55.0305 105.628 55.2785 105.812C55.5345 105.988 55.7385 106.224 55.8905 106.52C56.0505 106.816 56.1305 107.2 56.1305 107.672ZM64.6569 108.776C64.4649 109.184 64.1969 109.512 63.8529 109.76C63.5089 110 63.0729 110.12 62.5449 110.12C62.1689 110.12 61.8129 110.056 61.4769 109.928C61.1409 109.792 60.8449 109.592 60.5889 109.328C60.3329 109.056 60.1289 108.72 59.9769 108.32C59.8249 107.912 59.7489 107.432 59.7489 106.88C59.7489 106.336 59.8249 105.864 59.9769 105.464C60.1289 105.056 60.3329 104.72 60.5889 104.456C60.8449 104.184 61.1409 103.984 61.4769 103.856C61.8209 103.72 62.1809 103.652 62.5569 103.652C63.0289 103.652 63.4369 103.752 63.7809 103.952C64.1249 104.144 64.4009 104.42 64.6089 104.78V101.396H65.6649V110H64.7409L64.6569 108.776ZM62.7009 109.172C62.9729 109.172 63.2249 109.128 63.4569 109.04C63.6889 108.944 63.8889 108.8 64.0569 108.608C64.2329 108.416 64.3689 108.176 64.4649 107.888C64.5689 107.6 64.6209 107.264 64.6209 106.88C64.6209 106.496 64.5689 106.16 64.4649 105.872C64.3689 105.584 64.2329 105.344 64.0569 105.152C63.8889 104.96 63.6889 104.82 63.4569 104.732C63.2249 104.636 62.9729 104.588 62.7009 104.588C62.1489 104.588 61.6969 104.784 61.3449 105.176C61.0009 105.56 60.8289 106.128 60.8289 106.88C60.8289 107.64 61.0049 108.212 61.3569 108.596C61.7089 108.98 62.1569 109.172 62.7009 109.172ZM72.3442 109.472C72.2562 109.536 72.1482 109.604 72.0202 109.676C71.8922 109.748 71.7362 109.82 71.5522 109.892C71.3682 109.956 71.1602 110.008 70.9282 110.048C70.6962 110.096 70.4362 110.12 70.1482 110.12C69.1002 110.12 68.3042 109.836 67.7602 109.268C67.2162 108.7 66.9442 107.904 66.9442 106.88C66.9442 106.376 67.0162 105.924 67.1602 105.524C67.3122 105.124 67.5202 104.788 67.7842 104.516C68.0482 104.236 68.3602 104.024 68.7202 103.88C69.0802 103.728 69.4722 103.652 69.8962 103.652C70.3442 103.652 70.7442 103.728 71.0962 103.88C71.4482 104.032 71.7362 104.256 71.9602 104.552C72.1922 104.848 72.3482 105.216 72.4282 105.656C72.5162 106.088 72.5162 106.592 72.4282 107.168H68.0362C68.0762 107.84 68.2762 108.344 68.6362 108.68C68.9962 109.008 69.5322 109.172 70.2442 109.172C70.7242 109.172 71.1362 109.104 71.4802 108.968C71.8242 108.832 72.1122 108.684 72.3442 108.524V109.472ZM69.8722 104.588C69.4162 104.588 69.0242 104.728 68.6962 105.008C68.3682 105.288 68.1602 105.712 68.0722 106.28H71.4202C71.4522 105.704 71.3202 105.28 71.0242 105.008C70.7282 104.728 70.3442 104.588 69.8722 104.588ZM79.6675 106.88C79.6675 107.432 79.5915 107.912 79.4395 108.32C79.2875 108.72 79.0835 109.056 78.8275 109.328C78.5715 109.592 78.2755 109.792 77.9395 109.928C77.6035 110.056 77.2515 110.12 76.8835 110.12C76.4035 110.12 75.9835 110.008 75.6235 109.784C75.2715 109.552 74.9915 109.232 74.7835 108.824L74.7475 110H73.7515V101.396H74.8075L74.7835 104.984C74.9915 104.576 75.2715 104.252 75.6235 104.012C75.9755 103.772 76.4115 103.652 76.9315 103.652C77.2915 103.652 77.6355 103.72 77.9635 103.856C78.2995 103.984 78.5915 104.184 78.8395 104.456C79.0955 104.72 79.2955 105.056 79.4395 105.464C79.5915 105.864 79.6675 106.336 79.6675 106.88ZM76.7275 109.172C77.2795 109.172 77.7235 108.984 78.0595 108.608C78.4035 108.224 78.5755 107.648 78.5755 106.88C78.5755 106.128 78.4035 105.56 78.0595 105.176C77.7235 104.784 77.2795 104.588 76.7275 104.588C76.4555 104.588 76.1995 104.636 75.9595 104.732C75.7275 104.828 75.5235 104.972 75.3475 105.164C75.1795 105.348 75.0435 105.584 74.9395 105.872C74.8435 106.16 74.7955 106.496 74.7955 106.88C74.7955 107.264 74.8435 107.6 74.9395 107.888C75.0435 108.176 75.1795 108.416 75.3475 108.608C75.5235 108.8 75.7275 108.944 75.9595 109.04C76.1995 109.128 76.4555 109.172 76.7275 109.172ZM81.4868 102.86C81.2708 102.86 81.0988 102.796 80.9708 102.668C80.8428 102.532 80.7788 102.368 80.7788 102.176C80.7788 101.984 80.8428 101.82 80.9708 101.684C81.0988 101.548 81.2708 101.48 81.4868 101.48C81.6948 101.48 81.8588 101.548 81.9788 101.684C82.0988 101.82 82.1588 101.984 82.1588 102.176C82.1588 102.368 82.0988 102.532 81.9788 102.668C81.8588 102.796 81.6948 102.86 81.4868 102.86ZM82.0028 103.772V110H80.9468V103.772H82.0028ZM86.7721 109.868C86.6441 109.94 86.4801 110 86.2801 110.048C86.0801 110.096 85.8681 110.12 85.6441 110.12C85.3401 110.12 85.0801 110.076 84.8641 109.988C84.6561 109.9 84.4841 109.784 84.3481 109.64C84.2121 109.488 84.1121 109.32 84.0481 109.136C83.9921 108.944 83.9641 108.748 83.9641 108.548V104.672H83.2201V103.772H83.9641V102.464H85.0201V103.772H86.8321V104.672H85.0201V108.416C85.0201 108.68 85.0841 108.872 85.2121 108.992C85.3481 109.112 85.5841 109.172 85.9201 109.172C86.2321 109.172 86.5161 109.084 86.7721 108.908V109.868ZM93.0746 109.472C92.9866 109.536 92.8786 109.604 92.7506 109.676C92.6226 109.748 92.4666 109.82 92.2826 109.892C92.0986 109.956 91.8906 110.008 91.6586 110.048C91.4266 110.096 91.1666 110.12 90.8786 110.12C89.8306 110.12 89.0346 109.836 88.4906 109.268C87.9466 108.7 87.6746 107.904 87.6746 106.88C87.6746 106.376 87.7466 105.924 87.8906 105.524C88.0426 105.124 88.2506 104.788 88.5146 104.516C88.7786 104.236 89.0906 104.024 89.4506 103.88C89.8106 103.728 90.2026 103.652 90.6266 103.652C91.0746 103.652 91.4746 103.728 91.8266 103.88C92.1786 104.032 92.4666 104.256 92.6906 104.552C92.9226 104.848 93.0786 105.216 93.1586 105.656C93.2466 106.088 93.2466 106.592 93.1586 107.168H88.7666C88.8066 107.84 89.0066 108.344 89.3666 108.68C89.7266 109.008 90.2626 109.172 90.9746 109.172C91.4546 109.172 91.8666 109.104 92.2106 108.968C92.5546 108.832 92.8426 108.684 93.0746 108.524V109.472ZM90.6026 104.588C90.1466 104.588 89.7546 104.728 89.4266 105.008C89.0986 105.288 88.8906 105.712 88.8026 106.28H92.1506C92.1826 105.704 92.0506 105.28 91.7546 105.008C91.4586 104.728 91.0746 104.588 90.6026 104.588ZM98.9459 108.776C98.7539 109.184 98.4859 109.512 98.1419 109.76C97.7979 110 97.3619 110.12 96.8339 110.12C96.4579 110.12 96.1019 110.056 95.7659 109.928C95.4299 109.792 95.1339 109.592 94.8779 109.328C94.6219 109.056 94.4179 108.72 94.2659 108.32C94.1139 107.912 94.0379 107.432 94.0379 106.88C94.0379 106.336 94.1139 105.864 94.2659 105.464C94.4179 105.056 94.6219 104.72 94.8779 104.456C95.1339 104.184 95.4299 103.984 95.7659 103.856C96.1099 103.72 96.4699 103.652 96.8459 103.652C97.3179 103.652 97.7259 103.752 98.0699 103.952C98.4139 104.144 98.6899 104.42 98.8979 104.78V101.396H99.9539V110H99.0299L98.9459 108.776ZM96.9899 109.172C97.2619 109.172 97.5139 109.128 97.7459 109.04C97.9779 108.944 98.1779 108.8 98.3459 108.608C98.5219 108.416 98.6579 108.176 98.7539 107.888C98.8579 107.6 98.9099 107.264 98.9099 106.88C98.9099 106.496 98.8579 106.16 98.7539 105.872C98.6579 105.584 98.5219 105.344 98.3459 105.152C98.1779 104.96 97.9779 104.82 97.7459 104.732C97.5139 104.636 97.2619 104.588 96.9899 104.588C96.4379 104.588 95.9859 104.784 95.6339 105.176C95.2899 105.56 95.1179 106.128 95.1179 106.88C95.1179 107.64 95.2939 108.212 95.6459 108.596C95.9979 108.98 96.4459 109.172 96.9899 109.172Z" fill="#18123D"/>
<path d="M171 99L161 93.2265V104.774L171 99ZM162 98H126V100H162V98Z" fill="#4E496B"/>
<g filter="url(#filter1_d_114_404)">
<path d="M692.431 173H579.569C577.598 173 576 171.402 576 169.431V28.9761C576 26.7802 577.78 25 579.976 25H692.431C694.402 25 696 26.5979 696 28.5691V169.431C696 171.402 694.402 173 692.431 173Z" fill="white"/>
</g>
<path d="M627.508 94.396H629.188L632.272 103H631.072L630.184 100.54H626.38L625.504 103H624.448L627.508 94.396ZM629.824 99.52L628.288 95.236L626.752 99.52H629.824ZM636.512 103.12C636.032 103.12 635.616 103.008 635.264 102.784C634.92 102.56 634.644 102.252 634.436 101.86V105.124H633.38V96.772H634.304L634.412 97.984C634.62 97.576 634.9 97.252 635.252 97.012C635.604 96.772 636.04 96.652 636.56 96.652C636.92 96.652 637.264 96.72 637.592 96.856C637.928 96.984 638.22 97.184 638.468 97.456C638.724 97.72 638.924 98.056 639.068 98.464C639.22 98.864 639.296 99.336 639.296 99.88C639.296 100.432 639.22 100.912 639.068 101.32C638.916 101.72 638.712 102.056 638.456 102.328C638.2 102.592 637.904 102.792 637.568 102.928C637.232 103.056 636.88 103.12 636.512 103.12ZM636.356 102.172C636.908 102.172 637.352 101.984 637.688 101.608C638.032 101.224 638.204 100.648 638.204 99.88C638.204 99.128 638.032 98.56 637.688 98.176C637.352 97.784 636.908 97.588 636.356 97.588C636.084 97.588 635.828 97.636 635.588 97.732C635.356 97.828 635.152 97.972 634.976 98.164C634.808 98.348 634.672 98.584 634.568 98.872C634.472 99.16 634.424 99.496 634.424 99.88C634.424 100.264 634.472 100.6 634.568 100.888C634.672 101.176 634.808 101.416 634.976 101.608C635.152 101.8 635.356 101.944 635.588 102.04C635.828 102.128 636.084 102.172 636.356 102.172ZM643.708 103.12C643.228 103.12 642.812 103.008 642.46 102.784C642.116 102.56 641.84 102.252 641.632 101.86V105.124H640.576V96.772H641.5L641.608 97.984C641.816 97.576 642.096 97.252 642.448 97.012C642.8 96.772 643.236 96.652 643.756 96.652C644.116 96.652 644.46 96.72 644.788 96.856C645.124 96.984 645.416 97.184 645.664 97.456C645.92 97.72 646.12 98.056 646.264 98.464C646.416 98.864 646.492 99.336 646.492 99.88C646.492 100.432 646.416 100.912 646.264 101.32C646.112 101.72 645.908 102.056 645.652 102.328C645.396 102.592 645.1 102.792 644.764 102.928C644.428 103.056 644.076 103.12 643.708 103.12ZM643.552 102.172C644.104 102.172 644.548 101.984 644.884 101.608C645.228 101.224 645.4 100.648 645.4 99.88C645.4 99.128 645.228 98.56 644.884 98.176C644.548 97.784 644.104 97.588 643.552 97.588C643.28 97.588 643.024 97.636 642.784 97.732C642.552 97.828 642.348 97.972 642.172 98.164C642.004 98.348 641.868 98.584 641.764 98.872C641.668 99.16 641.62 99.496 641.62 99.88C641.62 100.264 641.668 100.6 641.764 100.888C641.868 101.176 642.004 101.416 642.172 101.608C642.348 101.8 642.552 101.944 642.784 102.04C643.024 102.128 643.28 102.172 643.552 102.172Z" fill="#18123D"/>
<path d="M576 99L566 93.2265V104.774L576 99ZM567 98H531V100H567V98Z" fill="#4E496B"/>
</g>
<defs>
<filter id="filter0_d_114_404" x="163.832" y="-0.16784" width="374.336" height="198.336" filterUnits="userSpaceOnUse" color-interpolation-filters="sRGB">
<feFlood flood-opacity="0" result="BackgroundImageFix"/>
<feColorMatrix in="SourceAlpha" type="matrix" values="0 0 0 0 0 0 0 0 0 0 0 0 0 0 0 0 0 0 127 0" result="hardAlpha"/>
<feOffset/>
<feGaussianBlur stdDeviation="3.58392"/>
<feColorMatrix type="matrix" values="0 0 0 0 0.592157 0 0 0 0 0.74902 0 0 0 0 0.905882 0 0 0 0.4 0"/>
<feBlend mode="normal" in2="BackgroundImageFix" result="effect1_dropShadow_114_404"/>
<feBlend mode="normal" in="SourceGraphic" in2="effect1_dropShadow_114_404" result="shape"/>
</filter>
<filter id="filter1_d_114_404" x="568.832" y="17.8322" width="134.336" height="162.336" filterUnits="userSpaceOnUse" color-interpolation-filters="sRGB">
<feFlood flood-opacity="0" result="BackgroundImageFix"/>
<feColorMatrix in="SourceAlpha" type="matrix" values="0 0 0 0 0 0 0 0 0 0 0 0 0 0 0 0 0 0 127 0" result="hardAlpha"/>
<feOffset/>
<feGaussianBlur stdDeviation="3.58392"/>
<feColorMatrix type="matrix" values="0 0 0 0 0.592157 0 0 0 0 0.74902 0 0 0 0 0.905882 0 0 0 0.4 0"/>
<feBlend mode="normal" in2="BackgroundImageFix" result="effect1_dropShadow_114_404"/>
<feBlend mode="normal" in="SourceGraphic" in2="effect1_dropShadow_114_404" result="shape"/>
</filter>
<clipPath id="clip0_114_404">
<rect width="701" height="199" fill="white"/>
</clipPath>
</defs>
</svg>
