<svg xmlns="http://www.w3.org/2000/svg" width="16" height="16" fill="currentColor" viewBox="-2 -1 16 16"><g stroke="none" fill="currentColor" stroke-width="1px">
    <path d="M10.022 7.172L4.578 13.61a.505.505 0 0 1-.446.175.812.812 0 0 1-.087.005H.5a.498.498 0 0 1-.202-.043.439.439 0 0 1-.298-.415v-3.44c0-.124.048-.237.127-.32a.477.477 0 0 1 .043-.06l5.257-6.195 4.595 3.855zm1.291-1.527L6.721 1.792 8.01.274a.467.467 0 0 1 .068-.066A.428.428 0 0 1 8.721.1l3.89 3.262a.483.483 0 0 1 .019.723.372.372 0 0 1-.022.028l-1.295 1.532zM1 10.574v2.216h2.51a2.231 2.231 0 0 0-2.23-2.216H1z" stroke="none" fill="currentColor" stroke-width="1px"></path>
</g></svg>
