<svg xmlns="http://www.w3.org/2000/svg" width="1252" height="450" style="background:0 0;background-color:transparent;color-scheme:light dark"><defs><clipPath id="a"><path d="M209 172h66v20h-66z"/></clipPath><clipPath id="b"><path d="M263 172h58v20h-58z"/></clipPath><clipPath id="c"><path d="M320 173h70v20h-70z"/></clipPath><clipPath id="d"><path d="M282 263h113v20H282z"/></clipPath></defs><g data-cell-id="0"><g data-cell-id="1"><g stroke="#000" stroke-miterlimit="10" data-cell-id="BKlyohRb7cvqR44dBRqB-1"><path fill="none" d="M68 15h1113.63" pointer-events="stroke" style="stroke:light-dark(#000,#fff)" transform="translate(.5 .5)"/><path d="m1186.88 15-7 3.5 1.75-3.5-1.75-3.5Z" pointer-events="all" style="fill:light-dark(#000,#fff);stroke:light-dark(#000,#fff)" transform="translate(.5 .5)"/></g><g data-cell-id="BKlyohRb7cvqR44dBRqB-2"><path fill="none" d="M1188.5.5h60v30h-60z" pointer-events="all"/><text x="1218" y="20" font-family="Helvetica" font-size="12" style="fill:light-dark(#000,#fff)" text-anchor="middle">main </text></g><path fill="none" stroke="#000" stroke-miterlimit="10" d="M98 56V15" data-cell-id="BKlyohRb7cvqR44dBRqB-3" pointer-events="stroke" style="stroke:light-dark(#000,#fff)" transform="translate(.5 .5)"/><g stroke="#000" stroke-miterlimit="10" data-cell-id="BKlyohRb7cvqR44dBRqB-4"><path fill="none" d="M98 56h533.63" pointer-events="stroke" style="stroke:light-dark(#000,#fff)" transform="translate(.5 .5)"/><path d="m636.88 56-7 3.5 1.75-3.5-1.75-3.5Z" pointer-events="all" style="fill:light-dark(#000,#fff);stroke:light-dark(#000,#fff)" transform="translate(.5 .5)"/></g><g data-cell-id="BKlyohRb7cvqR44dBRqB-8"><path fill="none" d="M404.5 129.5h100v30h-100z" pointer-events="all"/><text x="454" y="149" font-family="Helvetica" font-size="12" style="fill:light-dark(#000,#fff)" text-anchor="middle">stable-25-1-1</text></g><path fill="#f8cecc" stroke="#b85450" stroke-miterlimit="10" d="M0 260h5.83l4.17 5.92 4.17-5.92H20l-7.08 10L20 280h-5.83L10 274.08 5.83 280H0l6.67-10Z" data-cell-id="BKlyohRb7cvqR44dBRqB-74" pointer-events="all" style="fill:light-dark(#f8cecc,#512d2b);stroke:light-dark(#b85450,#d7817e)" transform="translate(.5 .5)"/><g data-cell-id="BKlyohRb7cvqR44dBRqB-75"><path fill="none" d="M30.5 255.5h150v30h-150z" pointer-events="all"/><text x="32" y="275" font-family="Helvetica" font-size="12" style="fill:light-dark(#000,#fff)">branch end of life </text></g><path fill="#b1ddf0" stroke="#10739e" stroke-miterlimit="10" d="m10 290 10 10-10 10-10-10Z" data-cell-id="BKlyohRb7cvqR44dBRqB-76" pointer-events="all" style="fill:light-dark(#b1ddf0,#173d4d);stroke:light-dark(#10739e,#54a9ce)" transform="translate(.5 .5)"/><g data-cell-id="BKlyohRb7cvqR44dBRqB-78"><path fill="none" d="M30.5 285.5h270v30h-270z" pointer-events="all"/><text x="32" y="305" font-family="Helvetica" font-size="12" style="fill:light-dark(#000,#fff)">major release acceptance (nemesis, compatibility)</text></g><path fill="#e3c800" stroke="#b09500" stroke-miterlimit="10" d="M5.71 369.5h-2v-11.03H.88l3.83-7.97 3.83 7.97H5.71Z" data-cell-id="BKlyohRb7cvqR44dBRqB-80" pointer-events="all" style="fill:light-dark(#e3c800,#675000);stroke:light-dark(#b09500,#8d7600)" transform="translate(.5 .5)"/><g data-cell-id="BKlyohRb7cvqR44dBRqB-82"><path fill="none" d="M25.5 345.5h270v30h-270z" pointer-events="all"/><text x="27" y="365" font-family="Helvetica" font-size="12" style="fill:light-dark(#000,#fff)">bug fix</text></g><path fill="#e51400" stroke="#b20000" stroke-miterlimit="10" d="M5.71 394.5h-2v-11.03H.88l3.83-7.97 3.83 7.97H5.71Z" data-cell-id="BKlyohRb7cvqR44dBRqB-83" pointer-events="all" style="fill:light-dark(#e51400,#ff9281);stroke:light-dark(#b20000,#ffacac)" transform="translate(.5 .5)"/><g data-cell-id="BKlyohRb7cvqR44dBRqB-84"><path fill="none" d="M25.5 370.5h270v30h-270z" pointer-events="all"/><text x="27" y="390" font-family="Helvetica" font-size="12" style="fill:light-dark(#000,#fff)">feature</text></g><circle cx="5" cy="415" r="5" fill="#fad9d5" stroke="#ae4132" data-cell-id="D4-yEOCwhY7TvUdENpiH-1" pointer-events="all" style="fill:light-dark(#fad9d5,#442724);stroke:light-dark(#ae4132,#ec8f82)" transform="translate(.5 .5)"/><g data-cell-id="D4-yEOCwhY7TvUdENpiH-2"><path fill="none" d="M25.5 400.5h270v30h-270z" pointer-events="all"/><text x="27" y="420" font-family="Helvetica" font-size="12" style="fill:light-dark(#000,#fff)">unsuccessful tag</text></g><circle cx="5" cy="435" r="5" fill="#d5e8d4" stroke="#82b366" data-cell-id="D4-yEOCwhY7TvUdENpiH-4" pointer-events="all" style="fill:light-dark(#d5e8d4,#1f2f1e);stroke:light-dark(#82b366,#446e2c)" transform="translate(.5 .5)"/><g data-cell-id="D4-yEOCwhY7TvUdENpiH-5"><path fill="none" d="M25.5 420.5h270v30h-270z" pointer-events="all"/><text x="27" y="440" font-family="Helvetica" font-size="12" style="fill:light-dark(#000,#fff)">successful tag</text></g><path fill="none" stroke="#000" stroke-miterlimit="10" d="M162 56v90" data-cell-id="JmJE46NEGLy7hlqQf7Fy-2" pointer-events="stroke" style="stroke:light-dark(#000,#fff)" transform="translate(.5 .5)"/><path fill="#1ba1e2" stroke="#006eaf" stroke-miterlimit="10" d="M5.71 339.5h-2v-11.03H.88l3.83-7.97 3.83 7.97H5.71Z" data-cell-id="JmJE46NEGLy7hlqQf7Fy-8" pointer-events="all" style="fill:light-dark(#1ba1e2,#198cc4);stroke:light-dark(#006eaf,#51afe7)" transform="translate(.5 .5)"/><g data-cell-id="JmJE46NEGLy7hlqQf7Fy-9"><path fill="none" d="M25.5 315.5h270v30h-270z" pointer-events="all"/><text x="27" y="335" font-family="Helvetica" font-size="12" style="fill:light-dark(#000,#fff)">bug fix needed ASAP in production (hotfix)</text></g><path fill="#1ba1e2" stroke="#006eaf" stroke-miterlimit="10" d="M125.02 75.5h-2V64.47h-2.83l3.83-7.97 3.83 7.97h-2.83Z" data-cell-id="JmJE46NEGLy7hlqQf7Fy-12" pointer-events="all" style="fill:light-dark(#1ba1e2,#198cc4);stroke:light-dark(#006eaf,#51afe7)" transform="translate(.5 .5)"/><path fill="#e3c800" stroke="#b09500" stroke-miterlimit="10" d="M135.02 75.5h-2V64.47h-2.83l3.83-7.97 3.83 7.97h-2.83Z" data-cell-id="JmJE46NEGLy7hlqQf7Fy-14" pointer-events="all" style="fill:light-dark(#e3c800,#675000);stroke:light-dark(#b09500,#8d7600)" transform="translate(.5 .5)"/><path fill="#e51400" stroke="#b20000" stroke-miterlimit="10" d="M144.66 75.5h-2V64.47h-2.83l3.83-7.97 3.83 7.97h-2.83Z" data-cell-id="JmJE46NEGLy7hlqQf7Fy-15" pointer-events="all" style="fill:light-dark(#e51400,#ff9281);stroke:light-dark(#b20000,#ffacac)" transform="translate(.5 .5)"/><g data-cell-id="JmJE46NEGLy7hlqQf7Fy-20"><path fill="none" d="M656.5 40.5h73v30h-73z" pointer-events="all"/><text x="692.5" y="60" font-family="Helvetica" font-size="12" style="fill:light-dark(#000,#fff)" text-anchor="middle">stable-25-1</text></g><path fill="#b1ddf0" stroke="#10739e" stroke-miterlimit="10" d="m188 135.25 10 10-10 10-10-10Z" data-cell-id="JmJE46NEGLy7hlqQf7Fy-28" pointer-events="all" style="fill:light-dark(#b1ddf0,#173d4d);stroke:light-dark(#10739e,#54a9ce)" transform="translate(.5 .5)"/><path fill="#e3c800" stroke="#b09500" stroke-miterlimit="10" d="M278 165.5h-2v-11.03h-2.83l3.83-7.97 3.83 7.97H278Z" data-cell-id="JmJE46NEGLy7hlqQf7Fy-31" pointer-events="all" style="fill:light-dark(#e3c800,#675000);stroke:light-dark(#b09500,#8d7600)" transform="translate(.5 .5)"/><path fill="none" stroke="#000" stroke-miterlimit="10" d="m362 145.25-81 .75h40" data-cell-id="JmJE46NEGLy7hlqQf7Fy-37" pointer-events="stroke" style="stroke:light-dark(#000,#fff)" transform="translate(.5 .5)"/><path fill="none" stroke="#000" stroke-miterlimit="10" d="m198 145.25 53 .75" data-cell-id="JmJE46NEGLy7hlqQf7Fy-40" pointer-events="stroke" style="stroke:light-dark(#000,#fff)" transform="translate(.5 .5)"/><circle cx="246" cy="146" r="5" fill="#f8cecc" stroke="#b85450" data-cell-id="JmJE46NEGLy7hlqQf7Fy-39" pointer-events="all" style="fill:light-dark(#f8cecc,#512d2b);stroke:light-dark(#b85450,#d7817e)" transform="translate(.5 .5)"/><path fill="none" stroke="#000" stroke-miterlimit="10" d="M251 146h42" data-cell-id="JmJE46NEGLy7hlqQf7Fy-46" pointer-events="stroke" style="stroke:light-dark(#000,#fff)" transform="translate(.5 .5)"/><circle cx="298" cy="146" r="5" fill="#d5e8d4" stroke="#82b366" data-cell-id="JmJE46NEGLy7hlqQf7Fy-45" pointer-events="all" style="fill:light-dark(#d5e8d4,#1f2f1e);stroke:light-dark(#82b366,#446e2c)" transform="translate(.5 .5)"/><path fill="#f8cecc" stroke="#b85450" stroke-miterlimit="10" d="M391 134h5.83l4.17 5.92 4.17-5.92H411l-7.08 10 7.08 10h-5.83l-4.17-5.92-4.17 5.92H391l6.67-10Z" data-cell-id="JmJE46NEGLy7hlqQf7Fy-47" pointer-events="all" style="fill:light-dark(#f8cecc,#512d2b);stroke:light-dark(#b85450,#d7817e)" transform="translate(.5 .5)"/><path fill="#1ba1e2" stroke="#006eaf" stroke-miterlimit="10" d="M265 165.5h-2v-11.03h-2.83l3.83-7.97 3.83 7.97H265Z" data-cell-id="JmJE46NEGLy7hlqQf7Fy-50" pointer-events="all" style="fill:light-dark(#1ba1e2,#198cc4);stroke:light-dark(#006eaf,#51afe7)" transform="translate(.5 .5)"/><path fill="#1ba1e2" stroke="#006eaf" stroke-miterlimit="10" d="M313 165.5h-2v-11.03h-2.83l3.83-7.97 3.83 7.97H313Z" data-cell-id="JmJE46NEGLy7hlqQf7Fy-51" pointer-events="all" style="fill:light-dark(#1ba1e2,#198cc4);stroke:light-dark(#006eaf,#51afe7)" transform="translate(.5 .5)"/><circle cx="357" cy="145.25" r="5" fill="#d5e8d4" stroke="#82b366" data-cell-id="JmJE46NEGLy7hlqQf7Fy-53" pointer-events="all" style="fill:light-dark(#d5e8d4,#1f2f1e);stroke:light-dark(#82b366,#446e2c)" transform="translate(.5 .5)"/><path fill="none" stroke="#000" stroke-miterlimit="10" d="m362 145.06 26-.06" data-cell-id="JmJE46NEGLy7hlqQf7Fy-55" pointer-events="stroke" style="stroke:light-dark(#000,#fff)" transform="translate(.5 .5)"/><path fill="#1ba1e2" stroke="#006eaf" stroke-miterlimit="10" d="m209 75.51-2-.02.08-11.26-2.84-.01 3.89-7.95 3.78 7.99-2.83-.01Z" data-cell-id="JmJE46NEGLy7hlqQf7Fy-103" pointer-events="all" style="fill:light-dark(#1ba1e2,#198cc4);stroke:light-dark(#006eaf,#51afe7)" transform="translate(.5 .5)"/><path fill="#e3c800" stroke="#b09500" stroke-miterlimit="10" d="M219.13 75.27h-2V64.24h-2.83l3.83-7.97 3.83 7.97h-2.83Z" data-cell-id="JmJE46NEGLy7hlqQf7Fy-104" pointer-events="all" style="fill:light-dark(#e3c800,#675000);stroke:light-dark(#b09500,#8d7600)" transform="translate(.5 .5)"/><path fill="#e51400" stroke="#b20000" stroke-miterlimit="10" d="M228.77 75.27h-2V64.24h-2.83l3.83-7.97 3.83 7.97h-2.83Z" data-cell-id="JmJE46NEGLy7hlqQf7Fy-105" pointer-events="all" style="fill:light-dark(#e51400,#ff9281);stroke:light-dark(#b20000,#ffacac)" transform="translate(.5 .5)"/><path fill="#b1ddf0" stroke="#10739e" stroke-miterlimit="10" d="m278 96 10 10-10 10-10-10Z" data-cell-id="JmJE46NEGLy7hlqQf7Fy-140" pointer-events="all" style="fill:light-dark(#b1ddf0,#173d4d);stroke:light-dark(#10739e,#54a9ce)" transform="translate(.5 .5)"/><path fill="#e3c800" stroke="#b09500" stroke-miterlimit="10" d="M342 125.5h-2v-11.03h-2.83l3.83-7.97 3.83 7.97H342Z" data-cell-id="JmJE46NEGLy7hlqQf7Fy-141" pointer-events="all" style="fill:light-dark(#e3c800,#675000);stroke:light-dark(#b09500,#8d7600)" transform="translate(.5 .5)"/><path fill="none" stroke="#000" stroke-miterlimit="10" d="M251 106h17" data-cell-id="JmJE46NEGLy7hlqQf7Fy-142" pointer-events="stroke" style="stroke:light-dark(#000,#fff)" transform="translate(.5 .5)"/><path fill="none" stroke="#000" stroke-miterlimit="10" d="M406 106h-50 40" data-cell-id="JmJE46NEGLy7hlqQf7Fy-144" pointer-events="stroke" style="stroke:light-dark(#000,#fff)" transform="translate(.5 .5)"/><path fill="none" stroke="#000" stroke-miterlimit="10" d="M288 106h38" data-cell-id="JmJE46NEGLy7hlqQf7Fy-145" pointer-events="stroke" style="stroke:light-dark(#000,#fff)" transform="translate(.5 .5)"/><circle cx="321" cy="106" r="5" fill="#f8cecc" stroke="#b85450" data-cell-id="JmJE46NEGLy7hlqQf7Fy-146" pointer-events="all" style="fill:light-dark(#f8cecc,#512d2b);stroke:light-dark(#b85450,#d7817e)" transform="translate(.5 .5)"/><path fill="none" stroke="#000" stroke-miterlimit="10" d="M326 106h35" data-cell-id="JmJE46NEGLy7hlqQf7Fy-147" pointer-events="stroke" style="stroke:light-dark(#000,#fff)" transform="translate(.5 .5)"/><circle cx="366" cy="106" r="5" fill="#d5e8d4" stroke="#82b366" data-cell-id="JmJE46NEGLy7hlqQf7Fy-148" pointer-events="all" style="fill:light-dark(#d5e8d4,#1f2f1e);stroke:light-dark(#82b366,#446e2c)" transform="translate(.5 .5)"/><path fill="#1ba1e2" stroke="#006eaf" stroke-miterlimit="10" d="M312 126.5h-2v-11.03h-2.83l3.83-7.97 3.83 7.97H312Z" data-cell-id="JmJE46NEGLy7hlqQf7Fy-150" pointer-events="all" style="fill:light-dark(#1ba1e2,#198cc4);stroke:light-dark(#006eaf,#51afe7)" transform="translate(.5 .5)"/><path fill="none" stroke="#000" stroke-miterlimit="10" d="M371 106h25" data-cell-id="JmJE46NEGLy7hlqQf7Fy-152" pointer-events="stroke" style="stroke:light-dark(#000,#fff)" transform="translate(.5 .5)"/><circle cx="401" cy="106" r="5" fill="#d5e8d4" stroke="#82b366" data-cell-id="JmJE46NEGLy7hlqQf7Fy-153" pointer-events="all" style="fill:light-dark(#d5e8d4,#1f2f1e);stroke:light-dark(#82b366,#446e2c)" transform="translate(.5 .5)"/><path fill="none" stroke="#000" stroke-miterlimit="10" d="m406 105.81 25 .19" data-cell-id="JmJE46NEGLy7hlqQf7Fy-154" pointer-events="stroke" style="stroke:light-dark(#000,#fff)" transform="translate(.5 .5)"/><path fill="none" stroke="#000" stroke-miterlimit="10" d="M251 56v50" data-cell-id="JmJE46NEGLy7hlqQf7Fy-155" pointer-events="stroke" style="stroke:light-dark(#000,#fff)" transform="translate(.5 .5)"/><path fill="#1ba1e2" stroke="#006eaf" stroke-miterlimit="10" d="M209 165.5h-2v-11.03h-2.83l3.83-7.97 3.83 7.97H209Z" data-cell-id="QXBmiwWFVblay1ct6sO7-2" pointer-events="all" style="fill:light-dark(#1ba1e2,#198cc4);stroke:light-dark(#006eaf,#51afe7)" transform="translate(.5 .5)"/><path fill="#e3c800" stroke="#b09500" stroke-miterlimit="10" d="M223 165.5h-2v-11.03h-2.83l3.83-7.97 3.83 7.97H223Z" data-cell-id="QXBmiwWFVblay1ct6sO7-3" pointer-events="all" style="fill:light-dark(#e3c800,#675000);stroke:light-dark(#b09500,#8d7600)" transform="translate(.5 .5)"/><path fill="#1ba1e2" stroke="#006eaf" stroke-miterlimit="10" d="M311 75.24h-2V64.21h-2.83l3.83-7.97 3.83 7.97H311Z" data-cell-id="QXBmiwWFVblay1ct6sO7-6" pointer-events="all" style="fill:light-dark(#1ba1e2,#198cc4);stroke:light-dark(#006eaf,#51afe7)" transform="translate(.5 .5)"/><path fill="#e3c800" stroke="#b09500" stroke-miterlimit="10" d="M339 75.24h-2V64.21h-2.83l3.83-7.97 3.83 7.97H339Z" data-cell-id="QXBmiwWFVblay1ct6sO7-7" pointer-events="all" style="fill:light-dark(#e3c800,#675000);stroke:light-dark(#b09500,#8d7600)" transform="translate(.5 .5)"/><path fill="#e51400" stroke="#b20000" stroke-miterlimit="10" d="M368.68 75.5h-2V64.47h-2.83l3.83-7.97 3.83 7.97h-2.83Z" data-cell-id="QXBmiwWFVblay1ct6sO7-8" pointer-events="all" style="fill:light-dark(#e51400,#ff9281);stroke:light-dark(#b20000,#ffacac)" transform="translate(.5 .5)"/><g data-cell-id="QXBmiwWFVblay1ct6sO7-34"><path fill="none" d="M252.5 149.5v66h-20v-66z" pointer-events="all"/><g clip-path="url(#a)" font-family="Helvetica" font-size="12" style="fill:light-dark(#000,#fff)" text-anchor="middle" transform="rotate(90 242 182)"><text x="242" y="185">25-1-1-1</text></g></g><g data-cell-id="QXBmiwWFVblay1ct6sO7-36"><path fill="none" d="M439.5 90.5h100v30h-100z" pointer-events="all"/><text x="489" y="110" font-family="Helvetica" font-size="12" style="fill:light-dark(#000,#fff)" text-anchor="middle">stable-25-1-2</text></g><path fill="#1ba1e2" stroke="#006eaf" stroke-miterlimit="10" d="M311 36.5h-2V25.47h-2.83L310 17.5l3.83 7.97H311Z" data-cell-id="QXBmiwWFVblay1ct6sO7-60" pointer-events="all" style="fill:light-dark(#1ba1e2,#198cc4);stroke:light-dark(#006eaf,#51afe7)" transform="translate(.5 .5)"/><path fill="#e3c800" stroke="#b09500" stroke-miterlimit="10" d="M339 35.25h-2V24.22h-2.83l3.83-7.97 3.83 7.97H339Z" data-cell-id="QXBmiwWFVblay1ct6sO7-61" pointer-events="all" style="fill:light-dark(#e3c800,#675000);stroke:light-dark(#b09500,#8d7600)" transform="translate(.5 .5)"/><path fill="#e51400" stroke="#b20000" stroke-miterlimit="10" d="M368 35.5h-2V24.47h-2.83L367 16.5l3.83 7.97H368Z" data-cell-id="QXBmiwWFVblay1ct6sO7-62" pointer-events="all" style="fill:light-dark(#e51400,#ff9281);stroke:light-dark(#b20000,#ffacac)" transform="translate(.5 .5)"/><g data-cell-id="QXBmiwWFVblay1ct6sO7-71"><path fill="none" d="M302.5 153v58h-20v-58z" pointer-events="all"/><g clip-path="url(#b)" font-family="Helvetica" font-size="12" style="fill:light-dark(#000,#fff)" text-anchor="middle" transform="rotate(90 292 181.5)"><text x="292" y="186.5">25-1-1-2</text></g></g><g data-cell-id="QXBmiwWFVblay1ct6sO7-72"><path fill="none" d="M365.5 148.75v70h-20v-70z" pointer-events="all"/><g clip-path="url(#c)" font-family="Helvetica" font-size="12" style="fill:light-dark(#000,#fff)" text-anchor="middle" transform="rotate(90 355 183.25)"><text x="355" y="188.25">25-1-1-3</text></g></g><path fill="#e3c800" stroke="#b09500" stroke-miterlimit="10" d="M342 165.5h-2v-11.03h-2.83l3.83-7.97 3.83 7.97H342Z" data-cell-id="YbwXu4WiOXPQauN_IFn6-4" pointer-events="all" style="fill:light-dark(#e3c800,#675000);stroke:light-dark(#b09500,#8d7600)" transform="translate(.5 .5)"/><path fill="none" stroke="#000" stroke-miterlimit="10" d="M298 151v65" data-cell-id="YbwXu4WiOXPQauN_IFn6-5" pointer-events="stroke" style="stroke:light-dark(#000,#fff)" transform="translate(.5 .5)"/><path fill="none" stroke="#000" stroke-miterlimit="10" d="m298 216 81-.05" data-cell-id="YbwXu4WiOXPQauN_IFn6-7" pointer-events="stroke" style="stroke:light-dark(#000,#fff)" transform="translate(.5 .5)"/><circle cx="337" cy="217" r="5" fill="#d5e8d4" stroke="#82b366" data-cell-id="YbwXu4WiOXPQauN_IFn6-8" pointer-events="all" style="fill:light-dark(#d5e8d4,#1f2f1e);stroke:light-dark(#82b366,#446e2c)" transform="translate(.5 .5)"/><g data-cell-id="YbwXu4WiOXPQauN_IFn6-9"><path fill="none" d="M348.75 217.25v112.5h-20v-112.5z" pointer-events="all"/><g clip-path="url(#d)" font-family="Helvetica" font-size="12" style="fill:light-dark(#000,#fff)" text-anchor="middle" transform="rotate(90 338.25 273)"><text x="338.25" y="278">25-1-1-2-hotfix-1</text></g></g><path fill="#1ba1e2" stroke="#006eaf" stroke-miterlimit="10" d="M313 235.5h-2v-11.03h-2.83l3.83-7.97 3.83 7.97H313Z" data-cell-id="YbwXu4WiOXPQauN_IFn6-10" pointer-events="all" style="fill:light-dark(#1ba1e2,#198cc4);stroke:light-dark(#006eaf,#51afe7)" transform="translate(.5 .5)"/><g data-cell-id="YbwXu4WiOXPQauN_IFn6-11"><path fill="none" d="M372 201.5h141.5v30H372z" pointer-events="all"/><text x="442.25" y="221" font-family="Helvetica" font-size="12" style="fill:light-dark(#000,#fff)" text-anchor="middle">stable-25-1-1-2-hotfix</text></g><path fill="#f8cecc" stroke="#b85450" stroke-miterlimit="10" d="M428 96h5.83l4.17 5.92 4.17-5.92H448l-7.08 10 7.08 10h-5.83l-4.17-5.92-4.17 5.92H428l6.67-10Z" data-cell-id="YbwXu4WiOXPQauN_IFn6-13" pointer-events="all" style="fill:light-dark(#f8cecc,#512d2b);stroke:light-dark(#b85450,#d7817e)" transform="translate(.5 .5)"/><path fill="none" stroke="#000" stroke-miterlimit="10" d="M578 56v90" data-cell-id="ha5FHuvoQI2r-frKpg79-15" pointer-events="stroke" style="stroke:light-dark(#000,#fff)" transform="translate(.5 .5)"/><g stroke="#000" stroke-miterlimit="10" data-cell-id="ha5FHuvoQI2r-frKpg79-16"><path fill="none" d="M578 146h282.63" pointer-events="stroke" style="stroke:light-dark(#000,#fff)" transform="translate(.5 .5)"/><path d="m865.88 146-7 3.5 1.75-3.5-1.75-3.5Z" pointer-events="all" style="fill:light-dark(#000,#fff);stroke:light-dark(#000,#fff)" transform="translate(.5 .5)"/></g><g data-cell-id="ha5FHuvoQI2r-frKpg79-17"><path fill="none" d="M890.5 131.5h73v30h-73z" pointer-events="all"/><text x="926.5" y="151" font-family="Helvetica" font-size="12" style="fill:light-dark(#000,#fff)" text-anchor="middle">stable-25-2</text></g><path fill="#f8cecc" stroke="#b85450" stroke-miterlimit="10" d="M638 46h5.83l4.17 5.92 4.17-5.92H658l-7.08 10L658 66h-5.83L648 60.08 643.83 66H638l6.67-10Z" data-cell-id="ha5FHuvoQI2r-frKpg79-18" pointer-events="all" style="fill:light-dark(#f8cecc,#512d2b);stroke:light-dark(#b85450,#d7817e)" transform="translate(.5 .5)"/><path fill="none" stroke="#000" stroke-miterlimit="10" d="m162 146 16-.75" data-cell-id="ha5FHuvoQI2r-frKpg79-28" pointer-events="stroke" style="stroke:light-dark(#000,#fff)" transform="translate(.5 .5)"/><path fill="#b1ddf0" stroke="#10739e" stroke-miterlimit="10" d="m624 176 10 10-10 10-10-10Z" data-cell-id="ha5FHuvoQI2r-frKpg79-46" pointer-events="all" style="fill:light-dark(#b1ddf0,#173d4d);stroke:light-dark(#10739e,#54a9ce)" transform="translate(.5 .5)"/><path fill="none" stroke="#000" stroke-miterlimit="10" d="M597 186h17" data-cell-id="ha5FHuvoQI2r-frKpg79-47" pointer-events="stroke" style="stroke:light-dark(#000,#fff)" transform="translate(.5 .5)"/><path fill="none" stroke="#000" stroke-miterlimit="10" d="M752 186h-50 40" data-cell-id="ha5FHuvoQI2r-frKpg79-49" pointer-events="stroke" style="stroke:light-dark(#000,#fff)" transform="translate(.5 .5)"/><path fill="none" stroke="#000" stroke-miterlimit="10" d="M634 186h38" data-cell-id="ha5FHuvoQI2r-frKpg79-50" pointer-events="stroke" style="stroke:light-dark(#000,#fff)" transform="translate(.5 .5)"/><circle cx="667" cy="186" r="5" fill="#f8cecc" stroke="#b85450" data-cell-id="ha5FHuvoQI2r-frKpg79-51" pointer-events="all" style="fill:light-dark(#f8cecc,#512d2b);stroke:light-dark(#b85450,#d7817e)" transform="translate(.5 .5)"/><path fill="none" stroke="#000" stroke-miterlimit="10" d="M672 186h35" data-cell-id="ha5FHuvoQI2r-frKpg79-52" pointer-events="stroke" style="stroke:light-dark(#000,#fff)" transform="translate(.5 .5)"/><circle cx="712" cy="186" r="5" fill="#d5e8d4" stroke="#82b366" data-cell-id="ha5FHuvoQI2r-frKpg79-53" pointer-events="all" style="fill:light-dark(#d5e8d4,#1f2f1e);stroke:light-dark(#82b366,#446e2c)" transform="translate(.5 .5)"/><path fill="none" stroke="#000" stroke-miterlimit="10" d="M717 186h25" data-cell-id="ha5FHuvoQI2r-frKpg79-54" pointer-events="stroke" style="stroke:light-dark(#000,#fff)" transform="translate(.5 .5)"/><path fill="none" stroke="#000" stroke-miterlimit="10" d="m752 185.81-14 .19" data-cell-id="ha5FHuvoQI2r-frKpg79-56" pointer-events="stroke" style="stroke:light-dark(#000,#fff)" transform="translate(.5 .5)"/><g data-cell-id="ha5FHuvoQI2r-frKpg79-61"><path fill="none" d="M763.5 170.75h100v30h-100z" pointer-events="all"/><text x="813" y="190.25" font-family="Helvetica" font-size="12" style="fill:light-dark(#000,#fff)" text-anchor="middle">stable-25-2-1</text></g><path fill="none" stroke="#000" stroke-miterlimit="10" d="M597 186v-40" data-cell-id="ha5FHuvoQI2r-frKpg79-63" pointer-events="stroke" style="stroke:light-dark(#000,#fff)" transform="translate(.5 .5)"/><path fill="#1ba1e2" stroke="#006eaf" stroke-miterlimit="10" d="m647 165.51-2-.02.08-11.26-2.84-.01 3.89-7.95 3.78 7.99-2.83-.01Z" data-cell-id="ha5FHuvoQI2r-frKpg79-67" pointer-events="all" style="fill:light-dark(#1ba1e2,#198cc4);stroke:light-dark(#006eaf,#51afe7)" transform="translate(.5 .5)"/><path fill="#e3c800" stroke="#b09500" stroke-miterlimit="10" d="M659.13 165.27h-2v-11.03h-2.83l3.83-7.97 3.83 7.97h-2.83Z" data-cell-id="ha5FHuvoQI2r-frKpg79-68" pointer-events="all" style="fill:light-dark(#e3c800,#675000);stroke:light-dark(#b09500,#8d7600)" transform="translate(.5 .5)"/><path fill="#1ba1e2" stroke="#006eaf" stroke-miterlimit="10" d="M640 206.5h-2v-11.03h-2.83l3.83-7.97 3.83 7.97H640Z" data-cell-id="ha5FHuvoQI2r-frKpg79-70" pointer-events="all" style="fill:light-dark(#1ba1e2,#198cc4);stroke:light-dark(#006eaf,#51afe7)" transform="translate(.5 .5)"/><path fill="#e3c800" stroke="#b09500" stroke-miterlimit="10" d="M654 206.5h-2v-11.03h-2.83l3.83-7.97 3.83 7.97H654Z" data-cell-id="ha5FHuvoQI2r-frKpg79-71" pointer-events="all" style="fill:light-dark(#e3c800,#675000);stroke:light-dark(#b09500,#8d7600)" transform="translate(.5 .5)"/><path fill="#e3c800" stroke="#b09500" stroke-miterlimit="10" d="M689.13 206.27h-2v-11.03h-2.83l3.83-7.97 3.83 7.97h-2.83Z" data-cell-id="ha5FHuvoQI2r-frKpg79-73" pointer-events="all" style="fill:light-dark(#e3c800,#675000);stroke:light-dark(#b09500,#8d7600)" transform="translate(.5 .5)"/><path fill="none" stroke="#000" stroke-miterlimit="10" d="M868 56V15" data-cell-id="ha5FHuvoQI2r-frKpg79-74" pointer-events="stroke" style="stroke:light-dark(#000,#fff)" transform="translate(.5 .5)"/><g stroke="#000" stroke-miterlimit="10" data-cell-id="ha5FHuvoQI2r-frKpg79-75"><path fill="none" d="m868 55.76 183.63.23" pointer-events="stroke" style="stroke:light-dark(#000,#fff)" transform="translate(.5 .5)"/><path d="m1056.88 56-7 3.49 1.75-3.5-1.74-3.5Z" pointer-events="all" style="fill:light-dark(#000,#fff);stroke:light-dark(#000,#fff)" transform="translate(.5 .5)"/></g><path fill="#f8cecc" stroke="#b85450" stroke-miterlimit="10" d="M753 176h5.83l4.17 5.92 4.17-5.92H773l-7.08 10 7.08 10h-5.83l-4.17-5.92-4.17 5.92H753l6.67-10Z" data-cell-id="ha5FHuvoQI2r-frKpg79-76" pointer-events="all" style="fill:light-dark(#f8cecc,#512d2b);stroke:light-dark(#b85450,#d7817e)" transform="translate(.5 .5)"/><path fill="#f8cecc" stroke="#b85450" stroke-miterlimit="10" d="M870 136h5.83l4.17 5.92 4.17-5.92H890l-7.08 10 7.08 10h-5.83l-4.17-5.92-4.17 5.92H870l6.67-10Z" data-cell-id="ha5FHuvoQI2r-frKpg79-77" pointer-events="all" style="fill:light-dark(#f8cecc,#512d2b);stroke:light-dark(#b85450,#d7817e)" transform="translate(.5 .5)"/><g data-cell-id="ha5FHuvoQI2r-frKpg79-78"><path fill="none" d="M1058.5 41.5h73v30h-73z" pointer-events="all"/><text x="1094.5" y="61" font-family="Helvetica" font-size="12" style="fill:light-dark(#000,#fff)" text-anchor="middle">stable-25-3</text></g><path fill="none" stroke="#000" stroke-miterlimit="10" d="M988 96V55" data-cell-id="ha5FHuvoQI2r-frKpg79-79" pointer-events="stroke" style="stroke:light-dark(#000,#fff)" transform="translate(.5 .5)"/><g stroke="#000" stroke-miterlimit="10" data-cell-id="ha5FHuvoQI2r-frKpg79-80"><path fill="none" d="m988 96.52 183.63.23" pointer-events="stroke" style="stroke:light-dark(#000,#fff)" transform="translate(.5 .5)"/><path d="m1176.88 96.76-7 3.49 1.75-3.5-1.74-3.5Z" pointer-events="all" style="fill:light-dark(#000,#fff);stroke:light-dark(#000,#fff)" transform="translate(.5 .5)"/></g><g data-cell-id="ha5FHuvoQI2r-frKpg79-81"><path fill="none" d="M1178.5 81.5h73v30h-73z" pointer-events="all"/><text x="1214.5" y="101" font-family="Helvetica" font-size="12" style="fill:light-dark(#000,#fff)" text-anchor="middle">stable-25-4</text></g></g></g></svg>